<svg viewBox="0 0 146 74" fill="none" xmlns="http://www.w3.org/2000/svg">
<g clip-path="url(#clip0)">
<path d="M115.667 72.9544H30.0318C21.0412 72.9544 12.4146 68.6508 6.96674 61.4818C1.93632 54.8493 -0.878579 47.2188 1.27273 26.7204C1.72226 22.4812 8.86117 23.6617 12.2433 21.0109C17.3059 17.0507 23.6206 14.8828 30.0318 14.8828H116.384C118.524 14.8828 120.558 15.398 122.645 15.4623C124.893 15.5267 127.098 15.3658 129.345 15.6126C133.84 16.0955 137.576 17.4478 141.268 20.1416C142.542 21.0753 143.73 22.1914 144.404 23.6188C145.079 25.0569 145.164 26.6774 145.228 28.2658C145.646 38.3647 146.074 48.7427 141.054 57.8972C136.002 67.0947 126.134 72.9544 115.667 72.9544Z" fill="black"/>
<path d="M115.668 73.4993H30.0334C20.8716 73.4993 12.0952 69.1313 6.54029 61.812C1.253 54.8468 -1.39065 46.8621 0.728548 26.6642C1.03894 23.7451 4.01438 23.069 6.88279 22.4251C8.72371 22.0065 10.6288 21.5772 11.8918 20.5899C17.04 16.5653 23.4725 14.3438 30.0227 14.3438H116.375C117.552 14.3438 118.697 14.494 119.8 14.6443C120.774 14.773 121.705 14.8911 122.647 14.9233C123.439 14.9447 124.22 14.9447 125.012 14.934C126.436 14.9233 127.913 14.9126 129.39 15.0735C134.131 15.5887 137.888 17.0161 141.57 19.6991C143.207 20.9011 144.267 22.0709 144.877 23.3802C145.615 24.9578 145.69 26.7716 145.755 28.2311C146.172 38.3945 146.6 48.869 141.516 58.1416C136.422 67.4786 126.264 73.4993 115.668 73.4993ZM30.0334 15.4384C23.7294 15.4384 17.5323 17.5741 12.5768 21.4484C11.1212 22.586 9.09832 23.0475 7.12896 23.4875C4.39969 24.11 2.03432 24.6359 1.80955 26.7823C-0.266833 46.6153 2.28049 54.4068 7.39653 61.1573C12.748 68.2084 21.2034 72.4154 30.0227 72.4154H115.658C125.868 72.4154 135.651 66.6093 140.574 57.6372C145.508 48.6329 145.091 38.2979 144.684 28.317C144.62 26.8682 144.556 25.2369 143.914 23.8632C143.379 22.7256 142.437 21.6845 140.949 20.6006C137.428 18.0249 133.831 16.6619 129.293 16.1789C127.881 16.0287 126.436 16.0394 125.034 16.0394C124.241 16.0502 123.439 16.0502 122.636 16.0287C121.63 15.9965 120.635 15.8677 119.671 15.7389C118.601 15.5994 117.488 15.4492 116.385 15.4492H30.0334V15.4384Z" fill="black"/>
<path d="M116.382 59.1077H30.0298C14.0395 59.1077 1.07812 46.1111 1.07812 30.0773C1.07812 14.0435 14.0395 1.04688 30.0298 1.04688H116.382C132.372 1.04688 145.334 14.0435 145.334 30.0773C145.344 46.1111 132.372 59.1077 116.382 59.1077Z" fill="#00A651"/>
<path d="M116.385 59.6556H30.0327C13.7641 59.6556 0.535156 46.3906 0.535156 30.0778C0.535156 13.7649 13.7641 0.5 30.0327 0.5H116.385C132.653 0.5 145.882 13.7649 145.882 30.0778C145.882 46.3906 132.653 59.6556 116.385 59.6556ZM30.0327 1.59468C14.3635 1.59468 1.62687 14.3767 1.62687 30.0778C1.62687 45.7896 14.3742 58.5609 30.0327 58.5609H116.385C132.054 58.5609 144.791 45.7789 144.791 30.0778C144.791 14.3659 132.043 1.59468 116.385 1.59468H30.0327Z" fill="black"/>
<path d="M103.981 10.0736C96.3287 14.7743 92.0903 24.3259 93.4924 34.2317C94.2416 39.5226 97.2064 46.52 101.723 49.3855C109.579 54.3759 114.802 54.1613 120.571 53.4851C132.815 52.0578 140.34 39.3831 138.937 27.6744C136.808 9.78387 116.525 2.36797 103.981 10.0736Z" fill="black"/>
<path d="M115.536 54.3976C111.351 54.3976 107.059 53.4425 101.43 49.8579C96.6989 46.8422 93.7127 39.6946 92.9528 34.3178C91.5186 24.2081 95.7356 14.5063 103.699 9.61241C110.131 5.66298 118.747 5.45907 126.196 9.0758C133.656 12.7033 138.505 19.4645 139.479 27.6317C140.249 34.1246 138.312 41.0683 134.277 46.1875C130.777 50.6414 125.929 53.4317 120.631 54.0435C118.897 54.2366 117.227 54.3976 115.536 54.3976ZM104.266 10.5354C96.6774 15.2039 92.6531 24.4657 94.0338 34.1568C94.783 39.4585 97.7692 46.2305 102.018 48.935C109.628 53.7752 114.68 53.6356 120.513 52.9595C125.597 52.3692 130.071 49.7935 133.432 45.5114C137.285 40.6068 139.147 33.9744 138.409 27.7605C137.477 19.9689 132.854 13.5189 125.736 10.0524C118.608 6.59667 110.377 6.77912 104.266 10.5354Z" fill="black"/>
<path d="M103.061 27.5025C103.403 27.2556 103.863 27.1268 104.398 27.1698C106.325 27.32 107.299 29.2196 109.343 29.2947C109.9 29.3162 114.288 27.9425 114.235 27.8673C112.693 25.839 111.141 23.8213 109.6 21.793C109.044 21.0524 107.481 19.668 107.427 18.7128C107.288 16.1693 110.521 16.9957 111.666 17.7791C114.738 19.8826 117.874 21.9003 120.881 24.0789C122.337 25.1414 123.707 25.3668 125.376 24.755C126.885 24.2077 128.448 23.5745 130.011 23.5208C130.781 23.4886 131.862 23.8857 132.505 24.3043C134.067 25.3131 132.419 27.2771 131.349 27.9747C129.979 28.8654 128.095 28.9191 126.618 29.6811C125.473 30.2713 124.199 31.205 123.675 32.3105C121.941 35.9808 120.528 39.8015 118.955 43.547C118.377 44.9207 116.204 46.9706 115.283 44.8134C114.748 43.5685 115.251 41.7977 115.326 40.4883C115.455 38.0629 115.594 35.6481 115.722 33.2227C115.733 33.008 111.43 34.2422 111.002 34.5427C109.611 35.5408 107.93 42.4953 105.383 40.2952C104.891 39.8659 104.805 39.1361 104.805 38.4814C104.794 37.2365 104.944 35.9808 105.233 34.7681C105.351 34.253 105.501 33.7271 105.383 33.212C105.265 32.6753 104.869 32.2568 104.473 31.8812C103.799 31.248 103.039 30.6684 102.632 29.8421C102.161 28.9191 102.386 27.9854 103.061 27.5025Z" fill="black"/>
<path d="M116.431 46.316C116.013 46.316 115.254 46.1443 114.783 45.0496C114.333 44.0086 114.504 42.7315 114.654 41.6046C114.708 41.2075 114.761 40.8212 114.783 40.4777L115.146 33.856C114.044 34.1028 111.657 34.8112 111.315 35.0151C110.972 35.2619 110.459 36.2922 109.998 37.2044C109.067 39.0611 108.115 40.9714 106.712 41.2504C106.135 41.3685 105.578 41.186 105.032 40.7246C104.358 40.145 104.272 39.2328 104.262 38.4923C104.251 37.2044 104.401 35.9058 104.7 34.6502L104.732 34.5321C104.839 34.1028 104.936 33.695 104.85 33.3516C104.765 32.9545 104.433 32.6111 104.101 32.2998L103.737 31.9671C103.138 31.4305 102.528 30.8832 102.142 30.1105C101.564 28.9514 101.811 27.7279 102.742 27.0518C103.213 26.7191 103.801 26.5689 104.433 26.6225C105.503 26.7084 106.295 27.245 107.055 27.7601C107.772 28.2538 108.457 28.7153 109.367 28.7475C109.763 28.7368 112.192 28.007 113.37 27.6206C112.428 26.3757 111.475 25.1415 110.523 23.8966L109.174 22.1365C109.035 21.9541 108.821 21.718 108.596 21.4711C107.826 20.6233 106.948 19.6574 106.894 18.7666C106.83 17.5968 107.365 17.0387 107.826 16.7704C109.11 16.0514 111.154 16.7812 111.978 17.3392C113.017 18.0476 114.055 18.7451 115.093 19.4427C117.116 20.795 119.203 22.2009 121.204 23.6497C122.532 24.6049 123.72 24.7873 125.197 24.2507L125.614 24.1005C127.027 23.5746 128.493 23.038 130.002 22.9843C130.923 22.9629 132.111 23.3922 132.806 23.8536C133.545 24.3259 133.695 24.9483 133.695 25.3991C133.695 26.6547 132.443 27.9319 131.64 28.447C130.826 28.9729 129.874 29.2304 128.943 29.4773C128.193 29.6812 127.487 29.8636 126.856 30.1856C125.539 30.8617 124.554 31.731 124.158 32.5681C122.992 35.0258 121.954 37.6015 120.958 40.0914C120.466 41.3256 119.974 42.5598 119.46 43.7832C119.01 44.835 117.715 46.316 116.431 46.316ZM115.682 32.7077C115.81 32.7077 115.906 32.7184 115.971 32.7613C116.153 32.8579 116.27 33.0725 116.26 33.2872L115.864 40.5528C115.842 40.9285 115.789 41.3363 115.735 41.7656C115.607 42.7529 115.457 43.8691 115.778 44.6311C116.035 45.2428 116.324 45.2428 116.431 45.2321C117.094 45.2321 118.101 44.2018 118.454 43.3647C118.967 42.1412 119.46 40.9177 119.952 39.6943C120.958 37.183 122.007 34.5965 123.184 32.1067C123.891 30.6256 125.646 29.5953 126.363 29.2197C127.091 28.8441 127.894 28.6294 128.664 28.4255C129.542 28.1894 130.377 27.9748 131.051 27.5348C131.8 27.0518 132.603 26.0859 132.603 25.4098C132.603 25.2381 132.56 25.0127 132.207 24.7873C131.661 24.4332 130.709 24.0576 130.024 24.0898C128.697 24.1327 127.316 24.6478 125.978 25.1308L125.561 25.281C123.73 25.9464 122.189 25.721 120.562 24.5298C118.571 23.0809 116.495 21.6965 114.483 20.3442C113.445 19.6466 112.396 18.9491 111.358 18.2407C110.641 17.7471 109.067 17.3178 108.361 17.7149C108.179 17.8222 107.933 18.0368 107.975 18.6915C108.008 19.1959 108.842 20.1189 109.399 20.7306C109.656 21.0096 109.881 21.2672 110.041 21.4711L111.39 23.2419C112.492 24.68 113.584 26.1074 114.676 27.5455C114.804 27.7172 114.825 27.9426 114.729 28.1358C114.44 28.6938 109.388 29.8529 109.335 29.8529C108.125 29.81 107.237 29.209 106.456 28.6724C105.781 28.2109 105.15 27.7816 104.358 27.7172C103.973 27.685 103.641 27.7709 103.384 27.9533C102.892 28.3075 102.784 28.9621 103.116 29.6383C103.405 30.2178 103.919 30.6793 104.465 31.173L104.85 31.5164C105.289 31.9349 105.771 32.4501 105.92 33.1262C106.06 33.7272 105.92 34.3067 105.792 34.8112L105.76 34.9292C105.482 36.099 105.343 37.3117 105.353 38.5137C105.353 39.0182 105.407 39.6299 105.739 39.9197C106.145 40.2738 106.413 40.2202 106.498 40.2094C107.376 40.0377 108.329 38.1274 109.024 36.7429C109.634 35.5195 110.116 34.5536 110.683 34.1458C110.876 33.9955 114.515 32.7077 115.682 32.7077Z" fill="black"/>
<path d="M35.191 13.7965C34.292 12.7662 30.6208 13.2385 29.3472 13.2385C28.994 13.2385 28.6194 13.2492 28.3411 13.4531C28.0628 13.657 27.9451 14.1829 27.8488 14.5048C27.4313 15.8893 27.0246 17.5957 26.2647 18.8406C26.1256 19.0767 25.8259 19.3236 25.6011 19.1626C25.4941 19.0875 25.4727 18.9372 25.4406 18.8084C25.1623 17.2093 24.884 15.6103 24.595 14.0112C24.5629 13.8073 24.5201 13.6033 24.381 13.4531C24.2311 13.2814 23.985 13.217 23.7602 13.1741C22.2832 12.895 20.8811 13.0238 19.4041 13.0238C18.7512 13.0238 18.0769 13.0238 17.4561 13.2492C17.135 13.3565 16.8139 13.5497 16.6855 13.8609C16.6106 14.0326 16.5999 14.2258 16.5892 14.4083C16.5142 15.7927 16.3751 17.1879 16.3323 18.5723C16.0647 27.7376 15.7864 36.8921 15.5189 46.0573C15.4761 47.3988 15.8507 47.4847 17.0387 47.5384C18.3338 47.6028 19.9713 47.6242 21.2664 47.6564C21.6089 47.6672 21.9728 47.6672 22.2511 47.474C22.5936 47.2379 22.7113 46.7764 22.7541 46.3578C23.0003 43.9324 23.0003 38.0082 23.1608 33.8334C23.2465 31.5475 23.4177 28.7786 23.4819 26.5034C23.4712 26.9649 24.2846 28.843 24.5736 29.2079C24.9375 29.6586 25.4406 30.0128 26.0399 29.605C26.5537 29.2508 27.7952 27.1902 27.8059 26.6107C27.7203 30.0557 27.7738 33.49 27.7631 36.935C27.7631 38.7917 27.7524 40.6376 27.731 42.4943C27.7203 43.986 27.6561 45.2417 27.7738 46.7335C27.7952 46.9696 27.8166 47.2164 27.9344 47.4096C28.2234 47.8925 28.887 47.9247 29.4542 47.8925C30.6744 47.8389 32.5581 47.9462 33.7889 47.8925C34.0458 47.8818 34.3241 47.8603 34.4953 47.6779C34.6452 47.5276 34.6773 47.2915 34.7094 47.0876C34.9235 45.4134 35.2767 18.744 35.4158 15.1166C35.48 14.4405 35.4051 14.0434 35.191 13.7965Z" fill="black"/>
<path d="M32.9897 48.3233C32.5615 48.3233 32.1013 48.3125 31.6411 48.3018C30.8812 48.2911 30.1105 48.2696 29.5005 48.3018C29.0724 48.3233 28.0663 48.3662 27.6167 47.6149C27.4348 47.3252 27.4134 46.9925 27.392 46.7564C27.3064 45.5436 27.3171 44.4811 27.3385 43.3543L27.3492 42.485C27.3706 40.6283 27.3813 38.7824 27.3813 36.9365C27.3813 35.8418 27.3813 34.7471 27.3813 33.6524C27.3813 31.9889 27.3706 30.2825 27.392 28.5868C27.0067 29.2093 26.5785 29.7567 26.3003 29.9498C25.9792 30.1645 25.1443 30.5616 24.2774 29.4776C24.1704 29.3488 24.0098 29.0483 23.8386 28.6942C23.8065 29.381 23.7744 30.0893 23.7422 30.7869C23.6887 31.8494 23.6352 32.9012 23.6031 33.8671C23.5389 35.4662 23.5068 37.3228 23.464 39.1365C23.3997 42.0986 23.3462 44.8997 23.1964 46.4129C23.1322 47.0998 22.9074 47.5613 22.5221 47.8296C22.1154 48.1086 21.623 48.0979 21.2913 48.0871C20.8096 48.0764 20.2959 48.0549 19.7607 48.0442C18.8403 48.0228 17.877 48.0013 17.0529 47.9584C15.715 47.894 15.0942 47.6901 15.1477 46.048L15.9611 18.563C15.9826 17.7152 16.0468 16.8566 16.111 16.0088C16.1538 15.4722 16.1859 14.9356 16.218 14.3882C16.2287 14.1843 16.2394 13.9375 16.3465 13.7014C16.507 13.3257 16.8602 13.036 17.3632 12.8643C18.0589 12.6174 18.7974 12.6174 19.4503 12.6174C19.4503 12.6174 19.461 12.6174 19.4717 12.6174C19.8142 12.6174 20.1674 12.6067 20.4992 12.6067C21.5909 12.5852 22.7148 12.5638 23.8814 12.7784C24.1918 12.8321 24.5022 12.9287 24.7376 13.1862C24.9517 13.4331 25.0052 13.7336 25.048 13.9482L25.8829 18.7133C25.9043 18.6918 25.9257 18.6596 25.9471 18.6274C26.5357 17.6615 26.9103 16.3522 27.2528 15.1931C27.3278 14.9248 27.4134 14.6565 27.4883 14.399L27.5311 14.2594C27.6381 13.8731 27.7773 13.3901 28.1305 13.1326C28.5372 12.8321 29.0617 12.8428 29.3827 12.8321C29.661 12.8535 30.0035 12.8106 30.4102 12.7891C32.6686 12.6711 34.7557 12.6389 35.537 13.5404C35.8153 13.8624 35.9223 14.3453 35.9009 15.1395C35.8474 16.5669 35.751 21.5358 35.6547 27.2883C35.4942 36.1101 35.3229 46.1124 35.1838 47.1427C35.1517 47.3681 35.1089 47.7115 34.8627 47.9691C34.5523 48.2803 34.1135 48.3018 33.8673 48.3125C33.589 48.3125 33.3 48.3233 32.9897 48.3233ZM30.3139 47.4539C30.742 47.4539 31.2023 47.4647 31.6625 47.4754C32.4331 47.4861 33.2037 47.5076 33.8031 47.4754C33.9208 47.4754 34.1563 47.4647 34.2312 47.3788C34.2847 47.3144 34.3168 47.132 34.3275 47.0139C34.456 46.0266 34.6379 35.6164 34.7878 27.2453C34.8948 21.4929 34.9804 16.5239 35.0339 15.0858C35.0553 14.5385 35.0018 14.2058 34.8734 14.0555C34.2954 13.3901 31.7695 13.5189 30.4209 13.5941C29.9928 13.6155 29.5861 13.6477 29.3399 13.637C29.0295 13.6155 28.7513 13.6477 28.58 13.7658C28.4516 13.8624 28.3445 14.2487 28.2803 14.4526L28.2375 14.6029C28.1626 14.8497 28.0877 15.118 28.0128 15.3863C27.6596 16.599 27.2635 17.9728 26.6214 19.0245C26.5571 19.1318 26.3003 19.5075 25.9043 19.5826C25.7116 19.6148 25.5189 19.5719 25.3691 19.4538C25.1336 19.2714 25.0801 18.9816 25.0587 18.8421L24.2239 14.0448C24.2025 13.916 24.1704 13.755 24.1169 13.6799C24.0419 13.5941 23.8279 13.5511 23.7315 13.5404C22.6505 13.3365 21.623 13.3579 20.5206 13.3794C20.1674 13.3901 19.8356 13.3901 19.4503 13.3901C18.8403 13.3901 18.1981 13.3901 17.6415 13.5833C17.481 13.637 17.2027 13.7658 17.1064 13.9697C17.0636 14.077 17.0529 14.2272 17.0422 14.3775C17.01 14.9141 16.9779 15.4614 16.9351 16.0088C16.8709 16.8459 16.8174 17.6937 16.7853 18.5308L15.9718 46.0158C15.9397 47.0139 16.004 47.0247 17.0957 47.0676C17.9091 47.1105 18.8617 47.132 19.7821 47.1535C20.3173 47.1642 20.8417 47.1749 21.3234 47.1964C21.6337 47.2071 21.8906 47.2071 22.0512 47.0891C22.2224 46.971 22.3401 46.692 22.383 46.2734C22.5328 44.7924 22.5863 42.0128 22.6505 39.0614C22.6933 37.237 22.7255 35.3803 22.7897 33.7705C22.8325 32.8046 22.8753 31.7528 22.9288 30.6903C23.0037 29.2415 23.068 27.7605 23.1108 26.4404C23.1215 26.215 23.2927 26.0326 23.5389 26.0433C23.7637 26.0541 23.9456 26.2365 23.9349 26.4726C23.9349 26.8268 24.6841 28.5868 24.941 28.9088C25.4226 29.5098 25.7116 29.3166 25.8507 29.22C26.2682 28.9303 27.4241 26.9985 27.4455 26.5585C27.4455 26.3331 27.5846 26.1507 27.8736 26.1507C28.0984 26.1507 28.2803 26.3438 28.2803 26.5799C28.2268 28.9195 28.2268 31.3021 28.2375 33.5988C28.2375 34.6934 28.2482 35.7881 28.2375 36.8935C28.2375 38.7502 28.2268 40.5961 28.2054 42.4528L28.1947 43.3221C28.1733 44.4275 28.1626 45.4792 28.2482 46.649C28.2589 46.853 28.2803 47.0247 28.3552 47.1427C28.5372 47.4432 29.0938 47.4539 29.5005 47.4325C29.7359 47.4647 30.0142 47.4539 30.3139 47.4539Z" fill="black"/>
<path d="M45.7148 37.6557C45.6613 37.6772 45.6078 37.6986 45.5543 37.7094C45.2546 37.7845 44.7409 37.7523 44.5482 37.484C44.3877 37.2586 44.3984 36.883 44.3984 36.6254C44.3984 36.2927 44.3984 35.9493 44.4091 35.6166C44.4198 35.1658 44.3877 22.9312 44.4198 22.4805C44.4519 22.137 44.5589 21.7721 44.9335 21.6755C45.2011 21.6111 45.747 21.6219 45.9396 21.8473C46.1109 22.0404 46.1537 22.3302 46.1751 22.577C46.2286 23.1136 46.2179 35.4234 46.1965 35.96C46.1644 36.5074 46.3356 37.3659 45.7148 37.6557ZM52.629 33.6526C52.8002 29.2739 52.7467 24.7235 52.3079 20.3555C52.1046 18.3378 51.6015 15.9553 50.1994 14.3777C48.594 12.564 44.4733 12.6176 42.2792 13.1435C39.2395 13.884 38.0087 16.7388 37.7839 19.5184C37.5056 23.1888 37.5805 26.9128 37.5163 30.6047C37.4735 33.3521 37.4414 36.1103 37.4414 38.8577C37.4414 41.0256 37.5484 44.0628 38.8542 45.9087C40.4383 48.1517 44.6445 48.3664 47.0955 47.7654C47.5772 47.6473 48.0267 47.4863 48.4441 47.3039C53.5066 44.9857 52.4578 38.0742 52.629 33.6526Z" fill="black"/>
<path d="M44.5244 48.4839C42.2446 48.4839 39.7401 47.8722 38.5307 46.1658C37.2142 44.3091 37.043 41.4437 37.043 38.8787C37.043 36.142 37.0644 33.3624 37.1179 30.6149C37.1393 29.5739 37.1393 28.5329 37.15 27.4919C37.1714 24.8732 37.1821 22.158 37.3855 19.5072C37.6637 15.8904 39.419 13.4328 42.1911 12.7567C44.6314 12.1664 48.8163 12.1986 50.5181 14.1196C51.7168 15.4719 52.4339 17.511 52.7229 20.3228C53.1296 24.3366 53.2366 28.8334 53.044 33.6736C53.0119 34.4034 53.0226 35.2083 53.0226 36.0454C53.044 40.3275 53.0761 45.6399 48.6343 47.6898C48.1955 47.8937 47.7139 48.0547 47.2108 48.1834C46.4402 48.3659 45.4984 48.4839 44.5244 48.4839ZM45.188 13.2503C44.1712 13.2503 43.1758 13.3684 42.3838 13.5616C38.9695 14.3879 38.3273 18.0369 38.2096 19.5716C38.0062 22.1902 37.9848 24.8947 37.9741 27.5026C37.9634 28.5436 37.9634 29.5954 37.942 30.6364C37.8992 33.3731 37.8671 36.1527 37.8671 38.8894C37.8671 41.3256 38.0276 44.0301 39.205 45.6936C40.6927 47.7864 44.7491 47.9366 47.0182 47.3785C47.4677 47.2712 47.8958 47.121 48.2918 46.9385C52.252 45.1141 52.2199 40.2953 52.1984 36.0561C52.1984 35.2083 52.1877 34.3926 52.2199 33.6414C52.4125 28.8334 52.3055 24.3796 51.9095 20.4087C51.6419 17.7686 50.989 15.8904 49.908 14.667C48.9982 13.6367 47.0503 13.2503 45.188 13.2503ZM45.2415 38.1596C44.8669 38.1596 44.4388 38.0523 44.214 37.7196C43.9785 37.3976 43.9785 36.9684 43.9892 36.6464C43.9892 36.2708 43.9892 35.9381 43.9999 35.5946C43.9999 35.4337 43.9999 33.8668 43.9999 31.8599C43.9999 26.8694 43.9892 22.7161 44.0106 22.4263C44.0749 21.5677 44.5565 21.3209 44.8348 21.2565C45.1452 21.1814 45.8944 21.1492 46.2476 21.557C46.4937 21.836 46.558 22.1795 46.5901 22.5229C46.6543 23.1776 46.6115 35.8737 46.6115 35.9703C46.6115 36.0669 46.6115 36.1742 46.6115 36.2815C46.6222 36.8396 46.6436 37.6767 45.8944 38.0201C45.8194 38.0523 45.7445 38.0845 45.6589 38.106C45.5412 38.1382 45.3913 38.1596 45.2415 38.1596ZM45.2415 22.0507C45.1559 22.0507 45.0809 22.0614 45.0167 22.0721C44.9097 22.0936 44.8455 22.2439 44.8241 22.5014C44.8027 22.8127 44.8134 28.2646 44.8134 31.8706C44.8134 33.8882 44.8134 35.4659 44.8134 35.6161C44.8134 35.9488 44.8027 36.2815 44.8027 36.6142C44.8027 36.8288 44.8027 37.1293 44.8776 37.2367C44.9204 37.3011 45.2094 37.3654 45.4555 37.3011L45.5412 37.2689C45.7766 37.1615 45.7873 36.7966 45.7659 36.303C45.7659 36.1742 45.7659 36.0454 45.7659 35.9381C45.7873 35.3156 45.798 23.1454 45.7445 22.6088C45.7338 22.48 45.7017 22.2224 45.6054 22.1151C45.5733 22.0829 45.4127 22.0507 45.2415 22.0507Z" fill="black"/>
<path d="M80.6016 37.6557C80.548 37.6772 80.4945 37.6986 80.441 37.7094C80.1413 37.7845 79.6276 37.7523 79.4349 37.484C79.2744 37.2586 79.2851 36.883 79.2851 36.6254C79.2851 36.2927 79.2851 35.9493 79.2958 35.6166C79.3065 35.1658 79.2744 22.9312 79.3065 22.4805C79.3386 22.137 79.4456 21.7721 79.8202 21.6755C80.0878 21.6111 80.6337 21.6219 80.8263 21.8473C80.9976 22.0404 81.0404 22.3302 81.0618 22.577C81.1153 23.1136 81.1046 35.4234 81.0832 35.96C81.0511 36.5074 81.2223 37.3659 80.6016 37.6557ZM87.5157 33.6526C87.687 29.2739 87.6334 24.7235 87.1946 20.3555C86.9913 18.3378 86.4882 15.9553 85.0861 14.3777C83.4807 12.564 79.36 12.6176 77.1659 13.1435C74.1262 13.884 72.8954 16.7388 72.6706 19.5184C72.3923 23.1888 72.4673 26.9128 72.403 30.6047C72.3602 33.3521 72.3281 36.1103 72.3281 38.8577C72.3281 41.0256 72.4352 44.0628 73.7409 45.9087C75.325 48.1517 79.5313 48.3664 81.9823 47.7654C82.4639 47.6473 82.9134 47.4863 83.3308 47.3039C88.3934 44.9857 87.3445 38.0742 87.5157 33.6526Z" fill="black"/>
<path d="M79.4189 48.483C77.1392 48.483 74.6347 47.8712 73.4252 46.1648C72.1087 44.3081 71.9375 41.4427 71.9375 38.8777C71.9375 36.141 71.9589 33.3614 72.0124 30.6139C72.0338 29.5729 72.0338 28.5319 72.0445 27.4909C72.0659 24.8615 72.0766 22.1463 72.2907 19.4954C72.569 15.8787 74.3243 13.4211 77.0964 12.7449C79.5366 12.1547 83.7215 12.1869 85.4233 14.1079C86.6221 15.4602 87.3392 17.4993 87.6281 20.3111C88.0349 24.3249 88.1419 28.8217 87.9492 33.6619C87.9171 34.3917 87.9278 35.1966 87.9278 36.0337C87.9492 40.3158 87.9813 45.6282 83.5396 47.678C83.1008 47.882 82.6191 48.0429 82.1161 48.1717C81.3348 48.3649 80.3929 48.483 79.4189 48.483ZM80.0825 13.2493C79.0657 13.2493 78.0703 13.3674 77.2783 13.5606C73.864 14.3869 73.2219 18.0359 73.1041 19.5706C72.9008 22.1999 72.8794 24.8937 72.8687 27.5016C72.858 28.5426 72.858 29.5837 72.8366 30.6354C72.7937 33.3721 72.7616 36.1517 72.7616 38.8884C72.7616 41.3246 72.9222 44.0291 74.0995 45.6926C75.5872 47.7854 79.6437 47.9356 81.9127 47.3883C82.3622 47.281 82.7904 47.1307 83.1864 46.9483C87.1465 45.1238 87.1144 40.3051 87.093 36.0659C87.093 35.218 87.0823 34.4024 87.1144 33.6511C87.307 28.8431 87.2 24.3893 86.804 20.4184C86.5364 17.7783 85.8835 15.9002 84.8025 14.6767C83.8928 13.6357 81.9448 13.2493 80.0825 13.2493ZM80.136 38.1586C79.7614 38.1586 79.3333 38.0513 79.1085 37.7186C78.8731 37.3967 78.8731 36.9674 78.8838 36.6454C78.8838 36.2698 78.8838 35.9371 78.8945 35.5937C78.8945 35.4434 78.8945 33.9731 78.8945 32.0735C78.8945 26.9757 78.8838 22.7258 78.9052 22.4361C78.9694 21.5775 79.451 21.3306 79.7293 21.2663C80.0397 21.1911 80.7889 21.1589 81.1421 21.5667C81.3883 21.8351 81.4525 22.1892 81.4846 22.5326C81.5488 23.1873 81.506 35.8834 81.506 35.98C81.506 36.0766 81.506 36.1839 81.506 36.2912C81.5167 36.8493 81.5381 37.6864 80.7889 38.0299C80.714 38.062 80.6391 38.0942 80.5534 38.1157C80.4357 38.1372 80.2859 38.1586 80.136 38.1586ZM80.136 22.0497C80.0504 22.0497 79.9755 22.0604 79.9113 22.0712C79.8684 22.0819 79.7507 22.1141 79.7186 22.5004C79.6972 22.8117 79.7079 28.607 79.7079 32.0735C79.7079 33.9838 79.7079 35.4541 79.7079 35.6044C79.6972 35.9371 79.6972 36.2698 79.6972 36.6025C79.6972 36.8171 79.6972 37.1176 79.7721 37.2249C79.8149 37.2893 80.1039 37.3537 80.3501 37.2893L80.4357 37.2571C80.6712 37.1498 80.6819 36.7849 80.6605 36.2912C80.6605 36.1625 80.6605 36.0337 80.6605 35.9263C80.6819 35.3039 80.6926 23.1336 80.6391 22.597C80.6284 22.4683 80.5962 22.2107 80.4999 22.1034C80.4678 22.0819 80.3073 22.0497 80.136 22.0497Z" fill="black"/>
<path d="M63.2679 37.7617C62.9789 38.2339 62.508 38.5666 61.7909 38.5988C61.6624 38.6096 61.5126 38.5988 61.4163 38.513C61.2771 38.3949 61.2664 38.191 61.2664 38.0086C61.3092 32.6747 61.4698 27.3516 61.7588 22.0284C61.7695 21.8889 61.7695 21.7601 61.8337 21.6313C61.9835 21.3094 62.4116 21.2128 62.7434 21.3201C63.3749 21.5347 63.6318 22.0391 63.696 22.6616C63.7495 23.1982 63.7388 35.508 63.7174 36.0446C63.6746 36.6563 63.5676 37.2788 63.2679 37.7617ZM70.3105 32.0844C70.4817 27.7057 70.5995 24.808 70.1606 20.4508C69.9894 18.7336 69.6469 16.877 68.7157 15.3852C67.7953 13.9042 65.7403 13.6895 64.1134 13.5071C61.7588 13.2495 59.3827 13.1744 57.0066 13.2817C56.5357 13.3032 56.0112 13.3676 55.7223 13.7325C55.4975 14.0115 55.4761 14.3871 55.4654 14.7413C55.2299 20.0752 55.1443 25.3661 55.048 30.7C54.9623 35.9158 54.8339 41.1424 54.8125 46.326C54.8125 46.7445 54.8553 47.2382 55.2192 47.4421C55.3798 47.528 55.5617 47.5387 55.7437 47.5494C59.6289 47.7212 67.9665 48.1504 69.5399 43.5249C70.5995 40.4018 70.182 35.3255 70.3105 32.0844Z" fill="black"/>
<path d="M59.0493 48.0759C57.8399 48.0759 56.7268 48.0222 55.8277 47.99H55.71C55.5173 47.9793 55.2498 47.9685 55.0036 47.829C54.3828 47.4856 54.3828 46.6914 54.3828 46.3587C54.3935 42.5166 54.4684 38.5886 54.5434 34.7895L54.6183 30.722C54.7039 25.4632 54.8002 20.065 55.0357 14.7526C55.0464 14.4091 55.0678 13.9047 55.3889 13.4969C55.8277 12.9496 56.5769 12.9066 56.9836 12.8959C59.3597 12.7779 61.7786 12.853 64.1547 13.1213C65.91 13.3145 68.0399 13.5506 69.0567 15.1926C70.0841 16.8346 70.3945 18.8522 70.5551 20.4299C71.0046 24.8408 70.8869 27.7385 70.7049 32.1279C70.6728 32.9865 70.6728 33.9846 70.6835 35.0256C70.6942 37.9769 70.7156 41.3253 69.9022 43.6971C68.6178 47.4534 63.2663 48.0759 59.0493 48.0759ZM59.1778 13.6579C58.4607 13.6579 57.7436 13.6794 57.0265 13.7115C56.6197 13.733 56.213 13.7867 56.0418 14.0013C55.9026 14.173 55.8812 14.4628 55.8705 14.774C55.6351 20.0757 55.5494 25.4632 55.4531 30.6683L55.3782 34.7895C55.3033 38.5886 55.2284 42.5059 55.2176 46.3372C55.2176 46.4982 55.2176 46.9812 55.4103 47.0885C55.4852 47.1314 55.6244 47.1314 55.7528 47.1422H55.8705C59.7022 47.3139 67.676 47.6788 69.1423 43.3966C69.9022 41.1644 69.8915 37.8911 69.8808 35.0041C69.8808 33.9416 69.8701 32.9328 69.9022 32.0635C70.0734 27.717 70.1912 24.8408 69.7524 20.4835C69.6025 19.0025 69.3135 17.1029 68.3717 15.6004C67.5582 14.3018 65.6531 14.0872 64.1119 13.9262C62.4529 13.7437 60.8153 13.6579 59.1778 13.6579ZM61.7144 39.0287C61.5752 39.0287 61.3291 39.0072 61.1364 38.8355C60.8367 38.5886 60.8474 38.2023 60.8474 38.0198C60.8902 32.7289 61.0508 27.3414 61.3398 22.0182C61.3505 21.8787 61.3612 21.6748 61.4468 21.4709C61.693 20.9235 62.3566 20.7733 62.8596 20.945C63.3627 21.1167 63.9834 21.546 64.0905 22.63C64.1547 23.2846 64.1119 35.9807 64.1119 36.0773C64.0798 36.8608 63.9085 37.5047 63.6088 37.9876C63.2128 38.6208 62.592 38.975 61.8107 39.0287C61.7893 39.0179 61.7572 39.0287 61.7144 39.0287ZM62.4529 21.6963C62.3352 21.6963 62.2281 21.7392 62.196 21.8036C62.1746 21.8572 62.1639 21.9646 62.1639 22.0504C61.8856 27.3628 61.7144 32.7396 61.6716 38.0198C61.6716 38.1164 61.6716 38.1701 61.6823 38.1916C61.693 38.1916 61.7251 38.1916 61.7572 38.1916C62.2816 38.1594 62.6563 37.9555 62.9024 37.5476C63.1272 37.1827 63.2556 36.6783 63.277 36.0344C63.2984 35.4119 63.3091 23.2417 63.2556 22.7051C63.1807 22.0075 62.8596 21.8143 62.5813 21.7177C62.5492 21.707 62.5064 21.6963 62.4529 21.6963Z" fill="black"/>
<path d="M103.977 8.49552C96.324 13.1962 92.0749 22.7478 93.4877 32.6536C94.2369 37.9445 97.2017 44.9419 101.718 47.8073C109.574 52.7978 114.797 52.5831 120.566 51.907C132.811 50.4796 140.335 37.805 138.933 26.0962C136.803 8.20575 116.521 0.789844 103.977 8.49552Z" fill="#2D5CAA"/>
<path d="M115.529 53.0767C111.312 53.0767 106.977 52.1108 101.294 48.494C96.4885 45.4354 93.4702 38.2019 92.6996 32.7714C91.244 22.5544 95.5145 12.756 103.563 7.80849C110.071 3.81613 118.783 3.60149 126.307 7.26115C133.853 10.9208 138.744 17.7679 139.729 26.0209C140.51 32.5783 138.551 39.5971 134.474 44.77C130.931 49.2775 126.018 52.1 120.645 52.7225C118.911 52.9264 117.231 53.0767 115.529 53.0767ZM104.409 9.1822C96.9059 13.797 92.9351 22.9623 94.2944 32.5461C95.0436 37.7834 97.9762 44.4802 102.161 47.1418C109.696 51.9283 114.716 51.7995 120.485 51.1234C125.504 50.5439 129.903 48.0004 133.232 43.7719C137.042 38.921 138.883 32.3636 138.145 26.2141C137.224 18.5084 132.654 12.1335 125.611 8.70999C118.58 5.28644 110.445 5.46888 104.409 9.1822Z" fill="black"/>
<path d="M103.061 25.9243C103.403 25.6775 103.863 25.5487 104.398 25.5916C106.325 25.7419 107.299 27.6415 109.343 27.7166C109.9 27.7381 114.288 26.3643 114.235 26.2892C112.693 24.2608 111.141 22.2432 109.6 20.2148C109.044 19.4743 107.481 18.0899 107.427 17.1347C107.288 14.5912 110.521 15.4176 111.666 16.201C114.738 18.3045 117.874 20.3114 120.881 22.5008C122.337 23.5633 123.707 23.7886 125.376 23.1769C126.885 22.6296 128.448 21.9964 130.011 21.9427C130.781 21.9105 131.862 22.3076 132.505 22.7262C134.067 23.735 132.419 25.699 131.349 26.3965C129.979 27.2873 128.095 27.341 126.618 28.103C125.473 28.6932 124.199 29.6269 123.675 30.7323C121.941 34.4027 120.528 38.2234 118.955 41.9689C118.377 43.3426 116.204 45.3924 115.283 43.2353C114.748 41.9903 115.251 40.2195 115.326 38.9102C115.455 36.4848 115.594 34.07 115.722 31.6446C115.733 31.4299 111.43 32.6641 111.002 32.9646C109.611 33.9627 107.93 40.9171 105.383 38.717C104.891 38.2878 104.805 37.558 104.805 36.9033C104.794 35.6584 104.944 34.4027 105.233 33.19C105.351 32.6748 105.501 32.149 105.383 31.6338C105.265 31.0972 104.869 30.6787 104.473 30.303C103.799 29.6698 103.039 29.0903 102.632 28.2639C102.161 27.3517 102.386 26.418 103.061 25.9243Z" fill="#F49AC1"/>
<path d="M116.425 44.7281C116.008 44.7281 115.258 44.5672 114.788 43.4725C114.338 42.4315 114.509 41.1651 114.659 40.0382C114.713 39.6411 114.766 39.2547 114.788 38.9113L115.151 32.2789C114.049 32.5257 111.641 33.2448 111.309 33.4487C110.967 33.6955 110.453 34.7365 109.993 35.6488C109.072 37.4947 108.109 39.4157 106.717 39.6948C106.139 39.8128 105.583 39.6304 105.048 39.1689C104.373 38.5894 104.288 37.6771 104.288 36.9473C104.277 35.6595 104.427 34.3716 104.727 33.1052L104.759 32.9872C104.866 32.5579 104.962 32.1501 104.876 31.7959C104.791 31.3988 104.459 31.0554 104.117 30.7334L103.753 30.4007C103.153 29.8641 102.543 29.3168 102.158 28.5441C101.58 27.3957 101.826 26.1723 102.757 25.4961C103.218 25.1635 103.806 25.0132 104.448 25.0669C105.519 25.1527 106.3 25.6893 107.06 26.2045C107.788 26.6981 108.462 27.1596 109.372 27.2026C109.768 27.1918 112.219 26.462 113.385 26.0757C112.454 24.8522 111.523 23.6288 110.581 22.4053L109.168 20.5594C109.029 20.3769 108.815 20.1408 108.59 19.894C107.82 19.0461 106.942 18.0802 106.889 17.1895C106.824 16.0304 107.36 15.4723 107.82 15.204C109.093 14.485 111.148 15.2148 111.962 15.7728C113 16.4812 114.049 17.1787 115.087 17.8871C117.099 19.2393 119.186 20.6345 121.188 22.0941C122.515 23.06 123.703 23.2317 125.18 22.6951L125.587 22.5448C127.01 22.0189 128.477 21.4823 129.975 21.4287C130.906 21.375 132.073 21.8365 132.779 22.298C133.507 22.7702 133.668 23.3926 133.668 23.8327C133.668 25.0776 132.415 26.3547 131.623 26.8699C130.81 27.3957 129.857 27.6533 128.937 27.9001C128.188 28.1041 127.481 28.2865 126.85 28.6085C125.533 29.2846 124.549 30.1539 124.153 30.991C122.986 33.4487 121.948 36.0244 120.952 38.5142C120.46 39.7484 119.957 40.9826 119.443 42.2061C119.004 43.2578 117.709 44.7281 116.425 44.7281ZM115.676 31.1413C115.804 31.1413 115.901 31.152 115.965 31.1949C116.147 31.2915 116.265 31.5061 116.254 31.7101L115.858 38.9757C115.836 39.3513 115.783 39.7592 115.729 40.1884C115.601 41.1758 115.451 42.2919 115.772 43.0539C116.04 43.6657 116.339 43.6657 116.436 43.6657C117.11 43.6657 118.116 42.6354 118.469 41.7875C118.983 40.5641 119.475 39.3406 119.968 38.1064C120.974 35.5951 122.023 33.0086 123.2 30.5188C123.906 29.0378 125.662 28.0075 126.379 27.6426C127.107 27.267 127.909 27.0523 128.68 26.8484C129.558 26.6123 130.393 26.3869 131.067 25.9576C131.816 25.4747 132.619 24.4981 132.619 23.8219C132.619 23.661 132.576 23.4141 132.223 23.1887C131.677 22.8346 130.724 22.4804 130.039 22.4911C128.701 22.5341 127.321 23.0492 125.983 23.5429L125.576 23.6931C123.746 24.3585 122.215 24.1332 120.589 22.9526C118.608 21.5145 116.532 20.1193 114.52 18.7778C113.471 18.0802 112.422 17.3719 111.384 16.6636C110.667 16.1699 109.093 15.7406 108.376 16.1377C108.194 16.245 107.948 16.4597 107.991 17.1251C108.023 17.6402 108.858 18.5525 109.415 19.1642C109.671 19.4432 109.896 19.7008 110.057 19.9047L111.459 21.7399C112.54 23.1565 113.621 24.5625 114.691 25.9791C114.82 26.1401 114.83 26.3762 114.734 26.5586C114.445 27.106 109.393 28.265 109.35 28.265C108.141 28.2221 107.253 27.6211 106.482 27.0845C105.808 26.623 105.176 26.1937 104.384 26.1293C103.999 26.0971 103.656 26.183 103.399 26.3655C102.907 26.7196 102.8 27.385 103.132 28.0611C103.421 28.6407 103.935 29.1021 104.48 29.5958L104.866 29.9393C105.305 30.3578 105.776 30.8729 105.936 31.5491C106.075 32.1501 105.936 32.7189 105.808 33.234L105.776 33.3521C105.497 34.5219 105.358 35.7346 105.369 36.9366C105.369 37.441 105.422 38.0527 105.765 38.3532C106.172 38.7074 106.439 38.6537 106.525 38.643C107.402 38.4713 108.355 36.561 109.051 35.1658C109.661 33.9423 110.142 32.9764 110.71 32.5686C110.881 32.4291 114.499 31.1413 115.676 31.1413Z" fill="black"/>
<path d="M35.191 12.2184C34.292 11.1881 30.6208 11.6603 29.3472 11.6603C28.994 11.6603 28.6194 11.6711 28.3411 11.875C28.0628 12.0789 27.9451 12.6048 27.8488 12.9267C27.4313 14.3112 27.0246 16.0176 26.2647 17.2625C26.1256 17.4986 25.8259 17.7455 25.6011 17.5845C25.4941 17.5093 25.4727 17.3591 25.4406 17.2303C25.1623 15.6312 24.884 14.0321 24.595 12.433C24.5629 12.2291 24.5201 12.0252 24.381 11.875C24.2311 11.7033 23.985 11.6389 23.7602 11.5959C22.2832 11.3169 20.8811 11.4457 19.4041 11.4457C18.7512 11.4457 18.0769 11.4457 17.4561 11.6711C17.135 11.7784 16.8139 11.9716 16.6855 12.2828C16.6106 12.4545 16.5999 12.6477 16.5892 12.8301C16.5142 14.2146 16.3751 15.6098 16.3323 16.9942C16.0647 26.1594 15.7864 35.314 15.5189 44.4792C15.4761 45.8207 15.8507 45.9066 17.0387 45.9602C18.3338 46.0246 19.9713 46.0461 21.2664 46.0783C21.6089 46.089 21.9728 46.089 22.2511 45.8959C22.5936 45.6597 22.7113 45.1983 22.7541 44.7797C23.0003 42.3542 23.0003 36.4301 23.1608 32.2553C23.2465 29.9694 23.4177 27.2005 23.4819 24.9253C23.4712 25.3867 24.2846 27.2649 24.5736 27.6298C24.9375 28.0805 25.4406 28.4347 26.0399 28.0268C26.5537 27.6727 27.7952 25.6121 27.8059 25.0326C27.7203 28.4776 27.7738 31.9119 27.7631 35.3569C27.7631 37.2136 27.7524 39.0595 27.731 40.9161C27.7203 42.4079 27.6561 43.6636 27.7738 45.1553C27.7952 45.3914 27.8166 45.6383 27.9344 45.8315C28.2234 46.3144 28.887 46.3466 29.4542 46.3144C30.6744 46.2607 32.5581 46.3681 33.7889 46.3144C34.0458 46.3037 34.3241 46.2822 34.4953 46.0998C34.6452 45.9495 34.6773 45.7134 34.7094 45.5095C34.9235 43.8353 35.2767 17.1659 35.4158 13.5385C35.48 12.8623 35.4051 12.4652 35.191 12.2184Z" fill="#F49AC1"/>
<path d="M32.9895 46.8628C32.5614 46.8628 32.1011 46.852 31.6409 46.8413C30.881 46.8306 30.1211 46.8091 29.5217 46.8413C29.0722 46.8628 28.0126 46.9057 27.5202 46.09C27.3276 45.7788 27.3062 45.4139 27.2848 45.1778C27.1991 43.9543 27.2098 42.8919 27.2313 41.765L27.242 40.8957C27.2634 39.0498 27.2741 37.1931 27.2741 35.3472C27.2741 34.2525 27.2741 33.1578 27.2741 32.0631C27.2741 30.5284 27.2634 28.9723 27.2741 27.4054C26.9423 27.8991 26.6105 28.2962 26.375 28.4571C26.0218 28.6932 25.1228 29.1225 24.1916 27.9527C24.1274 27.8669 24.0418 27.7381 23.9454 27.5556C23.924 28.0922 23.8919 28.6396 23.8705 29.1869C23.817 30.2494 23.7635 31.3012 23.7314 32.2563C23.6671 33.8554 23.635 35.7121 23.5922 37.5258C23.528 40.4986 23.4745 43.2997 23.3247 44.8129C23.2497 45.532 23.0143 46.0256 22.5968 46.3154C22.158 46.6159 21.6443 46.6052 21.2911 46.5945C20.8201 46.5837 20.3171 46.573 19.7927 46.5515C18.8615 46.5301 17.8875 46.5086 17.0527 46.4657C15.8004 46.4013 14.9763 46.2296 15.0298 44.4266L15.8432 16.9416C15.8646 16.083 15.9289 15.2351 15.9931 14.3766C16.0359 13.84 16.068 13.3034 16.1001 12.7667C16.1108 12.5521 16.1215 12.2945 16.2392 12.037C16.4105 11.6291 16.7851 11.3179 17.3203 11.1355C18.0374 10.8779 18.7866 10.8779 19.4395 10.8886C19.4395 10.8886 19.4502 10.8886 19.4609 10.8886C19.8034 10.8886 20.1459 10.8779 20.4883 10.8779C21.5908 10.8564 22.7253 10.835 23.8919 11.0603C24.2023 11.114 24.5555 11.2213 24.8124 11.5111C25.0478 11.7794 25.1014 12.1121 25.1442 12.3375L25.9255 16.7913C26.4499 15.8576 26.7924 14.6449 27.1028 13.5717C27.1777 13.2926 27.2634 13.0243 27.3383 12.7667L27.3811 12.6272C27.4881 12.2409 27.638 11.7257 28.0233 11.436C28.4621 11.114 28.9865 11.114 29.3505 11.114C29.6394 11.1247 29.9712 11.1033 30.3779 11.0818C32.6684 10.9637 34.7876 10.9316 35.601 11.8653C35.9863 12.3053 36.0077 12.9707 35.9863 13.5502C35.9328 14.9776 35.8365 19.9465 35.7402 25.6882C35.5903 34.5208 35.4084 44.5339 35.2799 45.5749C35.2478 45.8217 35.1943 46.1866 34.9267 46.4764C34.5842 46.8306 34.1133 46.852 33.8564 46.8628C33.5889 46.8628 33.2999 46.8628 32.9895 46.8628ZM30.3137 45.7573C30.7418 45.7573 31.2021 45.7681 31.6623 45.7788C32.4329 45.7895 33.2035 45.811 33.8029 45.7788C34.0491 45.7681 34.1347 45.7466 34.1561 45.7251C34.1882 45.6822 34.2096 45.4998 34.2203 45.4354C34.3488 44.4588 34.5307 34.0486 34.6806 25.6882C34.7769 19.9358 34.8732 14.9668 34.9267 13.5287C34.9481 12.9063 34.8732 12.6702 34.7983 12.5843C34.2631 11.9618 31.6837 12.1014 30.4422 12.1657C30.0033 12.1872 29.5966 12.1979 29.3612 12.2087C29.0829 12.2087 28.8153 12.2194 28.6762 12.316C28.5798 12.3911 28.4728 12.7775 28.4193 12.9385L28.3765 13.0994C28.3016 13.3463 28.2266 13.6146 28.1517 13.8829C27.7985 15.0956 27.4025 16.4801 26.7496 17.5533C26.6747 17.6713 26.3964 18.0899 25.9469 18.165C25.7221 18.2079 25.4974 18.1543 25.3047 18.0148C25.0264 17.8109 24.9729 17.4889 24.9515 17.3279L24.1167 12.5306C24.0953 12.4341 24.0739 12.2731 24.031 12.2301C24.0096 12.2087 23.9347 12.1657 23.7207 12.1228C22.6504 11.9189 21.6229 11.9404 20.5312 11.9618C20.178 11.9726 19.8355 11.9726 19.4609 11.9726C18.8615 11.9726 18.23 11.9726 17.6949 12.1657C17.4594 12.2516 17.2881 12.3697 17.2346 12.4877C17.2025 12.5736 17.1918 12.7131 17.1811 12.8526C17.149 13.3999 17.1169 13.9366 17.0741 14.4839C17.0099 15.321 16.9563 16.1581 16.9349 17.0059L16.1215 44.491C16.1001 45.371 16.1001 45.371 17.1276 45.4246C17.9517 45.4676 18.915 45.489 19.8355 45.5105C20.3599 45.5212 20.8737 45.532 21.3446 45.5534C21.5587 45.5642 21.8583 45.5749 21.9975 45.4676C22.1366 45.371 22.2329 45.1134 22.2758 44.7378C22.4256 43.2675 22.4791 40.4771 22.5433 37.5365C22.5861 35.7121 22.6183 33.8554 22.6825 32.2456C22.7253 31.2797 22.7681 30.2279 22.8216 29.1547C22.8965 27.7059 22.9607 26.2249 23.0036 24.9155C23.0143 24.615 23.2497 24.4004 23.5494 24.3897C23.8491 24.4004 24.0739 24.6472 24.0739 24.937C24.0846 25.2912 24.8124 26.9976 25.0478 27.2981C25.4546 27.8132 25.6579 27.6737 25.797 27.5771C26.1824 27.3195 27.2955 25.4521 27.3383 25.0121C27.349 24.7224 27.6166 24.5077 27.8841 24.4862C28.1731 24.497 28.3979 24.7224 28.4086 25.0014C28.4086 25.0121 28.4086 25.0229 28.4086 25.0336C28.3551 27.3732 28.3551 29.7557 28.3658 32.0524C28.3658 33.1471 28.3765 34.2418 28.3658 35.3472C28.3658 37.2038 28.3551 39.0498 28.3337 40.9064L28.323 41.7757C28.3016 42.8811 28.2909 43.9221 28.3765 45.0919C28.3872 45.2422 28.3979 45.4354 28.4621 45.532C28.6226 45.8003 29.2862 45.7681 29.5003 45.7573C29.7251 45.7573 30.014 45.7573 30.3137 45.7573Z" fill="black"/>
<path d="M45.7148 36.0776C45.6613 36.099 45.6078 36.1205 45.5543 36.1312C45.2546 36.2064 44.7409 36.1742 44.5482 35.9059C44.3877 35.6805 44.3984 35.3049 44.3984 35.0473C44.3984 34.7146 44.3984 34.3712 44.4091 34.0385C44.4198 33.5877 44.3877 21.3531 44.4198 20.9023C44.4519 20.5589 44.5589 20.194 44.9335 20.0974C45.2011 20.033 45.747 20.0438 45.9396 20.2691C46.1109 20.4623 46.1537 20.7521 46.1751 20.9989C46.2286 21.5355 46.2179 33.8453 46.1965 34.3819C46.1644 34.9292 46.3356 35.7878 45.7148 36.0776ZM52.629 32.0745C52.8002 27.6958 52.7467 23.1453 52.3079 18.7774C52.1046 16.7597 51.6015 14.3772 50.1994 12.7996C48.594 10.9858 44.4733 11.0395 42.2792 11.5654C39.2395 12.3059 38.0087 15.1606 37.7839 17.9403C37.5056 21.6106 37.5805 25.3347 37.5163 29.0266C37.4735 31.774 37.4414 34.5321 37.4414 37.2796C37.4414 39.4475 37.5484 42.4847 38.8542 44.3306C40.4383 46.5736 44.6445 46.7882 47.0955 46.1872C47.5772 46.0692 48.0267 45.9082 48.4441 45.7258C53.5066 43.4076 52.4578 36.4961 52.629 32.0745Z" fill="#F49AC1"/>
<path d="M44.5356 47.0252C42.2238 47.0252 39.6658 46.4027 38.4349 44.6534C37.097 42.7753 36.9258 39.8776 36.9258 37.2911C36.9258 34.533 36.9472 31.7856 37.0007 29.0274C37.0221 27.9864 37.0221 26.9454 37.0328 25.9043C37.0542 23.275 37.0649 20.5597 37.279 17.9089C37.5573 14.2385 39.3447 11.7379 42.181 11.0511C44.6427 10.4501 48.9025 10.493 50.6257 12.4462C51.8458 13.82 52.5736 15.8698 52.8626 18.7245C53.2693 22.7491 53.3763 27.2459 53.1837 32.0968C53.1516 32.8266 53.1623 33.6315 53.1623 34.4579C53.1837 38.7722 53.2265 44.1382 48.6991 46.2203C48.2496 46.4242 47.7679 46.5959 47.2542 46.7247C46.4622 46.9179 45.5203 47.0252 44.5356 47.0252ZM45.1992 11.7916C44.1931 11.7916 43.1978 11.9096 42.4164 12.1028C39.0771 12.9077 38.4456 16.4923 38.3386 18.0055C38.1352 20.6241 38.1138 23.3179 38.1031 25.9258C38.0924 26.9668 38.0924 28.0186 38.071 29.0596C38.0282 31.807 37.9961 34.5544 37.9961 37.3019C37.9961 39.7166 38.1459 42.3996 39.3126 44.0417C40.7682 46.0915 44.7497 46.231 46.9973 45.6837C47.4469 45.5764 47.8643 45.4261 48.2496 45.2544C52.1348 43.4621 52.1134 38.6863 52.0813 34.4793C52.0813 33.6315 52.0706 32.8051 52.1027 32.0646C52.2953 27.2566 52.1883 22.8135 51.7923 18.8426C51.5247 16.224 50.8825 14.378 49.8229 13.176C48.9346 12.1672 47.0294 11.7916 45.1992 11.7916ZM45.242 36.7009C44.8353 36.7009 44.3644 36.5828 44.1075 36.2072C43.8506 35.853 43.8506 35.3808 43.8506 35.0696C43.8506 34.694 43.8506 34.3613 43.8613 34.0178C43.8613 33.8569 43.8613 32.29 43.8613 30.2831C43.8613 25.1102 43.8506 21.1393 43.872 20.8388C43.947 19.9051 44.4821 19.6368 44.7925 19.5616C45.0494 19.4973 45.9056 19.4221 46.323 19.8943C46.6227 20.2378 46.6655 20.6993 46.6869 20.9246C46.7512 21.5793 46.7083 34.2861 46.7083 34.3827C46.7083 34.4793 46.7083 34.5759 46.7083 34.694C46.7191 35.2413 46.7405 36.1643 45.927 36.5399C45.8414 36.5721 45.7558 36.6043 45.6702 36.6257C45.5524 36.6901 45.4026 36.7009 45.242 36.7009ZM45.2634 20.6027C45.1885 20.6027 45.1029 20.6134 45.0494 20.6241C45.0066 20.6349 44.9638 20.7744 44.9424 20.9461C44.9209 21.2788 44.9316 26.9239 44.9316 30.3045C44.9316 32.3222 44.9316 33.8998 44.9316 34.0608C44.9316 34.3935 44.9209 34.7262 44.9209 35.0589C44.9209 35.2198 44.9209 35.5311 44.9745 35.6062C45.0173 35.6384 45.2527 35.6706 45.424 35.6277L45.4882 35.6062C45.6487 35.5311 45.6595 35.1876 45.6488 34.7584C45.6488 34.6296 45.638 34.5008 45.6488 34.3827C45.6702 33.7817 45.6809 21.6437 45.6273 21.0749C45.6166 20.989 45.5952 20.7315 45.5203 20.6456C45.4989 20.6134 45.3919 20.6027 45.2634 20.6027Z" fill="black"/>
<path d="M80.6016 36.0776C80.548 36.099 80.4945 36.1205 80.441 36.1312C80.1413 36.2064 79.6276 36.1742 79.4349 35.9059C79.2744 35.6805 79.2851 35.3049 79.2851 35.0473C79.2851 34.7146 79.2851 34.3712 79.2958 34.0385C79.3065 33.5877 79.2744 21.3531 79.3065 20.9023C79.3386 20.5589 79.4456 20.194 79.8202 20.0974C80.0878 20.033 80.6337 20.0438 80.8263 20.2691C80.9976 20.4623 81.0404 20.7521 81.0618 20.9989C81.1153 21.5355 81.1046 33.8453 81.0832 34.3819C81.0511 34.9292 81.2223 35.7878 80.6016 36.0776ZM87.5157 32.0745C87.687 27.6958 87.6334 23.1453 87.1946 18.7774C86.9913 16.7597 86.4882 14.3772 85.0861 12.7996C83.4807 10.9858 79.36 11.0395 77.1659 11.5654C74.1262 12.3059 72.8954 15.1606 72.6706 17.9403C72.3923 21.6106 72.4673 25.3347 72.403 29.0266C72.3602 31.774 72.3281 34.5321 72.3281 37.2796C72.3281 39.4475 72.4352 42.4847 73.7409 44.3306C75.325 46.5736 79.5313 46.7882 81.9823 46.1872C82.4639 46.0692 82.9134 45.9082 83.3308 45.7258C88.3934 43.4076 87.3445 36.4961 87.5157 32.0745Z" fill="#F49AC1"/>
<path d="M79.4302 47.0242C77.1183 47.0242 74.5603 46.4017 73.3294 44.6524C71.9916 42.7743 71.8203 39.8766 71.8203 37.2902C71.8203 34.532 71.8417 31.7846 71.8952 29.0264C71.9166 27.9854 71.9166 26.9444 71.9273 25.9034C71.9487 23.274 71.9595 20.5588 72.1735 17.8972C72.4518 14.2268 74.2392 11.7262 77.0755 11.0393C79.5372 10.4383 83.797 10.4813 85.5202 12.4345C86.7403 13.8082 87.4681 15.8581 87.7571 18.7128C88.1638 22.7374 88.2709 27.2341 88.0782 32.0851C88.0461 32.8149 88.0568 33.6198 88.0568 34.4461C88.0782 38.7605 88.121 44.1265 83.5936 46.2086C83.1441 46.4125 82.6625 46.5842 82.1487 46.713C81.3567 46.9169 80.4148 47.0242 79.4302 47.0242ZM80.0938 11.7906C79.0877 11.7906 78.0923 11.9086 77.311 12.1018C73.9716 12.9067 73.3401 16.4913 73.2331 18.0045C73.0298 20.6231 73.0083 23.3276 72.9976 25.9356C72.9869 26.9766 72.9869 28.0283 72.9655 29.0693C72.9227 31.8168 72.8906 34.5642 72.8906 37.3116C72.8906 39.7264 73.0405 42.4094 74.2071 44.0514C75.6627 46.1012 79.6549 46.2408 81.8919 45.6934C82.3414 45.5861 82.7588 45.4358 83.1441 45.2641C87.0293 43.4719 87.0079 38.6961 86.9758 34.4891C86.9758 33.6412 86.9651 32.8149 86.9972 32.0743C87.1899 27.2663 87.0828 22.8232 86.6868 18.8523C86.4192 16.2337 85.7771 14.3878 84.7175 13.1858C83.8291 12.1662 81.924 11.7906 80.0938 11.7906ZM80.1366 36.6999C79.7298 36.6999 79.2589 36.5818 79.002 36.2062C78.7452 35.852 78.7452 35.3798 78.7452 35.0686C78.7452 34.693 78.7452 34.3603 78.7559 34.0169C78.7559 33.8666 78.7559 32.3963 78.7559 30.4967C78.7559 25.3882 78.7452 21.1383 78.7666 20.8485C78.8415 19.9041 79.3766 19.6465 79.687 19.5714C79.9546 19.507 80.8001 19.4319 81.2283 19.9041C81.528 20.2475 81.5708 20.709 81.5922 20.9344C81.6564 21.589 81.6136 34.2959 81.6136 34.3925C81.6136 34.4891 81.6136 34.5857 81.6136 34.7037C81.6243 35.251 81.6457 36.174 80.8323 36.5496C80.7466 36.5818 80.661 36.614 80.5754 36.6355C80.4469 36.6892 80.2971 36.6999 80.1366 36.6999ZM80.158 20.6017C80.083 20.6017 79.9974 20.6124 79.9332 20.6231C79.8904 20.6339 79.8476 20.7734 79.8262 20.9451C79.8048 21.2778 79.8155 27.0624 79.8155 30.5074C79.8155 32.4178 79.8155 33.8988 79.8155 34.049C79.8048 34.3817 79.8048 34.7144 79.8048 35.0471C79.8048 35.2081 79.8048 35.5194 79.8583 35.5945C79.9011 35.6267 80.1259 35.6589 80.3078 35.6159L80.372 35.5945C80.5326 35.5194 80.5433 35.1759 80.5326 34.7466C80.5326 34.6179 80.5219 34.4891 80.5326 34.371C80.554 33.77 80.5647 21.632 80.5112 21.0632C80.5005 20.9773 80.4791 20.7197 80.4041 20.6339C80.3934 20.6124 80.2864 20.6017 80.158 20.6017Z" fill="black"/>
<path d="M63.2679 36.1836C62.9789 36.6558 62.508 36.9885 61.7909 37.0207C61.6624 37.0314 61.5126 37.0207 61.4163 36.9349C61.2771 36.8168 61.2664 36.6129 61.2664 36.4304C61.3092 31.0966 61.4698 25.7734 61.7588 20.4503C61.7695 20.3108 61.7695 20.182 61.8337 20.0532C61.9835 19.7312 62.4116 19.6346 62.7434 19.742C63.3749 19.9566 63.6318 20.461 63.696 21.0835C63.7495 21.6201 63.7388 33.9299 63.7174 34.4665C63.6746 35.0782 63.5676 35.7114 63.2679 36.1836ZM70.3105 30.5063C70.4817 26.1276 70.5995 23.2299 70.1606 18.8727C69.9894 17.1555 69.6469 15.2989 68.7157 13.8071C67.7953 12.3261 65.7403 12.1114 64.1134 11.929C61.7588 11.6714 59.3827 11.5963 57.0066 11.7036C56.5357 11.7251 56.0112 11.7895 55.7223 12.1543C55.4975 12.4334 55.4761 12.809 55.4654 13.1632C55.2299 18.497 55.1443 23.788 55.048 29.1219C54.9623 34.3377 54.8339 39.5642 54.8125 44.7479C54.8125 45.1664 54.8553 45.6601 55.2192 45.864C55.3798 45.9499 55.5617 45.9606 55.7437 45.9713C59.6289 46.143 67.9665 46.5723 69.5399 41.9468C70.5995 38.8237 70.182 33.7581 70.3105 30.5063Z" fill="#F49AC1"/>
<path d="M59.0392 46.6166C57.8297 46.6166 56.7166 46.563 55.8176 46.5308H55.6998C55.4965 46.5201 55.2182 46.5093 54.9399 46.3591C54.2549 45.9727 54.2656 45.1034 54.2656 44.7814C54.2763 40.9393 54.3513 37.0114 54.4262 33.2122L54.5011 29.1447C54.5867 23.886 54.6831 18.4877 54.9185 13.1753C54.9292 12.8211 54.9613 12.2845 55.2931 11.8553C55.7641 11.265 56.5454 11.2221 56.9735 11.2006C59.3603 11.0825 61.7792 11.1577 64.1659 11.426C65.857 11.6084 68.1047 11.866 69.1643 13.5509C70.2024 15.2144 70.5235 17.2535 70.6841 18.8419C71.1336 23.2635 71.0159 26.1612 70.8339 30.5614C70.8018 31.4199 70.8018 32.4073 70.8125 33.459C70.8232 36.4211 70.8446 39.7803 70.0312 42.1628C68.7147 45.9942 63.299 46.6166 59.0392 46.6166ZM59.1783 12.1987C58.4612 12.1987 57.7441 12.2201 57.0377 12.2523C56.6631 12.2738 56.2885 12.3167 56.1387 12.4992C56.0209 12.6387 56.0102 12.907 55.9888 13.1968C55.7534 18.4984 55.6677 23.886 55.5714 29.0911L55.4965 33.2122C55.4216 37.0114 55.3466 40.9286 55.3359 44.76C55.3359 45.2859 55.4323 45.3825 55.4644 45.4039C55.5179 45.4361 55.6463 45.4361 55.7534 45.4468H55.8711C59.6707 45.6186 67.5909 45.9727 69.0251 41.7872C69.785 39.5764 69.7636 36.3138 69.7529 33.4376C69.7529 32.3751 69.7422 31.3663 69.7743 30.497C69.9456 26.1505 70.0633 23.285 69.6245 18.9385C69.4746 17.4682 69.1857 15.59 68.2652 14.109C67.4839 12.8641 65.6108 12.6494 64.091 12.4884C62.4535 12.2953 60.8052 12.1987 59.1783 12.1987ZM61.7149 37.5695C61.5544 37.5695 61.2868 37.5373 61.0621 37.3548C60.7196 37.065 60.7303 36.6465 60.7303 36.4426C60.7731 31.1516 60.9336 25.7641 61.2226 20.4302C61.2333 20.2907 61.244 20.0653 61.3403 19.84C61.6186 19.239 62.3571 19.0672 62.903 19.2497C63.4381 19.4321 64.1017 19.8829 64.2195 21.042C64.2837 21.6966 64.2409 34.4035 64.2409 34.5001C64.2087 35.305 64.0375 35.9704 63.7271 36.4748C63.3097 37.1402 62.6568 37.5265 61.8327 37.5695C61.7899 37.5695 61.7578 37.5695 61.7149 37.5695ZM62.4535 20.2478C62.3785 20.2478 62.325 20.2692 62.3036 20.2907C62.2929 20.3229 62.2822 20.4302 62.2822 20.4839C62.0039 25.7963 61.8327 31.1731 61.7899 36.4426C61.7899 36.4533 61.7899 36.4748 61.7899 36.4855C62.2822 36.4426 62.5819 36.2494 62.7959 35.906C63.01 35.5625 63.1277 35.0796 63.1491 34.4571C63.1706 33.8561 63.1813 21.7181 63.1384 21.1493C63.0742 20.5268 62.8067 20.3551 62.5498 20.2692C62.5284 20.2478 62.4856 20.2478 62.4535 20.2478Z" fill="black"/>
</g>
<defs>
<clipPath id="clip0">
<rect width="146" height="73" fill="white" transform="translate(0 0.5)"/>
</clipPath>
</defs>
</svg>
