<svg width="374" height="257" viewBox="0 0 374 257" fill="none" xmlns="http://www.w3.org/2000/svg">
<g clip-path="url(#clip0)">
<path d="M23.9849 162.356C18.2286 166.678 7.5155 170.679 3.67797 176.602C1.4394 179.804 0.799814 183.645 1.5993 187.327C2.71858 192.129 5.91653 195.01 8.63479 196.771V200.293C8.63479 204.935 10.2338 209.257 13.1119 212.138C13.7515 212.778 14.551 213.418 15.3505 214.059C16.7896 218.061 18.8682 221.422 21.4266 224.303C30.8605 235.028 44.9315 236.309 54.8451 236.309C55.1649 236.309 55.8045 236.309 55.8045 236.309C65.7182 236.309 75.6318 235.348 86.185 233.427C86.185 233.587 86.185 233.908 86.185 234.068C86.185 234.388 86.185 234.708 86.185 235.188C86.185 235.348 86.185 235.348 86.185 235.508C85.7053 239.19 84.9058 246.233 89.383 251.355C91.7814 254.077 95.1393 255.517 98.8169 255.517C100.416 255.517 101.855 255.197 103.294 254.717C108.251 252.956 110.33 248.954 111.129 247.674L118.324 234.868C118.644 234.388 118.964 233.748 119.284 233.267C119.763 233.107 120.723 232.787 121.522 232.467C131.276 229.426 134.634 222.062 143.908 229.105C151.743 235.028 159.738 237.909 169.811 237.909C175.088 237.909 180.524 237.109 185.002 235.668C193.316 232.947 198.593 224.944 205.149 219.181C213.144 212.138 223.697 209.737 234.25 210.537C238.887 210.857 243.204 212.458 248.001 212.458C255.356 212.458 262.232 211.658 265.27 220.462C266.549 224.143 264.631 226.704 264.79 231.026C264.95 234.868 266.549 237.429 267.828 239.03C270.067 241.591 273.425 243.032 276.943 243.032C279.661 243.032 282.379 242.071 284.778 240.471C287.336 243.352 290.694 244.953 294.371 244.953C296.61 244.953 298.689 244.312 300.607 243.192C304.605 240.791 306.843 236.309 306.684 231.346C306.524 229.746 306.524 228.145 306.204 226.704C310.361 224.463 311.8 221.102 312.44 218.701C313.079 215.82 312.76 212.778 311.321 210.217C312.44 210.217 313.399 210.057 314.359 210.057C315.318 210.057 316.277 209.897 317.237 209.897C317.876 209.897 319.635 209.737 321.554 209.097C322.513 209.417 323.473 209.737 324.432 209.897C326.511 210.217 328.589 210.377 331.308 210.377C332.747 210.377 334.186 210.377 335.625 210.217C336.744 210.217 337.864 210.057 338.823 210.057H339.303C345.059 210.057 350.016 206.535 352.574 200.773C353.693 198.212 354.333 195.651 354.653 193.89C354.653 193.57 354.813 193.089 354.813 192.929C355.772 189.888 356.731 186.847 357.691 183.645C358.171 182.365 358.49 180.924 358.97 179.643C360.729 173.881 367.924 151.311 369.683 145.868C369.843 145.388 370.163 144.588 370.483 143.788C371.922 140.426 374.48 134.824 372.401 128.261C371.602 125.539 370.003 122.978 367.764 120.737C367.445 120.417 367.125 119.937 366.645 119.457C363.607 116.095 358.011 112.574 356.731 108.252C355.452 103.93 358.81 99.1276 357.851 94.6456C357.371 92.2445 356.092 90.0035 354.493 88.2428C352.254 85.8417 346.818 85.3615 345.219 83.2805C341.541 78.1583 348.896 69.3544 350.176 64.7123C352.414 56.8688 350.495 48.7052 345.219 41.662C341.381 36.5397 335.625 32.3779 329.229 29.6567C322.833 26.9355 315.478 25.6549 306.843 25.6549C305.564 25.6549 304.285 25.6549 303.006 25.6549C289.095 26.1351 275.344 29.3365 262.712 35.2592C258.874 37.0199 253.118 41.3419 249.76 36.6998C248.001 34.2987 249.76 29.8167 249.28 27.0955C248.481 21.9732 243.684 18.4517 239.207 17.011C237.768 16.5308 236.489 16.2107 235.049 15.8905C234.89 15.4103 234.89 15.0902 234.89 14.77C234.57 13.4895 234.41 12.2089 234.09 10.9283C232.651 5.80605 229.453 3.2449 226.895 2.12441C225.296 1.32405 223.537 1.00391 221.618 1.00391C216.661 1.00391 212.184 3.88519 209.626 8.68733C208.986 9.80783 208.507 11.0884 207.867 12.369C207.547 13.0093 207.227 13.8096 206.908 14.4499C205.788 14.61 204.509 14.77 203.55 14.77C201.951 14.9301 200.352 15.0902 198.913 15.2503C197.314 15.5704 195.235 16.0506 192.996 17.1711C190.918 18.2916 189.319 19.8923 188.2 21.9732C182.923 30.6171 191.078 40.5415 176.207 38.6207C175.728 38.6207 175.248 38.4606 174.608 38.4606C173.809 38.4606 173.009 38.6207 172.21 38.6207L164.695 38.1404C164.375 38.1404 163.895 38.1404 163.256 38.1404C158.619 38.1404 155.58 40.0613 153.822 41.8221C151.743 43.903 150.784 46.144 150.464 47.1044C149.984 48.385 149.504 49.5055 149.185 50.626C149.025 50.626 148.705 50.626 148.545 50.626C147.266 50.626 144.068 50.9462 140.87 52.7069C139.591 53.5073 138.631 54.3076 137.672 55.2681C133.035 52.7069 127.758 51.2663 121.842 51.2663C115.766 51.2663 109.53 52.7069 103.614 55.2681C100.256 49.5055 95.4591 45.3437 91.1418 42.1422C88.7434 39.9012 85.7053 38.1404 82.3475 36.6998C77.0709 34.4588 70.8349 33.8185 64.9187 33.4984C60.9212 33.3383 57.7233 33.1782 54.3654 33.1782C52.2868 33.1782 50.0482 33.1782 47.6497 33.3383C47.4899 33.3383 47.4899 33.3383 47.33 33.3383C46.8503 33.3383 46.3706 33.3383 45.8909 33.3383C45.0914 33.3383 44.2919 33.3383 43.3325 33.3383C41.2539 33.3383 37.896 33.4984 34.3783 35.0991C26.0636 38.7807 23.6651 46.6242 22.386 50.7861C22.2261 51.1062 22.2261 51.4264 22.0662 51.9066C21.1068 54.7879 20.1474 57.5091 19.0281 60.5504C18.2286 62.4713 17.589 64.5522 16.7896 66.6331C11.9926 80.0791 7.35561 93.6852 2.71858 107.291C0.320122 114.494 2.87848 119.457 4.47745 121.858C5.27694 122.978 6.23633 123.939 7.19571 124.739C10.8733 127.62 12.6322 131.782 17.1093 134.183C23.3453 137.545 30.061 136.584 36.7767 136.904C38.0559 136.904 39.495 137.065 40.4544 138.185C41.4137 139.306 41.094 140.906 40.6143 142.187C39.1752 145.708 35.8173 148.109 33.259 150.671C29.9011 154.032 27.3428 159.795 23.9849 162.356Z" fill="#00A651"/>
<path d="M23.9849 162.356C18.2286 166.678 7.5155 170.679 3.67797 176.602C1.4394 179.804 0.799814 183.645 1.5993 187.327C2.71858 192.129 5.91653 195.01 8.63479 196.771V200.293C8.63479 204.935 10.2338 209.257 13.1119 212.138C13.7515 212.778 14.551 213.418 15.3505 214.059C16.7896 218.061 18.8682 221.422 21.4266 224.303C30.8605 235.028 44.9315 236.309 54.8451 236.309C55.1649 236.309 55.8045 236.309 55.8045 236.309C65.7182 236.309 75.6318 235.348 86.185 233.427C86.185 233.587 86.185 233.908 86.185 234.068C86.185 234.388 86.185 234.708 86.185 235.188C86.185 235.348 86.185 235.348 86.185 235.508C85.7053 239.19 84.9058 246.233 89.383 251.355C91.7814 254.077 95.1393 255.517 98.8169 255.517C100.416 255.517 101.855 255.197 103.294 254.717C108.251 252.956 110.33 248.954 111.129 247.674L118.324 234.868C118.644 234.388 118.964 233.748 119.284 233.267C119.763 233.107 120.723 232.787 121.522 232.467C131.276 229.426 134.634 222.062 143.908 229.105C151.743 235.028 159.738 237.909 169.811 237.909C175.088 237.909 180.524 237.109 185.002 235.668C193.316 232.947 198.593 224.944 205.149 219.181C213.144 212.138 223.697 209.737 234.25 210.537C238.887 210.857 243.204 212.458 248.001 212.458C255.356 212.458 262.232 211.658 265.27 220.462C266.549 224.143 264.631 226.704 264.79 231.026C264.95 234.868 266.549 237.429 267.828 239.03C270.067 241.591 273.425 243.032 276.943 243.032C279.661 243.032 282.379 242.071 284.778 240.471C287.336 243.352 290.694 244.953 294.371 244.953C296.61 244.953 298.689 244.312 300.607 243.192C304.605 240.791 306.843 236.309 306.684 231.346C306.524 229.746 306.524 228.145 306.204 226.704C310.361 224.463 311.8 221.102 312.44 218.701C313.079 215.82 312.76 212.778 311.321 210.217C312.44 210.217 313.399 210.057 314.359 210.057C315.318 210.057 316.277 209.897 317.237 209.897C317.876 209.897 319.635 209.737 321.554 209.097C322.513 209.417 323.473 209.737 324.432 209.897C326.511 210.217 328.589 210.377 331.308 210.377C332.747 210.377 334.186 210.377 335.625 210.217C336.744 210.217 337.864 210.057 338.823 210.057H339.303C345.059 210.057 350.016 206.535 352.574 200.773C353.693 198.212 354.333 195.651 354.653 193.89C354.653 193.57 354.813 193.089 354.813 192.929C355.772 189.888 356.731 186.847 357.691 183.645C358.17 182.365 358.49 180.924 358.97 179.643C360.729 173.881 367.924 151.311 369.683 145.868C369.843 145.388 370.163 144.588 370.483 143.788C371.922 140.426 374.48 134.824 372.401 128.261C371.602 125.539 370.003 122.978 367.764 120.737C367.445 120.417 367.125 119.937 366.645 119.457C363.607 116.095 358.011 112.574 356.731 108.252C355.452 103.93 358.81 99.1276 357.851 94.6456C357.371 92.2445 356.092 90.0035 354.493 88.2428C352.254 85.8417 346.818 85.3615 345.219 83.2806C341.541 78.1583 348.896 69.3544 350.176 64.7123C352.414 56.8688 350.495 48.7052 345.219 41.662C341.381 36.5397 335.625 32.3779 329.229 29.6567C322.833 26.9355 315.478 25.6549 306.843 25.6549C305.564 25.6549 304.285 25.6549 303.006 25.6549C289.095 26.1351 275.344 29.3365 262.712 35.2592C258.874 37.0199 253.118 41.3419 249.76 36.6998C248.001 34.2987 249.76 29.8167 249.28 27.0955C248.481 21.9732 243.684 18.4517 239.207 17.011C237.768 16.5308 236.489 16.2107 235.05 15.8905C234.89 15.4103 234.89 15.0902 234.89 14.77C234.57 13.4895 234.41 12.2089 234.09 10.9283C232.651 5.80605 229.453 3.2449 226.895 2.12441C225.296 1.32405 223.537 1.00391 221.618 1.00391C216.661 1.00391 212.184 3.88519 209.626 8.68733C208.986 9.80783 208.507 11.0884 207.867 12.369C207.547 13.0093 207.227 13.8096 206.908 14.4499C205.788 14.61 204.509 14.77 203.55 14.77C201.951 14.9301 200.352 15.0902 198.913 15.2503C197.314 15.5704 195.235 16.0506 192.996 17.1711C190.918 18.2916 189.319 19.8923 188.2 21.9732C182.923 30.6171 191.078 40.5415 176.207 38.6207C175.728 38.6207 175.248 38.4606 174.608 38.4606C173.809 38.4606 173.009 38.6207 172.21 38.6207L164.695 38.1404C164.375 38.1404 163.895 38.1404 163.256 38.1404C158.619 38.1404 155.58 40.0613 153.822 41.8221C151.743 43.903 150.784 46.144 150.464 47.1044C149.984 48.385 149.504 49.5055 149.185 50.626C149.025 50.626 148.705 50.626 148.545 50.626C147.266 50.626 144.068 50.9462 140.87 52.7069C139.591 53.5073 138.631 54.3076 137.672 55.2681C133.035 52.7069 127.758 51.2663 121.842 51.2663C115.766 51.2663 109.53 52.7069 103.614 55.2681C100.256 49.5055 95.4591 45.3437 91.1418 42.1422C88.7434 39.9012 85.7053 38.1404 82.3475 36.6998C77.0709 34.4588 70.8349 33.8185 64.9187 33.4984C60.9212 33.3383 57.7233 33.1782 54.3654 33.1782C52.2868 33.1782 50.0482 33.1782 47.6497 33.3383C47.4899 33.3383 47.4899 33.3383 47.33 33.3383C46.8503 33.3383 46.3706 33.3383 45.8909 33.3383C45.0914 33.3383 44.2919 33.3383 43.3325 33.3383C41.2539 33.3383 37.896 33.4984 34.3783 35.0991C26.0636 38.7807 23.6651 46.6242 22.386 50.7861C22.2261 51.1062 22.2261 51.4264 22.0662 51.9066C21.1068 54.7879 20.1474 57.5091 19.0281 60.5504C18.2286 62.4713 17.589 64.5522 16.7896 66.6331C11.9926 80.0791 7.35561 93.6852 2.71858 107.291C0.320122 114.494 2.87848 119.457 4.47745 121.858C5.27694 122.978 6.23633 123.939 7.19571 124.739C10.8733 127.62 12.6322 131.782 17.1093 134.183C23.3453 137.545 30.061 136.584 36.7767 136.904C38.0559 136.904 39.495 137.065 40.4544 138.185C41.4138 139.306 41.094 140.906 40.6143 142.187C39.1752 145.708 35.8173 148.109 33.259 150.671C29.9011 154.032 27.3428 159.795 23.9849 162.356Z" stroke="black" stroke-width="1.5" stroke-miterlimit="10" stroke-linecap="round" stroke-linejoin="round"/>
<path d="M95.2977 66.152C92.8992 59.1089 87.4627 54.3068 81.3866 50.305C80.1074 49.5046 78.8282 48.7043 77.2293 48.8644C76.11 49.0244 75.1506 49.5046 74.3511 50.1449C67.7953 54.1467 62.9984 53.1863 55.4832 53.3463C52.4452 53.5064 49.2472 52.7061 46.3691 53.9866C42.5315 55.7474 41.5721 60.2294 40.293 63.751C34.6966 81.3588 25.4225 98.6465 14.3896 113.533C14.0698 113.853 13.75 114.333 13.75 114.814C13.75 115.294 14.0698 115.614 14.2297 115.934C17.1078 119.456 19.1865 123.778 23.8235 124.898C27.821 125.859 31.8184 125.058 35.8158 124.898C44.4503 124.738 53.2447 125.218 61.8791 123.618C68.5948 122.337 74.8308 118.976 80.1074 114.494C85.7038 109.531 88.582 104.569 91.3002 97.6861C94.9779 89.0422 98.6555 75.7563 95.2977 66.152Z" fill="black"/>
<path d="M95.2977 66.152C92.8992 59.1089 87.4627 54.3068 81.3866 50.305C80.1074 49.5046 78.8282 48.7043 77.2293 48.8644C76.11 49.0244 75.1506 49.5046 74.3511 50.1449C67.7953 54.1467 62.9984 53.1863 55.4832 53.3463C52.4452 53.5064 49.2472 52.7061 46.3691 53.9866C42.5315 55.7474 41.5721 60.2294 40.293 63.751C34.6966 81.3588 25.4225 98.6465 14.3896 113.533C14.0698 113.853 13.75 114.333 13.75 114.814C13.75 115.294 14.0698 115.614 14.2297 115.934C17.1078 119.456 19.1865 123.778 23.8235 124.898C27.821 125.859 31.8184 125.058 35.8158 124.898C44.4503 124.738 53.2447 125.218 61.8791 123.618C68.5948 122.337 74.8308 118.976 80.1074 114.494C85.7038 109.531 88.582 104.569 91.3002 97.6861C94.9779 89.0422 98.6555 75.7563 95.2977 66.152Z" stroke="black" stroke-width="1.39408" stroke-miterlimit="10" stroke-linecap="round" stroke-linejoin="round"/>
<path d="M125.841 82.7989C126.64 82.6388 127.28 82.6388 128.079 82.7989C129.998 83.2791 131.757 85.5201 131.437 87.601C131.437 87.7611 131.277 87.9212 131.277 88.0812C130.957 88.0812 130.638 88.0812 130.478 88.0812C127.44 88.2413 124.562 88.2413 121.523 88.0812C121.044 88.0812 120.404 87.9212 120.404 87.4409C120.564 85.36 123.922 83.2791 125.841 82.7989ZM97.219 92.4032C96.4196 94.1639 95.6201 95.9247 95.1404 97.8456C94.181 100.887 93.5414 104.088 93.3815 107.29C92.9018 112.412 95.4602 119.615 100.097 122.497C104.414 125.058 109.371 126.178 114.328 126.338C121.523 126.498 128.719 124.577 134.795 120.736C147.107 112.892 153.023 94.4841 146.148 81.1982C137.833 65.191 114.648 71.754 104.414 81.9985C101.536 84.8798 99.1378 88.4014 97.219 92.4032Z" fill="black"/>
<path d="M125.841 82.7989C126.64 82.6388 127.28 82.6388 128.079 82.7989C129.998 83.2791 131.757 85.5201 131.437 87.601C131.437 87.7611 131.277 87.9212 131.277 88.0812C130.957 88.0812 130.638 88.0812 130.478 88.0812C127.44 88.2413 124.562 88.2413 121.523 88.0812C121.044 88.0812 120.404 87.9212 120.404 87.4409C120.564 85.36 123.922 83.2791 125.841 82.7989ZM97.219 92.4032C96.4196 94.1639 95.6201 95.9247 95.1404 97.8456C94.181 100.887 93.5414 104.088 93.3815 107.29C92.9018 112.412 95.4602 119.615 100.097 122.497C104.414 125.058 109.371 126.178 114.328 126.338C121.523 126.498 128.719 124.577 134.795 120.736C147.107 112.892 153.023 94.4841 146.148 81.1982C137.833 65.191 114.648 71.754 104.414 81.9985C101.536 84.8798 99.1378 88.4014 97.219 92.4032Z" stroke="black" stroke-width="1.39408" stroke-miterlimit="10" stroke-linecap="round" stroke-linejoin="round"/>
<path d="M189.64 72.0744C189.64 72.0744 189.481 72.0744 189.64 72.0744C189.161 71.7542 188.681 71.5942 188.201 71.5942C186.602 71.4341 184.844 71.274 183.085 71.4341C181.166 71.5942 180.846 70.9539 181.326 69.1931C181.805 67.9125 182.285 66.632 182.605 65.1913C183.404 62.7903 184.524 60.7093 183.404 58.3083C182.125 55.427 177.488 52.5457 175.09 50.7849C174.77 50.6248 174.61 50.4648 174.29 50.3047C173.651 50.3047 173.171 50.6248 172.851 51.105C171.092 52.7058 169.333 54.3065 168.214 56.3874C167.095 58.6284 167.894 60.5493 167.415 62.9503C167.095 65.0312 165.976 67.2722 165.016 69.1931C164.217 70.6337 163.257 70.3136 161.658 70.3136C156.222 70.3136 147.268 69.3532 143.27 73.8352C140.552 76.8765 140.072 81.8387 142.471 85.2002C142.791 85.6805 143.27 86.1607 143.75 86.3207C144.23 86.6409 144.869 86.6409 145.509 86.6409C147.907 86.6409 150.466 86.961 152.864 86.8009C153.504 86.8009 157.181 85.8405 157.501 86.0006C160.219 87.2812 157.981 90.6427 157.341 92.7236C156.382 95.925 155.582 99.1264 154.623 102.488C152.864 108.731 151.265 114.974 149.666 121.376C149.506 122.337 149.186 123.297 149.826 124.098C150.466 124.898 151.585 125.058 152.544 125.058C156.382 125.058 161.179 125.218 165.176 125.218C165.816 125.218 166.455 125.218 166.935 124.898C167.415 124.578 167.735 123.777 167.894 123.137C169.813 116.574 170.613 110.171 172.531 103.608C173.491 100.407 174.29 97.2056 175.25 94.0042C175.889 91.6031 175.889 87.6013 178.927 87.6013C180.366 87.6013 181.965 87.6013 183.404 87.6013C184.044 87.6013 184.684 87.6013 185.163 87.2812C185.483 86.961 185.643 86.6409 185.803 86.3207C187.402 82.479 188.841 79.1175 189.8 75.1157C190.12 73.8352 190.28 72.7147 189.64 72.0744Z" fill="black"/>
<path d="M189.64 72.0744C189.64 72.0744 189.481 72.0744 189.64 72.0744C189.161 71.7542 188.681 71.5942 188.201 71.5942C186.602 71.4341 184.844 71.274 183.085 71.4341C181.166 71.5942 180.846 70.9539 181.326 69.1931C181.805 67.9125 182.285 66.632 182.605 65.1913C183.404 62.7903 184.524 60.7093 183.404 58.3083C182.125 55.427 177.488 52.5457 175.09 50.7849C174.77 50.6248 174.61 50.4648 174.29 50.3047C173.651 50.3047 173.171 50.6248 172.851 51.105C171.092 52.7058 169.333 54.3065 168.214 56.3874C167.095 58.6284 167.894 60.5493 167.415 62.9503C167.095 65.0312 165.976 67.2722 165.016 69.1931C164.217 70.6337 163.257 70.3136 161.658 70.3136C156.222 70.3136 147.268 69.3532 143.27 73.8352C140.552 76.8765 140.072 81.8387 142.471 85.2002C142.791 85.6804 143.27 86.1607 143.75 86.3207C144.23 86.6409 144.869 86.6409 145.509 86.6409C147.907 86.6409 150.466 86.961 152.864 86.8009C153.504 86.8009 157.181 85.8405 157.501 86.0006C160.219 87.2812 157.981 90.6427 157.341 92.7236C156.382 95.925 155.582 99.1264 154.623 102.488C152.864 108.731 151.265 114.974 149.666 121.376C149.506 122.337 149.186 123.297 149.826 124.098C150.466 124.898 151.585 125.058 152.544 125.058C156.382 125.058 161.179 125.218 165.176 125.218C165.816 125.218 166.455 125.218 166.935 124.898C167.415 124.578 167.735 123.777 167.894 123.137C169.813 116.574 170.613 110.171 172.531 103.608C173.491 100.407 174.29 97.2056 175.25 94.0042C175.889 91.6031 175.889 87.6013 178.927 87.6013C180.366 87.6013 181.965 87.6013 183.404 87.6013C184.044 87.6013 184.684 87.6013 185.163 87.2812C185.483 86.961 185.643 86.6409 185.803 86.3207C187.402 82.479 188.841 79.1175 189.8 75.1157C190.12 73.8352 190.28 72.7147 189.64 72.0744Z" stroke="black" stroke-width="1.39408" stroke-miterlimit="10" stroke-linecap="round" stroke-linejoin="round"/>
<path d="M283.338 150.669C282.218 148.588 279.34 146.988 277.741 145.547C274.703 142.986 278.061 139.945 278.221 137.063C278.381 133.222 274.543 130.02 271.665 127.619C270.226 129.38 268.627 131.301 266.708 132.421C265.429 133.222 263.191 133.382 262.551 134.982C261.272 138.184 260.792 143.786 259.353 146.828C258.554 148.268 257.594 148.909 255.995 148.909C254.396 148.909 253.597 148.909 251.998 149.069C248.48 149.229 238.247 151.79 237.767 156.272C237.607 157.232 238.087 158.033 238.566 158.833C239.686 160.594 241.604 161.554 243.203 162.835C244.802 164.115 246.401 165.876 246.241 167.957C246.241 168.757 245.922 169.398 245.602 170.198C244.003 174.2 242.404 178.362 240.325 182.203C239.206 184.124 233.13 189.887 233.45 191.488C233.45 191.968 233.769 192.448 234.089 192.768C235.688 195.009 237.287 197.25 239.366 199.011C244.323 202.853 251.678 200.452 257.594 200.452C258.234 200.452 258.873 200.452 259.353 200.131C259.833 199.811 260.153 199.011 260.312 198.371C262.231 191.808 263.99 185.405 265.909 178.842C266.868 175.641 268.787 172.439 269.746 169.238C270.386 166.837 270.386 165.876 273.424 165.876C274.863 165.876 276.462 165.876 277.901 165.876C278.541 165.876 279.18 165.876 279.66 165.556C279.98 165.236 280.14 164.916 280.3 164.596C281.899 160.754 282.698 157.392 283.817 153.391C283.977 152.27 283.817 151.47 283.338 150.669Z" fill="black"/>
<path d="M283.338 150.669C282.218 148.588 279.34 146.988 277.741 145.547C274.703 142.986 278.061 139.945 278.221 137.063C278.381 133.222 274.543 130.02 271.665 127.619C270.226 129.38 268.627 131.301 266.708 132.421C265.429 133.222 263.191 133.382 262.551 134.982C261.272 138.184 260.792 143.786 259.353 146.828C258.554 148.268 257.594 148.909 255.995 148.909C254.396 148.909 253.597 148.909 251.998 149.069C248.48 149.229 238.247 151.79 237.767 156.272C237.607 157.232 238.087 158.033 238.566 158.833C239.686 160.594 241.604 161.554 243.203 162.835C244.802 164.115 246.401 165.876 246.241 167.957C246.241 168.757 245.922 169.398 245.602 170.198C244.003 174.2 242.404 178.362 240.325 182.203C239.206 184.124 233.13 189.887 233.45 191.488C233.45 191.968 233.769 192.448 234.089 192.768C235.688 195.009 237.287 197.25 239.366 199.011C244.323 202.853 251.678 200.452 257.594 200.452C258.234 200.452 258.873 200.452 259.353 200.131C259.833 199.811 260.153 199.011 260.312 198.371C262.231 191.808 263.99 185.405 265.909 178.842C266.868 175.641 268.787 172.439 269.746 169.238C270.386 166.837 270.386 165.876 273.424 165.876C274.863 165.876 276.462 165.876 277.901 165.876C278.541 165.876 279.18 165.876 279.66 165.556C279.98 165.236 280.14 164.916 280.3 164.596C281.899 160.754 282.698 157.392 283.817 153.391C283.977 152.27 283.817 151.47 283.338 150.669Z" stroke="black" stroke-width="1.39408" stroke-miterlimit="10" stroke-linecap="round" stroke-linejoin="round"/>
<path d="M361.049 131.781C360.73 130.821 360.25 130.02 359.45 129.22C356.732 126.659 354.014 122.017 350.016 123.297C346.818 124.258 344.26 128.419 342.821 131.141C332.588 149.549 323.953 168.757 316.918 188.446C316.598 189.086 316.438 189.887 316.598 190.687C316.758 191.488 317.397 192.128 318.037 192.768C320.595 195.169 322.674 198.05 326.192 198.691C330.189 199.491 334.826 198.851 338.824 198.851C342.022 198.851 342.821 192.288 343.461 189.887C344.74 185.405 346.339 180.923 347.618 176.441C349.377 170.678 356.572 148.108 358.491 142.346C359.45 138.664 362.009 135.142 361.049 131.781Z" fill="black"/>
<path d="M361.049 131.781C360.73 130.821 360.25 130.02 359.45 129.22C356.732 126.659 354.014 122.017 350.016 123.297C346.818 124.258 344.26 128.419 342.821 131.141C332.588 149.549 323.953 168.757 316.918 188.446C316.598 189.086 316.438 189.887 316.598 190.687C316.758 191.488 317.397 192.128 318.037 192.768C320.595 195.169 322.674 198.05 326.192 198.691C330.189 199.491 334.826 198.851 338.824 198.851C342.022 198.851 342.821 192.288 343.461 189.887C344.74 185.405 346.339 180.923 347.618 176.441C349.377 170.678 356.572 148.108 358.491 142.346C359.45 138.664 362.009 135.142 361.049 131.781Z" stroke="black" stroke-width="1.39408" stroke-miterlimit="10" stroke-linecap="round" stroke-linejoin="round"/>
<path d="M211.066 102.329C210.906 102.489 210.586 102.649 210.426 102.809C208.348 103.93 205.629 104.41 203.711 102.97C202.591 102.009 201.952 100.568 201.792 99.2879C201.152 94.4858 205.789 88.8833 210.746 88.8833C218.581 88.8833 214.744 99.2879 211.066 102.329ZM181.485 96.7268C179.406 98.9677 177.647 101.369 175.889 103.93C175.249 104.89 174.609 105.851 174.609 106.971C174.609 107.932 175.089 108.892 175.569 109.853C181.325 119.777 190.119 125.86 201.792 126.18C223.378 126.66 244.644 102.009 233.771 80.8797C230.733 75.1171 225.457 70.4751 219.86 67.4337C218.261 66.4733 216.502 65.6729 214.584 65.833C212.825 65.9931 211.226 67.2736 209.787 68.3941C204.03 72.8761 196.835 76.3977 192.038 81.8401C189 84.8815 186.602 88.5631 184.683 92.5649C183.883 94.3257 183.244 96.0865 182.604 98.0073C181.645 101.049 181.005 104.25 180.845 107.452C180.366 112.574 182.924 119.777 187.561 122.658" fill="black"/>
<path d="M181.485 96.7268C179.406 98.9677 177.647 101.369 175.889 103.93C175.249 104.89 174.609 105.851 174.609 106.971C174.609 107.932 175.089 108.892 175.569 109.853C181.325 119.777 190.119 125.86 201.792 126.18C223.378 126.66 244.644 102.009 233.771 80.8797C230.733 75.1171 225.457 70.4751 219.86 67.4337C218.261 66.4733 216.502 65.6729 214.584 65.833C212.825 65.9931 211.226 67.2736 209.787 68.3941C204.03 72.8761 196.835 76.3977 192.038 81.8401C189 84.8815 186.602 88.5631 184.683 92.5649C183.883 94.3257 183.244 96.0865 182.604 98.0073C181.645 101.049 181.005 104.25 180.845 107.452C180.366 112.574 182.924 119.777 187.561 122.658M211.066 102.329C210.906 102.489 210.586 102.649 210.426 102.809C208.348 103.93 205.629 104.41 203.711 102.97C202.591 102.009 201.952 100.568 201.792 99.2879C201.152 94.4858 205.789 88.8833 210.746 88.8833C218.581 88.8833 214.744 99.2879 211.066 102.329Z" stroke="black" stroke-width="1.39408" stroke-miterlimit="10" stroke-linecap="round" stroke-linejoin="round"/>
<path d="M279.824 124.579C280.783 124.579 281.902 124.259 282.382 123.458C283.182 122.498 282.862 121.057 282.702 119.777C281.103 112.734 279.344 105.69 277.105 98.8073C275.666 94.3253 277.585 93.685 280.623 90.6437C285.42 85.8415 290.857 81.8398 295.494 76.7175C298.692 73.0358 292.296 68.0736 289.577 65.9927C289.258 65.8326 288.938 65.5125 288.458 65.5125C288.138 65.5125 287.819 65.6726 287.499 65.8326C282.382 68.0736 276.306 70.3146 272.628 74.6365C271.829 75.757 267.671 82.6401 266.072 81.5196C264.793 80.7193 265.113 75.1168 264.953 73.6761C264.474 69.9945 259.677 65.8326 257.278 63.2715C257.278 63.2715 252.321 67.9135 251.842 68.2337C249.443 70.4747 248.804 71.115 245.606 71.4351C244.966 71.4351 244.167 71.5952 243.527 71.9153C242.408 72.5556 242.408 73.9963 242.727 75.2768C244.326 81.3595 246.085 87.4423 247.684 93.525C248.004 94.6455 248.324 95.6059 248.004 96.7264C247.684 98.007 246.885 99.1275 245.925 100.088C242.408 103.93 238.89 107.771 235.372 111.773C232.494 114.975 228.816 118.176 226.418 121.698C225.938 122.498 225.778 123.458 226.418 124.099C226.898 124.739 227.857 124.739 228.656 124.739C231.854 124.739 238.41 123.618 241.129 125.219C244.167 126.98 244.806 130.341 248.963 131.462C250.403 131.782 252.002 131.942 253.281 131.302C257.758 129.381 257.118 124.899 262.555 124.579C268.151 124.259 273.748 124.099 279.344 124.419C279.344 124.579 279.664 124.579 279.824 124.579Z" fill="black"/>
<path d="M279.824 124.579C280.783 124.579 281.902 124.259 282.382 123.458C283.182 122.498 282.862 121.057 282.702 119.777C281.103 112.734 279.344 105.69 277.105 98.8073C275.666 94.3253 277.585 93.685 280.623 90.6437C285.42 85.8415 290.857 81.8398 295.494 76.7175C298.692 73.0358 292.296 68.0736 289.577 65.9927C289.258 65.8326 288.938 65.5125 288.458 65.5125C288.138 65.5125 287.819 65.6726 287.499 65.8326C282.382 68.0736 276.306 70.3146 272.628 74.6365C271.829 75.757 267.671 82.6401 266.072 81.5196C264.793 80.7193 265.113 75.1168 264.953 73.6761C264.474 69.9945 259.677 65.8326 257.278 63.2715C257.278 63.2715 252.321 67.9135 251.842 68.2337C249.443 70.4747 248.804 71.115 245.606 71.4351C244.966 71.4351 244.167 71.5952 243.527 71.9153C242.408 72.5556 242.408 73.9963 242.727 75.2768C244.326 81.3595 246.085 87.4423 247.684 93.525C248.004 94.6455 248.324 95.6059 248.004 96.7264C247.684 98.007 246.885 99.1275 245.925 100.088C242.408 103.93 238.89 107.771 235.372 111.773C232.494 114.975 228.816 118.176 226.418 121.698C225.938 122.498 225.778 123.458 226.418 124.099C226.898 124.739 227.857 124.739 228.656 124.739C231.854 124.739 238.41 123.618 241.129 125.219C244.167 126.98 244.806 130.341 248.963 131.462C250.403 131.782 252.002 131.942 253.281 131.302C257.758 129.381 257.118 124.899 262.555 124.579C268.151 124.259 273.748 124.099 279.344 124.419C279.344 124.579 279.664 124.579 279.824 124.579Z" stroke="black" stroke-width="1.39408" stroke-miterlimit="10" stroke-linecap="round" stroke-linejoin="round"/>
<path d="M290.693 184.286C284.617 186.366 283.817 178.843 288.614 176.762C290.533 175.962 294.69 174.521 295.97 177.082C297.409 180.124 292.932 183.485 290.693 184.286ZM324.271 149.39C321.393 145.868 317.396 142.827 313.878 140.906C309.721 143.467 306.203 145.708 301.566 146.669C297.249 147.469 292.292 147.629 288.454 149.71C285.097 151.471 283.498 155.153 281.899 158.514C283.977 159.955 286.216 161.235 288.934 161.395C291.492 161.555 294.051 161.555 296.609 161.716C297.249 161.716 297.888 161.716 298.528 161.555C301.086 160.915 304.924 155.953 307.802 159.635C308.602 160.755 308.282 162.356 307.482 163.476C306.523 164.437 305.244 165.077 303.965 165.397C297.888 166.998 291.492 165.557 285.416 166.998C280.46 168.278 276.942 171.48 273.744 175.161C270.066 179.323 265.429 182.525 260.952 185.886C260.632 186.046 260.312 186.366 260.312 186.847C260.312 187.167 260.472 187.487 260.792 187.807C268.947 197.732 279.34 203.654 292.132 199.172C292.932 198.852 293.731 198.532 294.531 198.212C296.609 197.251 300.447 194.37 299.487 191.649C298.368 191.969 297.089 192.449 295.97 192.929C300.767 200.773 308.282 199.012 316.436 198.692C316.916 198.692 317.236 198.692 317.556 198.372C317.876 198.212 318.035 197.732 318.195 197.411C319.634 194.21 319.315 192.449 321.233 186.847C323.472 180.444 324.751 176.922 326.03 171.96C327.469 166.358 329.708 159.955 327.31 154.192C326.51 152.431 325.551 150.831 324.271 149.39Z" fill="black"/>
<path d="M290.693 184.286C284.617 186.366 283.817 178.843 288.614 176.762C290.533 175.962 294.69 174.521 295.97 177.082C297.409 180.124 292.932 183.485 290.693 184.286ZM324.271 149.39C321.393 145.868 317.396 142.827 313.878 140.906C309.721 143.467 306.203 145.708 301.566 146.669C297.249 147.469 292.292 147.629 288.454 149.71C285.097 151.471 283.498 155.153 281.899 158.514C283.977 159.955 286.216 161.235 288.934 161.395C291.492 161.555 294.051 161.555 296.609 161.716C297.249 161.716 297.888 161.716 298.528 161.555C301.086 160.915 304.924 155.953 307.802 159.635C308.602 160.755 308.282 162.356 307.482 163.476C306.523 164.437 305.244 165.077 303.965 165.397C297.888 166.998 291.492 165.557 285.416 166.998C280.46 168.278 276.942 171.48 273.744 175.162C270.066 179.323 265.429 182.525 260.952 185.886C260.632 186.046 260.312 186.366 260.312 186.847C260.312 187.167 260.472 187.487 260.792 187.807C268.947 197.732 279.34 203.654 292.132 199.172C292.932 198.852 293.731 198.532 294.531 198.212C296.609 197.251 300.447 194.37 299.487 191.649C298.368 191.969 297.089 192.449 295.97 192.929C300.767 200.773 308.282 199.012 316.436 198.692C316.916 198.692 317.236 198.692 317.556 198.372C317.876 198.212 318.035 197.732 318.195 197.411C319.634 194.21 319.315 192.449 321.233 186.847C323.472 180.444 324.751 176.922 326.03 171.96C327.469 166.358 329.708 159.955 327.31 154.192C326.51 152.431 325.551 150.831 324.271 149.39Z" stroke="black" stroke-width="1.39408" stroke-miterlimit="10" stroke-linecap="round" stroke-linejoin="round"/>
<path d="M185.962 167.959C185.642 172.281 182.444 176.442 177.807 176.602C176.847 176.602 175.888 176.442 175.089 175.962C173.969 175.162 173.649 173.881 173.649 172.441C173.649 170.2 174.609 167.959 175.888 166.358C177.647 164.117 180.365 162.676 183.243 163.637C185.322 164.437 186.121 166.198 185.962 167.959ZM148.226 202.054C146.147 206.696 146.307 212.779 148.546 217.261C153.662 227.505 171.411 227.825 180.845 224.784C193.956 220.622 198.913 207.016 203.39 195.331C207.068 185.566 209.626 175.322 212.984 165.398C213.944 162.676 218.9 149.871 216.662 148.27C216.022 147.79 215.223 147.79 214.423 147.63C211.385 147.47 208.507 147.149 205.469 146.989C204.19 146.829 202.911 146.829 201.951 147.47C200.672 148.27 200.192 149.871 199.713 151.151C199.233 152.752 198.593 154.193 197.954 155.793C197.794 156.113 197.634 156.594 197.314 156.594C196.835 156.754 196.195 156.434 196.035 155.953C195.875 155.473 195.875 154.833 195.875 154.353C195.555 147.63 188.2 146.989 183.083 147.95C177.167 149.07 171.731 152.592 167.573 156.754C163.256 161.236 160.058 166.838 158.139 172.761C155.581 180.764 154.302 194.21 164.535 196.932C169.332 198.212 176.208 196.932 180.045 193.73C182.124 191.969 183.883 189.888 185.802 188.128C188.68 185.566 186.761 191.009 186.281 191.969C184.842 195.171 182.924 198.052 180.685 200.773C179.246 202.374 177.647 203.975 175.728 204.935C172.21 206.696 166.134 207.016 164.695 202.214C164.535 201.894 164.535 201.574 164.375 201.414C163.416 200.613 159.738 200.933 158.619 200.773C155.741 200.613 152.863 200.613 150.145 200.773C149.825 200.773 149.345 200.773 149.025 201.093C148.546 201.414 148.386 201.734 148.226 202.054Z" fill="black"/>
<path d="M185.962 167.959C185.642 172.281 182.444 176.442 177.807 176.602C176.847 176.602 175.888 176.442 175.089 175.962C173.969 175.162 173.649 173.881 173.649 172.441C173.649 170.2 174.609 167.959 175.888 166.358C177.647 164.117 180.365 162.676 183.243 163.637C185.322 164.437 186.121 166.198 185.962 167.959ZM148.226 202.054C146.147 206.696 146.307 212.779 148.546 217.261C153.662 227.505 171.411 227.825 180.845 224.784C193.956 220.622 198.913 207.016 203.39 195.331C207.068 185.566 209.626 175.322 212.984 165.398C213.944 162.676 218.9 149.871 216.662 148.27C216.022 147.79 215.223 147.79 214.423 147.63C211.385 147.47 208.507 147.149 205.469 146.989C204.19 146.829 202.911 146.829 201.951 147.47C200.672 148.27 200.192 149.871 199.713 151.151C199.233 152.752 198.593 154.193 197.954 155.793C197.794 156.113 197.634 156.594 197.314 156.594C196.835 156.754 196.195 156.434 196.035 155.953C195.875 155.473 195.875 154.833 195.875 154.353C195.555 147.63 188.2 146.989 183.083 147.95C177.167 149.07 171.731 152.592 167.573 156.754C163.256 161.236 160.058 166.838 158.139 172.761C155.581 180.764 154.302 194.21 164.535 196.932C169.332 198.212 176.208 196.932 180.045 193.73C182.124 191.969 183.883 189.888 185.802 188.128C188.68 185.566 186.761 191.009 186.281 191.969C184.842 195.171 182.923 198.052 180.685 200.773C179.246 202.374 177.647 203.975 175.728 204.935C172.21 206.696 166.134 207.016 164.695 202.214C164.535 201.894 164.535 201.574 164.375 201.414C163.416 200.613 159.738 200.933 158.619 200.773C155.741 200.613 152.863 200.613 150.145 200.773C149.825 200.773 149.345 200.773 149.025 201.093C148.546 201.414 148.386 201.734 148.226 202.054Z" stroke="black" stroke-width="1.39408" stroke-miterlimit="10" stroke-linecap="round" stroke-linejoin="round"/>
<path d="M161.495 149.39C161.015 145.708 157.178 141.707 155.419 138.985C154.939 138.185 154.3 137.385 153.5 137.065C152.541 136.744 151.581 137.225 150.782 137.545C144.386 141.066 145.026 147.149 143.267 153.072C141.028 160.755 137.67 168.439 135.112 175.962C133.673 180.124 132.394 184.286 131.114 188.447C130.475 190.528 127.277 196.291 128.716 198.372C129.356 199.172 130.475 199.332 131.434 199.332C135.272 199.332 139.589 199.492 143.427 199.492C146.625 199.492 147.424 192.929 148.064 190.528C149.343 186.046 150.942 181.404 152.221 177.082C153.98 171.32 156.218 165.717 157.977 160.115C158.937 157.394 159.736 154.672 161.015 152.271C161.495 151.471 161.655 150.511 161.495 149.39Z" fill="black"/>
<path d="M161.495 149.39C161.015 145.708 157.178 141.707 155.419 138.985C154.939 138.185 154.3 137.385 153.5 137.065C152.541 136.744 151.581 137.225 150.782 137.545C144.386 141.066 145.026 147.149 143.267 153.072C141.028 160.755 137.67 168.439 135.112 175.962C133.673 180.124 132.394 184.286 131.114 188.447C130.475 190.528 127.277 196.291 128.716 198.372C129.356 199.172 130.475 199.332 131.434 199.332C135.272 199.332 139.589 199.492 143.427 199.492C146.625 199.492 147.424 192.929 148.064 190.528C149.343 186.046 150.942 181.404 152.221 177.082C153.98 171.32 156.218 165.717 157.977 160.115C158.937 157.394 159.736 154.672 161.015 152.271C161.495 151.471 161.655 150.511 161.495 149.39Z" stroke="black" stroke-width="1.39408" stroke-miterlimit="10" stroke-linecap="round" stroke-linejoin="round"/>
<path d="M171.41 127.3C171.09 125.859 170.451 124.578 169.491 123.618C162.296 115.134 144.707 120.577 145.507 134.503C145.827 138.985 148.705 142.666 152.542 143.947C161.337 146.668 173.329 137.864 171.41 127.3Z" fill="black"/>
<path d="M171.41 127.3C171.09 125.859 170.451 124.578 169.491 123.618C162.296 115.134 144.707 120.577 145.507 134.503C145.827 138.985 148.705 142.666 152.542 143.947C161.337 146.668 173.329 137.864 171.41 127.3Z" stroke="black" stroke-width="1.39408" stroke-miterlimit="10" stroke-linecap="round" stroke-linejoin="round"/>
<path d="M242.086 149.229C241.446 148.589 240.647 148.589 240.007 148.429C236.809 148.269 233.132 148.108 229.934 147.948C228.655 147.948 227.216 147.788 226.256 148.589C225.457 149.229 224.977 150.189 224.657 151.31C221.619 159.474 218.581 167.797 215.863 176.121C214.744 179.642 214.264 181.563 211.546 184.124C210.906 184.765 203.551 190.847 203.551 190.847C205.629 194.049 207.228 198.371 211.066 199.491C214.744 200.612 220.18 199.651 224.178 199.651C227.375 199.651 228.175 193.088 228.815 190.687C230.094 186.205 231.693 181.723 232.972 177.241C234.731 171.479 236.969 165.876 238.728 160.274C239.688 157.553 240.487 154.992 241.766 152.43C243.685 148.749 239.688 145.227 236.809 143.146C236.49 142.826 236.01 142.666 235.69 142.666C235.21 142.666 234.891 142.826 234.571 142.986C231.213 144.747 227.855 146.508 224.657 148.589" fill="black"/>
<path d="M242.086 149.229C241.446 148.589 240.647 148.589 240.007 148.429C236.809 148.269 233.132 148.108 229.934 147.948C228.655 147.948 227.216 147.788 226.256 148.589C225.457 149.229 224.977 150.189 224.657 151.31C221.619 159.474 218.581 167.797 215.863 176.121C214.744 179.642 214.264 181.563 211.546 184.124C210.906 184.765 203.551 190.847 203.551 190.847C205.629 194.049 207.228 198.371 211.066 199.491C214.744 200.612 220.18 199.651 224.178 199.651C227.375 199.651 228.175 193.088 228.815 190.687C230.094 186.205 231.693 181.723 232.972 177.241C234.731 171.479 236.969 165.876 238.728 160.274C239.688 157.553 240.487 154.992 241.766 152.43C243.685 148.749 239.688 145.227 236.809 143.146C236.49 142.826 236.01 142.666 235.69 142.666C235.21 142.666 234.891 142.826 234.571 142.986C231.213 144.747 227.855 146.508 224.657 148.589" stroke="black" stroke-width="1.39408" stroke-miterlimit="10" stroke-linecap="round" stroke-linejoin="round"/>
<path d="M252.156 127.3C251.837 125.859 251.197 124.578 250.238 123.618C243.042 115.134 225.453 120.577 226.253 134.503C226.573 138.985 229.451 142.666 233.288 143.947C242.083 146.668 254.075 137.864 252.156 127.3Z" fill="black"/>
<path d="M252.156 127.3C251.837 125.859 251.197 124.578 250.238 123.618C243.042 115.134 225.453 120.577 226.253 134.503C226.573 138.985 229.451 142.666 233.288 143.947C242.083 146.668 254.075 137.864 252.156 127.3Z" stroke="black" stroke-width="1.39408" stroke-miterlimit="10" stroke-linecap="round" stroke-linejoin="round"/>
<path d="M135.114 141.547C133.674 137.065 130.636 133.383 125.2 131.142C121.202 129.541 115.766 129.061 111.449 128.741C105.532 128.421 101.215 128.261 95.2991 128.581C92.261 128.741 89.0631 127.94 86.1849 129.221C82.3474 130.982 81.388 135.464 80.1088 138.985C78.5098 144.108 76.4312 148.91 74.6723 153.872C71.9541 161.235 69.2358 166.838 64.7587 173.241C63.6394 174.841 51.4872 190.688 51.807 191.009C55.0049 194.37 59.4821 198.692 63.9592 200.133C67.6368 201.253 71.7941 200.133 75.6317 200.133C84.2661 199.973 93.0605 200.453 101.695 198.852C108.411 197.571 114.647 194.21 119.923 189.728C125.52 184.766 128.398 179.804 131.116 172.921C134.794 164.437 138.471 151.311 135.114 141.547Z" fill="black"/>
<path d="M135.114 141.547C133.674 137.065 130.636 133.383 125.2 131.142C121.202 129.541 115.766 129.061 111.449 128.741C105.532 128.421 101.215 128.261 95.2991 128.581C92.261 128.741 89.0631 127.94 86.1849 129.221C82.3474 130.982 81.388 135.464 80.1088 138.985C78.5098 144.108 76.4312 148.91 74.6723 153.872C71.954 161.235 69.2358 166.838 64.7587 173.241C63.6394 174.841 51.4872 190.688 51.807 191.009C55.0049 194.37 59.4821 198.692 63.9592 200.133C67.6368 201.253 71.7941 200.133 75.6317 200.133C84.2661 199.973 93.0605 200.453 101.695 198.852C108.411 197.571 114.647 194.21 119.923 189.728C125.52 184.766 128.398 179.804 131.116 172.921C134.794 164.437 138.471 151.311 135.114 141.547Z" stroke="black" stroke-width="1.39408" stroke-miterlimit="10" stroke-linecap="round" stroke-linejoin="round"/>
<path d="M31.8194 171.639C26.0631 181.563 22.7053 193.249 24.6241 204.614C25.4235 209.096 27.0225 213.418 29.9007 216.779C35.8169 223.502 45.7305 224.943 54.6848 224.943C98.1769 225.263 138.951 205.734 177.806 186.366C191.717 179.322 205.628 172.279 219.379 165.236C238.887 155.152 258.234 145.067 276.143 132.262C294.691 118.976 311.32 103.129 325.391 85.2006C330.987 78.1574 336.104 70.6341 338.503 61.9902C341.221 52.3859 332.427 44.0622 324.272 40.5407C317.556 37.8195 310.201 37.1792 302.845 37.4993C280.94 38.2997 263.351 45.823 246.082 58.4687C243.524 60.2294 240.805 63.2708 242.404 65.992C259.513 59.4291 277.902 53.9867 295.81 57.8284C299.168 58.6287 302.845 59.7492 304.924 62.6305C306.043 64.0711 306.523 65.8319 306.843 67.5927C310.521 86.9613 283.658 107.29 270.386 117.855C252.478 131.941 232.491 142.986 212.024 152.911C188.199 164.596 163.735 175.161 138.951 184.445C122.321 190.688 105.052 195.009 87.6236 198.051C74.0324 200.452 55.8041 205.734 48.9285 189.407C42.5326 174.2 50.8472 163.315 60.2812 152.591C61.7203 150.99 62.8395 147.949 60.9208 147.148C60.1213 146.828 59.3218 146.988 58.5223 147.308C47.1696 150.67 37.7356 161.394 31.8194 171.639Z" fill="#0857C3"/>
<path d="M31.8194 171.639C26.0631 181.563 22.7053 193.249 24.6241 204.614C25.4235 209.096 27.0225 213.418 29.9007 216.779C35.8169 223.502 45.7305 224.943 54.6848 224.943C98.1769 225.263 138.951 205.734 177.806 186.366C191.717 179.322 205.628 172.279 219.379 165.236C238.887 155.152 258.234 145.067 276.143 132.262C294.691 118.976 311.32 103.129 325.391 85.2006C330.987 78.1574 336.104 70.6341 338.503 61.9902C341.221 52.3859 332.427 44.0622 324.272 40.5407C317.556 37.8195 310.201 37.1792 302.845 37.4993C280.94 38.2997 263.351 45.823 246.082 58.4687C243.524 60.2294 240.805 63.2708 242.404 65.992C259.513 59.4291 277.902 53.9867 295.81 57.8284C299.168 58.6287 302.846 59.7492 304.924 62.6305C306.043 64.0711 306.523 65.8319 306.843 67.5927C310.521 86.9613 283.658 107.29 270.386 117.855C252.478 131.941 232.491 142.986 212.024 152.911C188.199 164.596 163.735 175.161 138.951 184.445C122.321 190.688 105.052 195.009 87.6236 198.051C74.0324 200.452 55.8041 205.734 48.9285 189.407C42.5326 174.2 50.8472 163.315 60.2812 152.591C61.7203 150.99 62.8395 147.949 60.9208 147.148C60.1213 146.828 59.3218 146.988 58.5223 147.308C47.1696 150.67 37.7356 161.394 31.8194 171.639Z" stroke="black" stroke-width="1.39408" stroke-miterlimit="10" stroke-linecap="round" stroke-linejoin="round"/>
<path d="M198.434 27.576C198.114 27.736 197.794 28.0562 197.634 28.3763C196.995 29.4968 197.634 31.0975 198.594 32.058C199.873 33.3385 201.632 34.299 202.751 35.7396C205.629 38.781 203.87 42.4626 202.431 45.664C201.792 47.2647 197.315 55.1082 201.632 55.2683C202.431 55.2683 203.231 54.9482 203.87 54.4679C206.908 52.7072 209.947 50.7863 212.665 48.7054C214.903 46.9446 216.662 45.9842 218.901 48.3852C220.02 49.6658 221.139 50.7863 222.259 52.0669C223.538 53.3475 225.137 54.9482 226.896 54.628C228.495 54.3079 229.454 52.8672 229.774 51.2665C230.413 48.5453 229.774 45.8241 229.614 42.9428C229.454 40.2216 229.774 37.0202 231.852 35.2594C233.132 34.1389 234.89 33.8188 236.17 32.6983C242.406 27.736 228.335 27.576 226.576 26.1353C224.017 24.0544 223.538 17.8116 222.578 14.6102C222.418 13.9699 222.259 13.4897 221.619 13.1696C220.66 12.6894 219.86 13.8098 219.38 14.7703C217.941 17.4915 216.183 23.094 213.624 24.8548C210.746 26.9357 204.03 26.7756 200.513 27.2558C199.873 27.0958 199.073 27.2558 198.434 27.576Z" fill="white"/>
<path d="M198.434 27.576C198.114 27.736 197.794 28.0562 197.634 28.3763C196.995 29.4968 197.634 31.0975 198.594 32.058C199.873 33.3385 201.632 34.299 202.751 35.7396C205.629 38.781 203.87 42.4626 202.431 45.664C201.792 47.2647 197.315 55.1082 201.632 55.2683C202.431 55.2683 203.231 54.9482 203.87 54.4679C206.908 52.7072 209.947 50.7863 212.665 48.7054C214.903 46.9446 216.662 45.9842 218.901 48.3852C220.02 49.6658 221.139 50.7863 222.259 52.0669C223.538 53.3475 225.137 54.9482 226.896 54.628C228.495 54.3079 229.454 52.8672 229.774 51.2665C230.413 48.5453 229.774 45.8241 229.614 42.9428C229.454 40.2216 229.774 37.0202 231.852 35.2594C233.132 34.1389 234.89 33.8188 236.17 32.6983C242.406 27.736 228.335 27.576 226.576 26.1353C224.017 24.0544 223.538 17.8116 222.578 14.6102C222.418 13.9699 222.259 13.4897 221.619 13.1696C220.66 12.6894 219.86 13.8098 219.38 14.7703C217.941 17.4915 216.183 23.094 213.624 24.8548C210.746 26.9357 204.03 26.7756 200.513 27.2558C199.873 27.0958 199.073 27.2558 198.434 27.576Z" stroke="black" stroke-width="1.39408" stroke-miterlimit="10" stroke-linecap="round" stroke-linejoin="round"/>
<path d="M274.705 214.379C274.385 216.139 276.784 216.94 277.903 218.38C279.182 220.141 278.702 222.542 277.743 224.623C276.784 226.544 275.504 228.465 275.504 230.706C275.504 231.026 275.504 231.186 275.664 231.506C276.144 231.986 276.943 231.666 277.423 231.186C279.822 229.265 282.06 227.344 284.459 225.424C284.778 225.103 285.098 224.943 285.578 224.783C286.217 224.783 286.697 225.263 287.017 225.744C288.776 227.985 290.535 230.226 292.294 232.467C292.613 232.947 293.253 233.587 293.893 233.267C294.372 232.947 294.372 232.467 294.372 231.986C294.212 229.425 293.893 227.024 293.413 224.463C293.093 223.183 292.933 221.742 293.573 220.621C294.052 219.821 294.852 219.341 295.651 218.861C297.09 218.06 298.37 217.26 299.809 216.46C300.129 216.299 300.448 216.139 300.448 215.819C300.608 215.339 300.129 215.019 299.809 214.699C297.89 213.258 294.532 214.058 292.933 212.618C291.334 211.337 290.855 207.175 290.375 205.095C290.215 204.774 290.055 204.294 289.735 204.134C289.096 203.814 288.616 204.614 288.296 205.095C287.337 206.695 286.537 208.456 285.578 210.057C285.258 210.537 284.938 211.177 284.459 211.497C283.979 211.817 283.499 211.978 283.02 211.978C282.06 212.458 274.865 213.738 274.705 214.379Z" fill="white"/>
<path d="M274.705 214.379C274.385 216.139 276.784 216.94 277.903 218.38C279.182 220.141 278.702 222.542 277.743 224.623C276.784 226.544 275.504 228.465 275.504 230.706C275.504 231.026 275.504 231.186 275.664 231.506C276.144 231.986 276.943 231.666 277.423 231.186C279.822 229.265 282.06 227.344 284.459 225.424C284.778 225.103 285.098 224.943 285.578 224.783C286.217 224.783 286.697 225.263 287.017 225.744C288.776 227.985 290.535 230.226 292.294 232.467C292.613 232.947 293.253 233.587 293.893 233.267C294.372 232.947 294.372 232.467 294.372 231.986C294.212 229.425 293.893 227.024 293.413 224.463C293.093 223.183 292.933 221.742 293.573 220.621C294.052 219.821 294.852 219.341 295.651 218.861C297.09 218.06 298.37 217.26 299.809 216.46C300.129 216.299 300.448 216.139 300.448 215.819C300.608 215.339 300.129 215.019 299.809 214.699C297.89 213.258 294.532 214.058 292.933 212.618C291.334 211.337 290.855 207.175 290.375 205.095C290.215 204.774 290.055 204.294 289.735 204.134C289.096 203.814 288.616 204.614 288.296 205.095C287.337 206.695 286.537 208.456 285.578 210.057C285.258 210.537 284.938 211.177 284.459 211.497C283.979 211.817 283.499 211.978 283.02 211.978C282.06 212.458 274.865 213.738 274.705 214.379Z" stroke="black" stroke-width="1.5" stroke-miterlimit="10" stroke-linecap="round" stroke-linejoin="round"/>
<path d="M303.167 95.6048C302.207 96.2451 301.568 97.0455 301.728 98.0059C301.888 98.9663 302.687 99.6066 303.646 99.9268C307.644 102.008 313.72 103.608 315.799 108.25C316.438 109.691 316.598 111.292 316.758 112.893C317.238 117.375 317.717 122.017 318.037 126.499C318.197 127.619 318.357 128.9 318.837 129.86C319.476 130.821 320.755 131.461 321.875 130.981C322.354 130.821 322.674 130.5 322.994 130.02C325.392 127.139 326.832 123.457 327.951 119.776C329.07 116.094 330.189 112.412 332.108 109.211C335.466 103.768 340.583 103.929 345.06 100.567C346.019 99.9268 346.659 98.6462 346.339 97.5257C345.859 95.6048 343.461 95.1246 341.542 94.9645C339.463 94.8045 337.225 94.4843 335.306 93.5239C331.788 91.7631 329.87 88.4016 329.55 84.72C329.39 82.1588 329.07 70.4736 326.512 69.033C325.872 68.7129 325.073 69.033 324.593 69.3531C324.113 69.8334 323.793 70.4736 323.634 71.1139C321.715 76.5564 321.555 83.9196 318.197 88.7218C315.319 92.8836 309.083 93.5239 304.606 94.9645C304.126 94.9645 303.646 95.2847 303.167 95.6048Z" fill="white"/>
<path d="M303.167 95.6048C302.207 96.2451 301.568 97.0455 301.728 98.0059C301.888 98.9663 302.687 99.6066 303.646 99.9268C307.644 102.008 313.72 103.608 315.799 108.25C316.438 109.691 316.598 111.292 316.758 112.893C317.238 117.375 317.717 122.017 318.037 126.499C318.197 127.619 318.357 128.9 318.837 129.86C319.476 130.821 320.755 131.461 321.875 130.981C322.354 130.821 322.674 130.5 322.994 130.02C325.392 127.139 326.832 123.457 327.951 119.776C329.07 116.094 330.189 112.412 332.108 109.211C335.466 103.768 340.583 103.929 345.06 100.567C346.019 99.9267 346.659 98.6462 346.339 97.5257C345.859 95.6048 343.461 95.1246 341.542 94.9645C339.463 94.8045 337.225 94.4843 335.306 93.5239C331.788 91.7631 329.87 88.4016 329.55 84.72C329.39 82.1588 329.07 70.4736 326.512 69.033C325.872 68.7129 325.073 69.033 324.593 69.3531C324.113 69.8334 323.793 70.4736 323.634 71.1139C321.715 76.5564 321.555 83.9196 318.197 88.7218C315.319 92.8836 309.083 93.5239 304.606 94.9645C304.126 94.9645 303.646 95.2847 303.167 95.6048Z" stroke="black" stroke-width="1.5" stroke-miterlimit="10" stroke-linecap="round" stroke-linejoin="round"/>
<path d="M103.455 207.655C101.856 209.096 100.097 210.376 98.0182 211.177C95.2999 212.297 92.4217 212.617 89.7035 213.098C88.7441 213.258 87.6248 213.418 86.8253 214.058C85.5462 215.339 86.1858 217.74 87.6248 219.02C89.0639 220.301 90.9827 220.781 92.5817 221.581C98.6578 224.303 97.6984 230.545 97.3786 236.148C97.2187 237.428 95.9395 245.272 99.1374 243.991C99.9369 243.671 100.417 242.871 100.896 242.071C103.295 237.749 105.693 233.587 108.092 229.265C108.891 227.824 109.691 226.384 110.81 225.103C114.647 221.101 121.203 221.902 124.561 217.74C124.881 217.42 125.041 216.939 125.041 216.619C125.041 215.819 124.401 215.339 123.602 214.858C121.523 213.738 119.125 213.578 117.046 212.617C113.049 210.537 114.008 204.934 113.688 200.772C113.688 199.972 113.528 199.171 113.208 198.531C112.729 197.891 111.929 197.411 111.29 197.731C110.97 197.891 110.65 198.211 110.33 198.691C108.252 201.893 106.173 205.094 103.455 207.655Z" fill="white"/>
<path d="M103.455 207.655C101.856 209.096 100.097 210.376 98.0182 211.177C95.2999 212.297 92.4217 212.617 89.7035 213.098C88.7441 213.258 87.6248 213.418 86.8253 214.058C85.5462 215.339 86.1858 217.74 87.6248 219.02C89.0639 220.301 90.9827 220.781 92.5817 221.581C98.6577 224.303 97.6984 230.545 97.3786 236.148C97.2187 237.428 95.9395 245.272 99.1374 243.991C99.9369 243.671 100.417 242.871 100.896 242.071C103.295 237.749 105.693 233.587 108.092 229.265C108.891 227.824 109.691 226.384 110.81 225.103C114.647 221.101 121.203 221.902 124.561 217.74C124.881 217.42 125.041 216.939 125.041 216.619C125.041 215.819 124.401 215.339 123.602 214.858C121.523 213.738 119.125 213.578 117.046 212.617C113.049 210.537 114.008 204.934 113.688 200.772C113.688 199.972 113.528 199.171 113.208 198.531C112.729 197.891 111.929 197.411 111.29 197.731C110.97 197.891 110.65 198.211 110.33 198.691C108.252 201.893 106.173 205.094 103.455 207.655Z" stroke="black" stroke-width="1.39408" stroke-miterlimit="10" stroke-linecap="round" stroke-linejoin="round"/>
<path d="M28.9418 194.53C30.7006 192.45 33.259 191.329 35.8173 190.849C37.5762 190.529 41.4138 191.009 41.5737 188.288C41.7335 186.367 39.495 185.406 37.896 184.446C35.3377 182.845 33.8986 179.804 34.2184 176.763C34.3783 175.642 34.6981 174.522 34.6981 173.401C34.5382 172.281 33.8986 171 32.6194 171C31.9798 171 31.5001 171.32 31.0204 171.64C27.3428 174.201 25.9037 179.644 21.7464 180.924C20.3073 181.405 18.7083 181.245 17.1094 181.405C15.5104 181.565 13.9114 182.045 13.1119 183.325C10.5536 187.007 18.3885 188.768 19.5078 191.169C19.9875 192.289 19.9875 193.41 19.9875 194.53C19.9875 196.611 19.9875 198.692 19.8276 200.933C19.8276 203.334 21.1068 206.216 23.825 204.775C27.1829 203.014 26.5433 198.532 28.1423 195.651C28.622 195.011 28.7819 194.691 28.9418 194.53Z" fill="white"/>
<path d="M28.9418 194.53C30.7006 192.45 33.259 191.329 35.8173 190.849C37.5762 190.529 41.4138 191.009 41.5737 188.288C41.7335 186.367 39.495 185.406 37.896 184.446C35.3377 182.845 33.8986 179.804 34.2184 176.763C34.3783 175.642 34.6981 174.522 34.6981 173.401C34.5382 172.281 33.8986 171 32.6194 171C31.9798 171 31.5001 171.32 31.0204 171.64C27.3428 174.201 25.9037 179.644 21.7464 180.924C20.3073 181.405 18.7083 181.245 17.1094 181.405C15.5104 181.565 13.9114 182.045 13.1119 183.325C10.5536 187.007 18.3885 188.768 19.5078 191.169C19.9875 192.289 19.9875 193.41 19.9875 194.53C19.9875 196.611 19.9875 198.692 19.8276 200.933C19.8276 203.334 21.1068 206.216 23.825 204.775C27.1829 203.014 26.5433 198.532 28.1423 195.651C28.622 195.011 28.7819 194.691 28.9418 194.53Z" stroke="black" stroke-width="1.39408" stroke-miterlimit="10" stroke-linecap="round" stroke-linejoin="round"/>
<path d="M56.4475 91.9231C53.7293 93.3638 48.4527 94.0041 45.5745 93.3638C45.4146 93.3638 45.4146 93.3638 45.2547 93.3638C44.9349 93.2037 53.5694 66.4718 54.3689 64.3909C54.5288 64.0707 54.6887 63.5905 55.0085 63.4304C55.4881 63.1103 55.9678 63.2704 56.4475 63.2704C58.3663 63.4304 60.445 63.2704 62.0439 64.0707C66.3612 66.3117 65.7216 70.4736 64.7622 74.7955C63.483 80.0779 59.8054 90.0023 56.4475 91.9231ZM87.4676 58.1481C86.0285 53.6661 82.9905 49.9845 77.554 47.7435C73.5565 46.1427 68.12 45.6625 63.8028 45.3424C57.8866 45.0222 53.5694 44.8622 47.6532 45.1823C44.6151 45.3424 41.4172 44.542 38.539 45.8226C34.7015 47.5834 33.7421 52.0654 32.4629 55.587C30.8639 60.7092 28.7853 65.5114 27.0264 70.4736C22.2295 83.9196 17.5925 97.3656 13.1153 110.972C10.2372 119.615 23.8285 116.894 27.9858 116.894C36.6203 116.734 45.4146 117.214 54.0491 115.614C60.7648 114.333 67.0008 110.972 72.2774 106.49C77.8738 101.527 80.7519 96.5652 83.4702 89.6821C86.9879 81.1984 90.6656 67.9124 87.4676 58.1481Z" fill="#F49AC1"/>
<path d="M56.4475 91.9231C53.7293 93.3638 48.4527 94.0041 45.5745 93.3638C45.4146 93.3638 45.4146 93.3638 45.2547 93.3638C44.9349 93.2037 53.5694 66.4718 54.3689 64.3909C54.5288 64.0707 54.6887 63.5905 55.0085 63.4304C55.4881 63.1103 55.9678 63.2704 56.4475 63.2704C58.3663 63.4304 60.445 63.2704 62.0439 64.0707C66.3612 66.3117 65.7216 70.4736 64.7622 74.7955C63.483 80.0779 59.8054 90.0023 56.4475 91.9231ZM87.4676 58.1481C86.0285 53.6661 82.9905 49.9845 77.554 47.7435C73.5566 46.1427 68.12 45.6625 63.8028 45.3424C57.8866 45.0222 53.5694 44.8622 47.6532 45.1823C44.6151 45.3424 41.4172 44.542 38.539 45.8226C34.7015 47.5834 33.7421 52.0654 32.4629 55.587C30.8639 60.7092 28.7853 65.5114 27.0264 70.4736C22.2295 83.9196 17.5925 97.3656 13.1153 110.972C10.2372 119.615 23.8285 116.894 27.9858 116.894C36.6203 116.734 45.4146 117.214 54.0491 115.614C60.7648 114.333 67.0008 110.972 72.2774 106.49C77.8738 101.527 80.7519 96.5652 83.4702 89.6821C86.9879 81.1984 90.6656 67.9124 87.4676 58.1481Z" stroke="black" stroke-width="1.39408" stroke-miterlimit="10" stroke-linecap="round" stroke-linejoin="round"/>
<path d="M117.845 74.9568C118.644 74.7968 119.284 74.7968 120.083 74.9568C122.002 75.437 123.761 77.678 123.281 79.759C123.281 79.919 123.121 80.0791 123.121 80.2392C122.961 80.3993 122.801 80.3993 122.482 80.3993C119.444 80.5593 116.565 80.5593 113.527 80.3993C113.048 80.3993 112.408 80.2392 112.408 79.759C112.568 77.3579 115.926 75.437 117.845 74.9568ZM107.131 92.8848C107.611 92.8848 108.251 92.8848 108.73 92.7248C116.246 92.5647 123.921 92.7247 131.436 92.8848C133.674 92.8848 136.073 93.0449 137.832 91.6042C142.789 87.9226 140.55 77.1978 138.311 72.8759C129.997 56.8688 106.812 63.4317 96.5782 73.6763C92.261 78.1583 89.0631 83.7608 87.1443 89.6834C86.3448 92.8848 85.7052 96.0862 85.3854 99.2877C84.9057 104.41 87.4641 111.613 92.1011 114.494C96.4183 117.056 101.375 118.176 106.332 118.336C113.527 118.496 120.723 116.575 126.799 112.734C129.197 111.133 142.149 100.088 137.512 97.2067C136.553 96.5665 135.433 96.5665 134.314 96.5665C128.718 96.5665 120.243 94.8057 116.246 99.2877C114.167 101.689 110.809 102.969 107.611 102.489C105.692 102.329 103.614 101.209 102.974 99.4477C101.855 96.2463 103.934 93.205 107.131 92.8848Z" fill="#F49AC1"/>
<path d="M117.845 74.9568C118.644 74.7968 119.284 74.7968 120.083 74.9568C122.002 75.437 123.761 77.678 123.281 79.759C123.281 79.919 123.121 80.0791 123.121 80.2392C122.961 80.3993 122.801 80.3993 122.482 80.3993C119.444 80.5593 116.565 80.5593 113.527 80.3993C113.048 80.3993 112.408 80.2392 112.408 79.759C112.568 77.3579 115.926 75.437 117.845 74.9568ZM107.131 92.8848C107.611 92.8848 108.251 92.8848 108.73 92.7247C116.246 92.5647 123.921 92.7247 131.436 92.8848C133.674 92.8848 136.073 93.0449 137.832 91.6042C142.789 87.9226 140.55 77.1978 138.311 72.8759C129.997 56.8688 106.812 63.4317 96.5782 73.6763C92.261 78.1583 89.063 83.7608 87.1443 89.6834C86.3448 92.8848 85.7052 96.0862 85.3854 99.2877C84.9057 104.41 87.4641 111.613 92.1011 114.494C96.4183 117.056 101.375 118.176 106.332 118.336C113.527 118.496 120.723 116.575 126.799 112.734C129.197 111.133 142.149 100.088 137.512 97.2067C136.553 96.5665 135.433 96.5665 134.314 96.5665C128.718 96.5665 120.243 94.8057 116.246 99.2877C114.167 101.689 110.809 102.969 107.611 102.489C105.692 102.329 103.614 101.209 102.974 99.4477C101.855 96.2463 103.934 93.205 107.131 92.8848Z" stroke="black" stroke-width="1.39408" stroke-miterlimit="10" stroke-linecap="round" stroke-linejoin="round"/>
<path d="M181.643 64.2328C181.643 64.2328 181.643 64.0727 181.643 64.2328C181.163 63.9126 180.683 63.7525 180.204 63.7525C178.605 63.5925 176.846 63.4324 175.087 63.5925C173.168 63.7525 172.848 63.1123 173.328 61.3515C173.808 60.0709 174.287 58.7903 174.607 57.3497C174.927 56.3893 176.686 52.2274 175.726 51.4271C175.247 51.1069 174.607 50.9468 174.127 50.9468L163.254 50.1465C162.615 50.1465 161.655 50.1465 161.176 50.6267C160.856 50.9468 160.696 51.267 160.696 51.5871C159.417 54.7886 158.458 58.3101 157.018 61.3515C156.219 62.7921 155.26 62.472 153.661 62.472C152.062 62.472 150.303 62.472 148.704 62.632C147.904 62.632 146.945 62.7921 146.305 63.1123C144.387 64.2328 143.907 67.5943 143.427 69.6752C143.107 71.2759 142.788 72.7165 142.468 74.3172C142.308 75.4377 142.308 76.7183 143.107 77.5187C143.747 77.9989 144.546 78.159 145.506 78.159C146.785 78.159 148.064 78.159 149.343 78.159C152.701 78.159 149.983 83.1212 149.503 84.8819C148.544 88.0834 147.744 91.2848 146.785 94.6463C145.026 100.889 143.427 107.132 141.828 113.535C141.668 114.495 141.349 115.456 141.988 116.256C142.628 117.056 143.747 117.216 144.706 117.216C148.544 117.216 153.341 117.376 157.338 117.376C157.978 117.376 158.617 117.376 159.097 117.056C159.577 116.736 159.897 115.936 160.056 115.295C161.975 108.733 162.775 102.33 164.694 95.7668C165.653 92.5654 166.452 89.3639 167.412 86.1625C168.051 83.7614 168.051 79.7597 171.089 79.7597C172.528 79.7597 174.127 79.7597 175.567 79.7597C176.206 79.7597 176.846 79.7597 177.325 79.4395C177.645 79.1194 177.805 78.7992 177.965 78.4791C179.564 74.6374 181.003 71.2759 181.962 67.2741C182.282 65.9935 182.442 64.873 181.643 64.2328Z" fill="#F49AC1"/>
<path d="M181.643 64.2328C181.643 64.2328 181.643 64.0727 181.643 64.2328C181.163 63.9126 180.683 63.7525 180.204 63.7525C178.605 63.5925 176.846 63.4324 175.087 63.5925C173.168 63.7525 172.848 63.1123 173.328 61.3515C173.808 60.0709 174.287 58.7903 174.607 57.3497C174.927 56.3893 176.686 52.2274 175.726 51.4271C175.247 51.1069 174.607 50.9468 174.127 50.9468L163.254 50.1465C162.615 50.1465 161.655 50.1465 161.176 50.6267C160.856 50.9468 160.696 51.267 160.696 51.5871C159.417 54.7886 158.458 58.3101 157.018 61.3515C156.219 62.7921 155.26 62.472 153.661 62.472C152.062 62.472 150.303 62.472 148.704 62.632C147.904 62.632 146.945 62.7921 146.305 63.1123C144.387 64.2328 143.907 67.5943 143.427 69.6752C143.107 71.2759 142.788 72.7165 142.468 74.3172C142.308 75.4377 142.308 76.7183 143.107 77.5187C143.747 77.9989 144.546 78.159 145.506 78.159C146.785 78.159 148.064 78.159 149.343 78.159C152.701 78.159 149.983 83.1212 149.503 84.8819C148.544 88.0834 147.744 91.2848 146.785 94.6463C145.026 100.889 143.427 107.132 141.828 113.535C141.668 114.495 141.349 115.456 141.988 116.256C142.628 117.056 143.747 117.216 144.706 117.216C148.544 117.216 153.341 117.376 157.338 117.376C157.978 117.376 158.617 117.376 159.097 117.056C159.577 116.736 159.897 115.936 160.056 115.295C161.975 108.733 162.775 102.33 164.694 95.7668C165.653 92.5654 166.452 89.3639 167.412 86.1625C168.051 83.7614 168.051 79.7597 171.089 79.7597C172.529 79.7597 174.127 79.7597 175.567 79.7597C176.206 79.7597 176.846 79.7597 177.325 79.4395C177.645 79.1194 177.805 78.7992 177.965 78.4791C179.564 74.6374 181.003 71.2759 181.962 67.2741C182.282 65.9935 182.442 64.873 181.643 64.2328Z" stroke="black" stroke-width="1.39408" stroke-miterlimit="10" stroke-linecap="round" stroke-linejoin="round"/>
<path d="M275.664 142.667C275.504 142.667 275.504 142.667 275.664 142.667C275.184 142.347 275.184 142.187 274.704 142.187C273.105 142.026 271.347 141.866 269.588 142.026C267.669 142.187 266.869 140.426 267.349 138.825C267.829 137.544 268.308 134.183 268.628 132.902C268.948 131.942 270.707 127.78 269.748 126.98C269.268 126.66 268.628 126.5 268.149 126.5C264.471 126.179 260.953 126.019 257.276 125.699C256.636 125.699 255.677 125.699 255.197 126.179C254.877 126.5 254.717 126.82 254.717 127.14C253.438 130.341 252.958 135.944 251.519 138.985C250.72 140.426 249.76 141.066 248.161 141.066C246.562 141.066 245.763 141.066 244.164 141.226C243.364 141.226 242.405 141.386 241.766 141.706C239.847 142.827 238.887 146.188 238.408 148.269C238.088 149.87 237.288 151.311 236.969 152.911C236.809 154.032 236.809 155.312 237.608 156.113C238.248 156.593 239.047 156.753 240.007 156.753C241.286 156.753 242.565 156.753 243.844 156.753C247.202 156.753 244.484 158.674 244.004 160.435C243.045 163.636 241.126 169.399 240.326 172.6C238.568 178.843 236.009 182.685 234.41 188.927C234.25 189.888 233.931 190.848 234.57 191.649C235.21 192.449 236.329 192.609 237.288 192.609C241.126 192.609 245.923 192.769 249.92 192.769C250.56 192.769 251.199 192.769 251.679 192.449C252.159 192.129 252.479 191.328 252.639 190.688C254.557 184.125 256.316 177.722 258.235 171.159C259.194 167.958 261.113 164.757 262.072 161.555C262.712 159.154 262.712 158.194 265.75 158.194C267.189 158.194 268.788 158.194 270.227 158.194C270.867 158.194 271.506 158.194 271.986 157.874C272.306 157.553 272.466 157.233 272.626 156.913C274.225 153.071 275.024 149.71 276.143 145.708C276.143 144.428 276.303 143.307 275.664 142.667Z" fill="#F49AC1"/>
<path d="M275.664 142.667C275.504 142.667 275.504 142.667 275.664 142.667C275.184 142.347 275.184 142.187 274.704 142.187C273.105 142.026 271.347 141.866 269.588 142.026C267.669 142.187 266.869 140.426 267.349 138.825C267.829 137.544 268.308 134.183 268.628 132.902C268.948 131.942 270.707 127.78 269.748 126.98C269.268 126.66 268.628 126.5 268.149 126.5C264.471 126.179 260.953 126.019 257.276 125.699C256.636 125.699 255.677 125.699 255.197 126.179C254.877 126.5 254.717 126.82 254.717 127.14C253.438 130.341 252.958 135.944 251.519 138.985C250.72 140.426 249.76 141.066 248.161 141.066C246.562 141.066 245.763 141.066 244.164 141.226C243.364 141.226 242.405 141.386 241.766 141.706C239.847 142.827 238.887 146.188 238.408 148.269C238.088 149.87 237.288 151.311 236.969 152.911C236.809 154.032 236.809 155.312 237.608 156.113C238.248 156.593 239.047 156.753 240.007 156.753C241.286 156.753 242.565 156.753 243.844 156.753C247.202 156.753 244.484 158.674 244.004 160.435C243.045 163.636 241.126 169.399 240.326 172.6C238.568 178.843 236.009 182.685 234.41 188.927C234.25 189.888 233.931 190.848 234.57 191.649C235.21 192.449 236.329 192.609 237.288 192.609C241.126 192.609 245.923 192.769 249.92 192.769C250.56 192.769 251.199 192.769 251.679 192.449C252.159 192.129 252.479 191.328 252.639 190.688C254.557 184.125 256.316 177.722 258.235 171.159C259.194 167.958 261.113 164.757 262.072 161.555C262.712 159.154 262.712 158.194 265.75 158.194C267.189 158.194 268.788 158.194 270.227 158.194C270.867 158.194 271.506 158.194 271.986 157.874C272.306 157.553 272.466 157.233 272.626 156.913C274.225 153.071 275.024 149.71 276.143 145.708C276.143 144.428 276.303 143.307 275.664 142.667Z" stroke="black" stroke-width="1.39408" stroke-miterlimit="10" stroke-linecap="round" stroke-linejoin="round"/>
<path d="M353.854 123.618C353.854 123.458 353.694 123.458 353.694 123.298C353.214 122.817 352.415 122.657 351.615 122.657C348.417 122.497 344.739 122.337 341.542 122.177C340.262 122.177 338.823 122.017 337.864 122.817C337.064 123.458 336.585 124.418 336.265 125.539C333.227 133.702 325.232 158.994 322.354 167.317C320.915 171.479 319.636 175.641 318.196 179.803C317.557 181.884 314.359 187.646 315.798 189.727C316.438 190.528 317.557 190.688 318.516 190.688C322.354 190.688 326.671 190.848 330.509 190.848C333.707 190.848 334.506 184.285 335.146 181.884C336.425 177.402 338.024 172.76 339.303 168.438C341.062 162.675 348.257 140.105 350.176 134.343C351.135 131.621 351.935 128.9 353.214 126.499C353.854 125.699 354.333 124.418 353.854 123.618Z" fill="#F49AC1"/>
<path d="M353.854 123.618C353.854 123.458 353.694 123.458 353.694 123.298C353.214 122.817 352.415 122.657 351.615 122.657C348.417 122.497 344.739 122.337 341.542 122.177C340.262 122.177 338.823 122.017 337.864 122.817C337.064 123.458 336.585 124.418 336.265 125.539C333.227 133.702 325.232 158.994 322.354 167.317C320.915 171.479 319.636 175.641 318.196 179.803C317.557 181.884 314.359 187.646 315.798 189.727C316.438 190.528 317.557 190.688 318.516 190.688C322.354 190.688 326.671 190.848 330.509 190.848C333.707 190.848 334.506 184.285 335.146 181.884C336.425 177.402 338.024 172.76 339.303 168.438C341.062 162.675 348.257 140.105 350.176 134.343C351.135 131.621 351.935 128.9 353.214 126.499C353.854 125.699 354.333 124.418 353.854 123.618Z" stroke="black" stroke-width="1.39408" stroke-miterlimit="10" stroke-linecap="round" stroke-linejoin="round"/>
<path d="M203.071 94.4848C202.911 94.6449 202.591 94.8049 202.431 94.965C200.353 96.0855 197.634 96.5657 195.716 95.1251C194.596 94.1646 193.957 92.724 193.797 91.4434C193.157 86.6413 197.794 81.0388 202.751 81.0388C210.746 81.0388 206.749 91.4434 203.071 94.4848ZM225.776 72.8752C221.139 63.9112 210.266 61.9903 201.152 63.9112C193.957 65.3518 188.52 69.1935 184.043 73.8356C181.005 76.8769 178.607 80.5586 176.688 84.5604C175.888 86.3211 175.249 88.0819 174.609 90.0028C173.65 93.0441 173.01 96.2456 172.85 99.447C172.371 104.569 174.929 111.772 179.566 114.654C183.883 117.215 188.84 118.335 193.797 118.495C215.383 118.656 236.809 94.0046 225.776 72.8752Z" fill="#F49AC1"/>
<path d="M203.071 94.4848C202.911 94.6449 202.591 94.8049 202.431 94.965C200.353 96.0855 197.634 96.5657 195.716 95.1251C194.596 94.1646 193.957 92.724 193.797 91.4434C193.157 86.6413 197.794 81.0388 202.751 81.0388C210.746 81.0388 206.748 91.4434 203.071 94.4848ZM225.776 72.8752C221.139 63.9112 210.266 61.9903 201.152 63.9112C193.957 65.3518 188.52 69.1935 184.043 73.8356C181.005 76.8769 178.607 80.5586 176.688 84.5604C175.888 86.3211 175.249 88.0819 174.609 90.0028C173.65 93.0441 173.01 96.2456 172.85 99.447C172.371 104.569 174.929 111.772 179.566 114.654C183.883 117.215 188.84 118.335 193.797 118.495C215.383 118.656 236.809 94.0046 225.776 72.8752Z" stroke="black" stroke-width="1.39408" stroke-miterlimit="10" stroke-linecap="round" stroke-linejoin="round"/>
<path d="M271.983 116.576C272.943 116.576 274.062 116.256 274.542 115.455C275.341 114.495 275.021 113.054 274.861 111.774C273.262 104.73 271.504 97.6873 269.265 90.8043C267.826 86.3223 269.745 85.682 272.783 82.6406C277.58 77.8385 283.016 73.8367 287.653 68.7145C288.613 67.594 289.572 65.8332 287.813 64.7127C287.014 64.2325 285.894 64.0724 284.935 64.0724C279.978 64.0724 275.021 63.9123 270.065 63.9123C269.265 63.9123 268.306 63.9123 267.506 64.2325C266.387 64.7127 265.587 65.513 264.788 66.4735C263.829 67.5939 259.511 74.3169 258.072 73.5166C256.793 72.7162 257.113 67.1137 256.953 65.6731C256.793 65.0328 256.793 64.2325 256.153 63.7522C255.674 63.272 254.874 63.272 254.235 63.272C248.638 62.9519 243.042 63.112 237.445 63.5922C236.806 63.5922 236.006 63.7522 235.367 64.0724C234.248 64.7127 234.248 66.1533 234.567 67.4339C236.166 73.5166 237.925 79.5993 239.524 85.682C239.844 86.8025 240.164 87.7629 239.844 88.8834C239.524 90.164 238.725 91.2845 237.765 92.2449C234.248 96.0866 230.73 99.9283 227.212 103.93C224.334 107.132 220.656 110.333 218.258 113.855C217.778 114.655 217.618 115.615 218.258 116.256C219.057 116.896 219.857 116.896 220.656 116.896C224.814 117.056 228.811 117.056 232.968 117.216C234.248 117.216 235.687 117.216 236.806 116.736C238.085 116.096 238.885 114.975 239.844 113.855C242.083 110.973 244.801 108.412 247.679 106.171C248.159 109.052 248.798 111.934 249.278 114.815C249.438 115.295 249.438 115.935 249.917 116.256C250.397 116.736 251.037 116.736 251.676 116.736C258.232 116.736 264.788 116.256 271.184 116.576C271.504 116.576 271.664 116.576 271.983 116.576Z" fill="#F49AC1"/>
<path d="M271.983 116.576C272.943 116.576 274.062 116.256 274.542 115.455C275.341 114.495 275.021 113.054 274.861 111.774C273.262 104.73 271.504 97.6873 269.265 90.8043C267.826 86.3223 269.745 85.682 272.783 82.6406C277.58 77.8385 283.016 73.8367 287.653 68.7145C288.613 67.594 289.572 65.8332 287.813 64.7127C287.014 64.2325 285.894 64.0724 284.935 64.0724C279.978 64.0724 275.021 63.9123 270.065 63.9123C269.265 63.9123 268.306 63.9123 267.506 64.2325C266.387 64.7127 265.587 65.513 264.788 66.4735C263.829 67.5939 259.511 74.3169 258.072 73.5166C256.793 72.7162 257.113 67.1137 256.953 65.6731C256.793 65.0328 256.793 64.2325 256.153 63.7522C255.674 63.272 254.874 63.272 254.235 63.272C248.638 62.9519 243.042 63.112 237.445 63.5922C236.806 63.5922 236.006 63.7522 235.367 64.0724C234.248 64.7127 234.248 66.1533 234.567 67.4339C236.166 73.5166 237.925 79.5993 239.524 85.682C239.844 86.8025 240.164 87.7629 239.844 88.8834C239.524 90.164 238.725 91.2845 237.765 92.2449C234.248 96.0866 230.73 99.9283 227.212 103.93C224.334 107.132 220.656 110.333 218.258 113.855C217.778 114.655 217.618 115.615 218.258 116.256C219.057 116.896 219.857 116.896 220.656 116.896C224.814 117.056 228.811 117.056 232.968 117.216C234.248 117.216 235.687 117.216 236.806 116.736C238.085 116.096 238.885 114.975 239.844 113.855C242.082 110.973 244.801 108.412 247.679 106.171C248.159 109.052 248.798 111.934 249.278 114.815C249.438 115.295 249.438 115.935 249.917 116.256C250.397 116.736 251.037 116.736 251.676 116.736C258.232 116.736 264.788 116.256 271.184 116.576C271.504 116.576 271.664 116.576 271.983 116.576Z" stroke="black" stroke-width="1.39408" stroke-miterlimit="10" stroke-linecap="round" stroke-linejoin="round"/>
<path d="M282.699 176.442C276.623 178.523 275.824 171 280.621 168.919C282.54 168.119 286.697 166.678 287.976 169.239C289.415 172.28 285.098 175.642 282.699 176.442ZM316.118 141.707C313.72 139.466 310.202 138.345 306.844 137.865C300.768 137.065 292.933 137.865 287.496 140.906C283.819 142.827 280.141 146.029 278.382 149.87C278.062 150.671 277.743 151.631 278.222 152.432C278.702 153.232 279.821 153.392 280.781 153.392C283.339 153.552 285.897 153.552 288.456 153.712C289.095 153.712 289.735 153.712 290.375 153.552C292.933 152.912 296.77 148.11 299.649 151.631C300.448 152.752 300.128 154.352 299.329 155.473C298.369 156.433 297.09 157.074 295.811 157.394C289.735 158.994 283.339 157.554 277.263 158.994C272.626 160.115 268.628 163.156 265.75 166.838C261.273 172.601 258.075 181.244 262.712 187.807C267.189 194.21 277.583 193.09 283.979 190.849C284.778 190.528 285.578 190.208 286.537 189.888C289.735 188.287 298.529 178.363 300.928 175.962C300.608 177.883 294.692 187.487 294.532 189.248C294.532 189.568 294.532 189.888 294.532 190.208C294.852 190.689 295.331 190.689 295.971 190.689C300.448 190.689 303.966 190.689 308.443 190.528C308.923 190.528 309.242 190.528 309.562 190.208C309.882 190.048 310.042 189.568 310.202 189.248C311.641 186.046 311.321 184.286 313.24 178.683C315.478 172.28 316.758 168.759 318.037 163.797C319.796 156.273 322.514 147.789 316.118 141.707Z" fill="#F49AC1"/>
<path d="M282.699 176.442C276.623 178.523 275.824 171 280.621 168.919C282.54 168.119 286.697 166.678 287.976 169.239C289.415 172.28 285.098 175.642 282.699 176.442ZM316.118 141.707C313.72 139.466 310.202 138.345 306.844 137.865C300.768 137.065 292.933 137.865 287.496 140.906C283.819 142.827 280.141 146.029 278.382 149.87C278.062 150.671 277.743 151.631 278.222 152.432C278.702 153.232 279.821 153.392 280.781 153.392C283.339 153.552 285.897 153.552 288.456 153.712C289.095 153.712 289.735 153.712 290.375 153.552C292.933 152.912 296.77 148.11 299.649 151.631C300.448 152.752 300.128 154.352 299.329 155.473C298.369 156.433 297.09 157.074 295.811 157.394C289.735 158.994 283.339 157.554 277.263 158.994C272.626 160.115 268.628 163.156 265.75 166.838C261.273 172.601 258.075 181.244 262.712 187.807C267.189 194.21 277.583 193.09 283.979 190.849C284.778 190.528 285.578 190.208 286.537 189.888C289.735 188.287 298.529 178.363 300.928 175.962C300.608 177.883 294.692 187.487 294.532 189.248C294.532 189.568 294.532 189.888 294.532 190.208C294.852 190.689 295.331 190.689 295.971 190.689C300.448 190.689 303.966 190.689 308.443 190.528C308.923 190.528 309.242 190.528 309.562 190.208C309.882 190.048 310.042 189.568 310.202 189.248C311.641 186.046 311.321 184.286 313.24 178.683C315.478 172.28 316.758 168.759 318.037 163.797C319.796 156.273 322.514 147.789 316.118 141.707Z" stroke="black" stroke-width="1.39408" stroke-miterlimit="10" stroke-linecap="round" stroke-linejoin="round"/>
<path d="M178.126 160.115C177.806 164.437 174.608 168.599 169.971 168.759C169.011 168.759 168.052 168.599 167.253 168.118C166.133 167.318 165.814 166.037 165.814 164.597C165.814 162.356 166.773 160.115 168.052 158.514C169.811 156.273 172.529 154.832 175.407 155.793C177.326 156.433 178.126 158.194 178.126 160.115ZM140.39 194.05C138.311 198.692 138.471 204.775 140.71 209.257C145.826 219.501 163.575 219.821 173.009 216.78C186.12 212.618 191.077 199.012 195.554 187.327C199.232 177.563 201.79 167.318 205.148 157.394C206.108 154.672 211.064 141.867 208.826 140.266C208.186 139.786 207.387 139.786 206.587 139.626C203.549 139.466 200.671 139.145 197.633 138.985C196.354 138.825 195.075 138.825 194.115 139.466C192.836 140.266 192.356 141.867 191.877 143.147C191.397 144.748 190.758 146.189 190.118 147.789C189.958 148.109 189.798 148.59 189.478 148.59C188.999 148.75 188.359 148.43 188.199 147.949C188.039 147.469 188.039 146.829 188.039 146.349C187.719 139.626 180.364 138.985 175.247 139.946C169.331 141.066 163.895 144.588 159.737 148.75C155.42 153.232 152.222 158.834 150.303 164.757C147.745 172.76 146.466 186.206 156.699 188.928C161.496 190.208 168.372 188.928 172.209 185.726C174.288 183.965 176.047 181.885 177.966 180.124C180.844 177.563 178.925 183.005 178.445 183.965C177.006 187.167 175.088 190.048 172.849 192.769C171.41 194.37 169.811 195.971 167.892 196.931C164.374 198.692 158.298 199.012 156.859 194.21C156.699 193.89 156.699 193.57 156.539 193.41C155.58 192.609 151.902 192.929 150.783 192.769C147.905 192.609 145.027 192.609 142.309 192.769C141.989 192.769 141.509 192.769 141.189 193.089C140.71 193.41 140.55 193.73 140.39 194.05Z" fill="#F49AC1"/>
<path d="M178.126 160.115C177.806 164.437 174.608 168.599 169.971 168.759C169.011 168.759 168.052 168.599 167.253 168.118C166.133 167.318 165.814 166.037 165.814 164.597C165.814 162.356 166.773 160.115 168.052 158.514C169.811 156.273 172.529 154.832 175.407 155.793C177.326 156.433 178.126 158.194 178.126 160.115ZM140.39 194.05C138.311 198.692 138.471 204.775 140.71 209.257C145.826 219.501 163.575 219.821 173.009 216.78C186.12 212.618 191.077 199.012 195.554 187.327C199.232 177.563 201.79 167.318 205.148 157.394C206.108 154.672 211.064 141.867 208.826 140.266C208.186 139.786 207.387 139.786 206.587 139.626C203.549 139.466 200.671 139.145 197.633 138.985C196.354 138.825 195.075 138.825 194.115 139.466C192.836 140.266 192.356 141.867 191.877 143.147C191.397 144.748 190.758 146.189 190.118 147.789C189.958 148.109 189.798 148.59 189.478 148.59C188.999 148.75 188.359 148.43 188.199 147.949C188.039 147.469 188.039 146.829 188.039 146.349C187.719 139.626 180.364 138.985 175.247 139.946C169.331 141.066 163.895 144.588 159.737 148.75C155.42 153.232 152.222 158.834 150.303 164.757C147.745 172.76 146.466 186.206 156.699 188.928C161.496 190.208 168.372 188.928 172.209 185.726C174.288 183.965 176.047 181.885 177.966 180.124C180.844 177.563 178.925 183.005 178.445 183.965C177.006 187.167 175.088 190.048 172.849 192.769C171.41 194.37 169.811 195.971 167.892 196.931C164.374 198.692 158.298 199.012 156.859 194.21C156.699 193.89 156.699 193.57 156.539 193.41C155.58 192.609 151.902 192.929 150.783 192.769C147.905 192.609 145.027 192.609 142.309 192.769C141.989 192.769 141.509 192.769 141.189 193.089C140.71 193.41 140.55 193.73 140.39 194.05Z" stroke="black" stroke-width="1.39408" stroke-miterlimit="10" stroke-linecap="round" stroke-linejoin="round"/>
<path d="M153.659 141.546C153.659 141.385 153.499 141.385 153.499 141.225C153.02 140.745 152.22 140.585 151.421 140.585C148.223 140.425 144.545 140.265 141.347 140.105C140.068 140.105 138.629 139.945 137.67 140.745C136.87 141.385 136.39 142.346 136.071 143.466C133.033 151.63 129.995 159.954 127.276 168.277C125.837 172.439 124.558 176.601 123.279 180.763C122.639 182.844 119.281 188.606 120.88 190.687C121.52 191.488 122.639 191.648 123.599 191.648C127.436 191.648 131.753 191.808 135.591 191.808C138.789 191.808 139.588 185.245 140.228 182.844C141.507 178.362 143.106 173.72 144.385 169.398C146.144 163.635 148.383 158.033 150.142 152.43C151.101 149.709 151.9 146.988 153.18 144.587C153.499 143.626 154.139 142.506 153.659 141.546Z" fill="#F49AC1"/>
<path d="M153.659 141.546C153.659 141.385 153.499 141.385 153.499 141.225C153.02 140.745 152.22 140.585 151.421 140.585C148.223 140.425 144.545 140.265 141.347 140.105C140.068 140.105 138.629 139.945 137.67 140.745C136.87 141.385 136.39 142.346 136.071 143.466C133.033 151.63 129.995 159.954 127.276 168.277C125.837 172.439 124.558 176.601 123.279 180.763C122.639 182.844 119.281 188.606 120.88 190.687C121.52 191.488 122.639 191.648 123.599 191.648C127.436 191.648 131.753 191.808 135.591 191.808C138.789 191.808 139.588 185.245 140.228 182.844C141.507 178.362 143.106 173.72 144.385 169.398C146.144 163.635 148.383 158.033 150.142 152.43C151.101 149.709 151.9 146.988 153.18 144.587C153.499 143.626 154.139 142.506 153.659 141.546Z" stroke="black" stroke-width="1.39408" stroke-miterlimit="10" stroke-linecap="round" stroke-linejoin="round"/>
<path d="M163.578 119.456C163.258 118.015 162.619 116.735 161.659 115.774C154.464 107.29 136.875 112.733 137.675 126.659C137.995 131.141 140.873 134.823 144.71 136.103C153.345 138.824 165.497 130.021 163.578 119.456Z" fill="#F49AC1"/>
<path d="M163.578 119.456C163.258 118.015 162.619 116.735 161.659 115.774C154.464 107.29 136.875 112.733 137.675 126.659C137.995 131.141 140.873 134.823 144.71 136.103C153.345 138.824 165.497 130.021 163.578 119.456Z" stroke="black" stroke-width="1.39408" stroke-miterlimit="10" stroke-linecap="round" stroke-linejoin="round"/>
<path d="M234.413 141.546C234.413 141.385 234.253 141.385 234.253 141.225C233.773 140.745 232.974 140.585 232.174 140.585C228.976 140.425 225.299 140.265 222.101 140.105C220.822 140.105 219.383 139.945 218.423 140.745C217.624 141.385 217.144 142.346 216.824 143.466C213.786 151.63 210.748 159.954 208.03 168.277C206.591 172.439 205.312 176.601 204.032 180.763C203.393 182.844 200.195 188.606 201.634 190.687C202.274 191.488 203.393 191.648 204.352 191.648C208.19 191.648 212.507 191.808 216.345 191.808C219.542 191.808 220.342 185.245 220.982 182.844C222.261 178.362 223.86 173.72 225.139 169.398C226.898 163.635 229.136 158.033 230.895 152.43C231.855 149.709 232.654 146.988 233.933 144.587C234.413 143.626 234.893 142.506 234.413 141.546Z" fill="#F49AC1"/>
<path d="M234.413 141.546C234.413 141.385 234.253 141.385 234.253 141.225C233.773 140.745 232.974 140.585 232.174 140.585C228.976 140.425 225.299 140.265 222.101 140.105C220.822 140.105 219.383 139.945 218.423 140.745C217.624 141.385 217.144 142.346 216.824 143.466C213.786 151.63 210.748 159.954 208.03 168.277C206.591 172.439 205.312 176.601 204.032 180.763C203.393 182.844 200.195 188.606 201.634 190.687C202.274 191.488 203.393 191.648 204.352 191.648C208.19 191.648 212.507 191.808 216.345 191.808C219.542 191.808 220.342 185.245 220.982 182.844C222.261 178.362 223.86 173.72 225.139 169.398C226.898 163.635 229.136 158.033 230.895 152.43C231.855 149.709 232.654 146.988 233.933 144.587C234.413 143.626 234.893 142.506 234.413 141.546Z" stroke="black" stroke-width="1.39408" stroke-miterlimit="10" stroke-linecap="round" stroke-linejoin="round"/>
<path d="M244.324 119.456C244.005 118.015 243.365 116.735 242.406 115.774C235.21 107.29 217.621 112.733 218.421 126.659C218.741 131.141 221.619 134.823 225.456 136.103C234.091 138.824 246.243 130.021 244.324 119.456Z" fill="#F49AC1"/>
<path d="M244.324 119.456C244.005 118.015 243.365 116.735 242.406 115.774C235.21 107.29 217.621 112.733 218.421 126.659C218.741 131.141 221.619 134.823 225.456 136.103C234.091 138.824 246.243 130.021 244.324 119.456Z" stroke="black" stroke-width="1.39408" stroke-miterlimit="10" stroke-linecap="round" stroke-linejoin="round"/>
<path d="M95.6205 166.998C92.9022 168.438 87.6256 169.079 84.7474 168.438C84.5875 168.438 84.5875 168.438 84.4276 168.438C84.1078 168.278 93.3819 141.866 94.1814 139.785C94.3413 139.465 94.5012 138.985 94.821 138.825C95.3007 138.505 95.7804 138.665 96.26 138.665C98.1788 138.825 100.257 138.665 101.856 139.465C106.174 141.706 105.534 145.868 104.575 150.19C103.296 155.472 98.9783 165.237 95.6205 166.998ZM127.28 133.703C125.841 129.221 122.803 125.539 117.367 123.298C113.369 121.697 107.933 121.217 103.615 120.897C97.6991 120.577 93.3819 120.417 87.4657 120.737C84.4276 120.897 81.2297 120.097 78.3515 121.377C74.514 123.138 73.5546 127.62 72.2754 131.142C70.6765 136.264 68.5978 141.066 66.8389 146.028C62.042 159.474 57.405 172.92 52.9278 186.526C50.0497 195.17 63.641 192.449 67.7983 192.449C76.4328 192.289 85.2271 192.769 93.8616 191.168C100.577 189.888 106.813 186.526 112.09 182.044C117.686 177.082 120.564 172.12 123.283 165.237C126.8 156.593 130.478 143.307 127.28 133.703Z" fill="#F49AC1"/>
<path d="M95.6205 166.998C92.9022 168.438 87.6256 169.079 84.7474 168.438C84.5875 168.438 84.5875 168.438 84.4276 168.438C84.1078 168.278 93.3819 141.866 94.1814 139.785C94.3413 139.465 94.5012 138.985 94.821 138.825C95.3007 138.505 95.7804 138.665 96.26 138.665C98.1788 138.825 100.257 138.665 101.856 139.465C106.174 141.706 105.534 145.868 104.575 150.19C103.296 155.472 98.9783 165.237 95.6205 166.998ZM127.28 133.703C125.841 129.221 122.803 125.539 117.367 123.298C113.369 121.697 107.933 121.217 103.615 120.897C97.6991 120.577 93.3819 120.417 87.4657 120.737C84.4276 120.897 81.2297 120.097 78.3515 121.377C74.514 123.138 73.5546 127.62 72.2754 131.142C70.6765 136.264 68.5978 141.066 66.8389 146.028C62.042 159.474 57.405 172.92 52.9278 186.526C50.0497 195.17 63.641 192.449 67.7983 192.449C76.4328 192.289 85.2271 192.769 93.8616 191.168C100.577 189.888 106.813 186.526 112.09 182.044C117.686 177.082 120.564 172.12 123.283 165.237C126.8 156.593 130.478 143.307 127.28 133.703Z" stroke="black" stroke-width="1.39408" stroke-miterlimit="10" stroke-linecap="round" stroke-linejoin="round"/>
</g>
<defs>
<clipPath id="clip0">
<rect width="374" height="256.914" fill="white" transform="translate(0 0.0429688)"/>
</clipPath>
</defs>
</svg>
