<svg viewBox="0 0 414 2952" fill="none" xmlns="http://www.w3.org/2000/svg">
<line x1="19.5" y1="0.5" x2="19.4999" y2="3259.5" stroke="black" stroke-linecap="round" stroke-dasharray="0.5 3"/>
<line x1="66.5" y1="0.5" x2="66.4999" y2="3259.5" stroke="black" stroke-linecap="round" stroke-dasharray="0.5 3"/>
<line x1="113.5" y1="0.5" x2="113.5" y2="3259.5" stroke="black" stroke-linecap="round" stroke-dasharray="0.5 3"/>
<line x1="160.5" y1="0.5" x2="160.5" y2="3259.5" stroke="black" stroke-linecap="round" stroke-dasharray="0.5 3"/>
<line x1="207.5" y1="0.5" x2="207.5" y2="3259.5" stroke="black" stroke-linecap="round" stroke-dasharray="0.5 3"/>
<line x1="254.5" y1="0.5" x2="254.5" y2="3259.5" stroke="black" stroke-linecap="round" stroke-dasharray="0.5 3"/>
<line x1="301.5" y1="0.5" x2="301.5" y2="3259.5" stroke="black" stroke-linecap="round" stroke-dasharray="0.5 3"/>
<line x1="348.5" y1="0.5" x2="348.5" y2="3259.5" stroke="black" stroke-linecap="round" stroke-dasharray="0.5 3"/>
<line x1="395.5" y1="0.5" x2="395.5" y2="3259.5" stroke="black" stroke-linecap="round" stroke-dasharray="0.5 3"/>
<line x1="0.5" y1="20.5" x2="413.5" y2="20.5" stroke="black" stroke-linecap="round" stroke-dasharray="0.5 3"/>
<line x1="0.5" y1="65.5" x2="413.5" y2="65.5" stroke="black" stroke-linecap="round" stroke-dasharray="0.5 3"/>
<line x1="0.5" y1="110.5" x2="413.5" y2="110.5" stroke="black" stroke-linecap="round" stroke-dasharray="0.5 3"/>
<line x1="0.5" y1="155.5" x2="413.5" y2="155.5" stroke="black" stroke-linecap="round" stroke-dasharray="0.5 3"/>
<line x1="0.5" y1="200.5" x2="413.5" y2="200.5" stroke="black" stroke-linecap="round" stroke-dasharray="0.5 3"/>
<line x1="0.5" y1="245.5" x2="413.5" y2="245.5" stroke="black" stroke-linecap="round" stroke-dasharray="0.5 3"/>
<line x1="0.5" y1="290.5" x2="413.5" y2="290.5" stroke="black" stroke-linecap="round" stroke-dasharray="0.5 3"/>
<line x1="0.5" y1="335.5" x2="413.5" y2="335.5" stroke="black" stroke-linecap="round" stroke-dasharray="0.5 3"/>
<line x1="0.5" y1="380.5" x2="413.5" y2="380.5" stroke="black" stroke-linecap="round" stroke-dasharray="0.5 3"/>
<line x1="0.5" y1="425.5" x2="413.5" y2="425.5" stroke="black" stroke-linecap="round" stroke-dasharray="0.5 3"/>
<line x1="0.5" y1="470.5" x2="413.5" y2="470.5" stroke="black" stroke-linecap="round" stroke-dasharray="0.5 3"/>
<line x1="0.5" y1="515.5" x2="413.5" y2="515.5" stroke="black" stroke-linecap="round" stroke-dasharray="0.5 3"/>
<line x1="0.5" y1="560.5" x2="413.5" y2="560.5" stroke="black" stroke-linecap="round" stroke-dasharray="0.5 3"/>
<line x1="0.5" y1="605.5" x2="413.5" y2="605.5" stroke="black" stroke-linecap="round" stroke-dasharray="0.5 3"/>
<line x1="0.5" y1="650.5" x2="413.5" y2="650.5" stroke="black" stroke-linecap="round" stroke-dasharray="0.5 3"/>
<line x1="0.5" y1="695.5" x2="413.5" y2="695.5" stroke="black" stroke-linecap="round" stroke-dasharray="0.5 3"/>
<line x1="0.5" y1="740.5" x2="413.5" y2="740.5" stroke="black" stroke-linecap="round" stroke-dasharray="0.5 3"/>
<line x1="0.5" y1="785.5" x2="413.5" y2="785.5" stroke="black" stroke-linecap="round" stroke-dasharray="0.5 3"/>
<line x1="0.5" y1="830.5" x2="413.5" y2="830.5" stroke="black" stroke-linecap="round" stroke-dasharray="0.5 3"/>
<line x1="0.5" y1="875.5" x2="413.5" y2="875.5" stroke="black" stroke-linecap="round" stroke-dasharray="0.5 3"/>
<line x1="0.5" y1="920.5" x2="413.5" y2="920.5" stroke="black" stroke-linecap="round" stroke-dasharray="0.5 3"/>
<line x1="0.5" y1="965.5" x2="413.5" y2="965.5" stroke="black" stroke-linecap="round" stroke-dasharray="0.5 3"/>
<line x1="0.5" y1="1010.5" x2="413.5" y2="1010.5" stroke="black" stroke-linecap="round" stroke-dasharray="0.5 3"/>
<line x1="0.5" y1="1055.5" x2="413.5" y2="1055.5" stroke="black" stroke-linecap="round" stroke-dasharray="0.5 3"/>
<line x1="0.5" y1="1100.5" x2="413.5" y2="1100.5" stroke="black" stroke-linecap="round" stroke-dasharray="0.5 3"/>
<line x1="0.5" y1="1145.5" x2="413.5" y2="1145.5" stroke="black" stroke-linecap="round" stroke-dasharray="0.5 3"/>
<line x1="0.5" y1="1190.5" x2="413.5" y2="1190.5" stroke="black" stroke-linecap="round" stroke-dasharray="0.5 3"/>
<line x1="0.5" y1="1235.5" x2="413.5" y2="1235.5" stroke="black" stroke-linecap="round" stroke-dasharray="0.5 3"/>
<line x1="0.5" y1="1280.5" x2="413.5" y2="1280.5" stroke="black" stroke-linecap="round" stroke-dasharray="0.5 3"/>
<line x1="0.5" y1="1325.5" x2="413.5" y2="1325.5" stroke="black" stroke-linecap="round" stroke-dasharray="0.5 3"/>
<line x1="0.5" y1="1370.5" x2="413.5" y2="1370.5" stroke="black" stroke-linecap="round" stroke-dasharray="0.5 3"/>
<line x1="0.5" y1="1415.5" x2="413.5" y2="1415.5" stroke="black" stroke-linecap="round" stroke-dasharray="0.5 3"/>
<line x1="0.5" y1="1460.5" x2="413.5" y2="1460.5" stroke="black" stroke-linecap="round" stroke-dasharray="0.5 3"/>
<line x1="0.5" y1="1505.5" x2="413.5" y2="1505.5" stroke="black" stroke-linecap="round" stroke-dasharray="0.5 3"/>
<line x1="0.5" y1="1550.5" x2="413.5" y2="1550.5" stroke="black" stroke-linecap="round" stroke-dasharray="0.5 3"/>
<line x1="0.5" y1="1595.5" x2="413.5" y2="1595.5" stroke="black" stroke-linecap="round" stroke-dasharray="0.5 3"/>
<line x1="0.5" y1="1640.5" x2="413.5" y2="1640.5" stroke="black" stroke-linecap="round" stroke-dasharray="0.5 3"/>
<line x1="0.5" y1="1685.5" x2="413.5" y2="1685.5" stroke="black" stroke-linecap="round" stroke-dasharray="0.5 3"/>
<line x1="0.5" y1="1730.5" x2="413.5" y2="1730.5" stroke="black" stroke-linecap="round" stroke-dasharray="0.5 3"/>
<line x1="0.5" y1="1775.5" x2="413.5" y2="1775.5" stroke="black" stroke-linecap="round" stroke-dasharray="0.5 3"/>
<line x1="0.5" y1="1820.5" x2="413.5" y2="1820.5" stroke="black" stroke-linecap="round" stroke-dasharray="0.5 3"/>
<line x1="0.5" y1="1865.5" x2="413.5" y2="1865.5" stroke="black" stroke-linecap="round" stroke-dasharray="0.5 3"/>
<line x1="0.5" y1="1910.5" x2="413.5" y2="1910.5" stroke="black" stroke-linecap="round" stroke-dasharray="0.5 3"/>
<line x1="0.5" y1="1955.5" x2="413.5" y2="1955.5" stroke="black" stroke-linecap="round" stroke-dasharray="0.5 3"/>
<line x1="0.5" y1="2000.5" x2="413.5" y2="2000.5" stroke="black" stroke-linecap="round" stroke-dasharray="0.5 3"/>
<line x1="0.5" y1="2045.5" x2="413.5" y2="2045.5" stroke="black" stroke-linecap="round" stroke-dasharray="0.5 3"/>
<line x1="0.5" y1="2090.5" x2="413.5" y2="2090.5" stroke="black" stroke-linecap="round" stroke-dasharray="0.5 3"/>
<line x1="0.5" y1="2135.5" x2="413.5" y2="2135.5" stroke="black" stroke-linecap="round" stroke-dasharray="0.5 3"/>
<line x1="0.5" y1="2180.5" x2="413.5" y2="2180.5" stroke="black" stroke-linecap="round" stroke-dasharray="0.5 3"/>
<line x1="0.5" y1="2225.5" x2="413.5" y2="2225.5" stroke="black" stroke-linecap="round" stroke-dasharray="0.5 3"/>
<line x1="0.5" y1="2270.5" x2="413.5" y2="2270.5" stroke="black" stroke-linecap="round" stroke-dasharray="0.5 3"/>
<line x1="0.5" y1="2315.5" x2="413.5" y2="2315.5" stroke="black" stroke-linecap="round" stroke-dasharray="0.5 3"/>
<line x1="0.5" y1="2360.5" x2="413.5" y2="2360.5" stroke="black" stroke-linecap="round" stroke-dasharray="0.5 3"/>
<line x1="0.5" y1="2405.5" x2="413.5" y2="2405.5" stroke="black" stroke-linecap="round" stroke-dasharray="0.5 3"/>
<line x1="0.5" y1="2450.5" x2="413.5" y2="2450.5" stroke="black" stroke-linecap="round" stroke-dasharray="0.5 3"/>
<line x1="0.5" y1="2495.5" x2="413.5" y2="2495.5" stroke="black" stroke-linecap="round" stroke-dasharray="0.5 3"/>
<line x1="0.5" y1="2540.5" x2="413.5" y2="2540.5" stroke="black" stroke-linecap="round" stroke-dasharray="0.5 3"/>
<line x1="0.5" y1="2585.5" x2="413.5" y2="2585.5" stroke="black" stroke-linecap="round" stroke-dasharray="0.5 3"/>
<line x1="0.5" y1="2630.5" x2="413.5" y2="2630.5" stroke="black" stroke-linecap="round" stroke-dasharray="0.5 3"/>
<line x1="0.5" y1="2675.5" x2="413.5" y2="2675.5" stroke="black" stroke-linecap="round" stroke-dasharray="0.5 3"/>
<line x1="0.5" y1="2720.5" x2="413.5" y2="2720.5" stroke="black" stroke-linecap="round" stroke-dasharray="0.5 3"/>
<line x1="0.5" y1="2765.5" x2="413.5" y2="2765.5" stroke="black" stroke-linecap="round" stroke-dasharray="0.5 3"/>
<line x1="0.5" y1="2810.5" x2="413.5" y2="2810.5" stroke="black" stroke-linecap="round" stroke-dasharray="0.5 3"/>
<line x1="0.5" y1="2855.5" x2="413.5" y2="2855.5" stroke="black" stroke-linecap="round" stroke-dasharray="0.5 3"/>
<line x1="0.5" y1="2900.5" x2="413.5" y2="2900.5" stroke="black" stroke-linecap="round" stroke-dasharray="0.5 3"/>
<line x1="0.5" y1="2945.5" x2="413.5" y2="2945.5" stroke="black" stroke-linecap="round" stroke-dasharray="0.5 3"/>
</svg>
