<svg width="425" height="1062" viewBox="0 0 425 1062" fill="none" xmlns="http://www.w3.org/2000/svg">
<path d="M300.407 128.225C234.907 50.0587 100.807 -73.0747 88.4075 59.7253C72.9075 225.725 352.907 191.226 407.907 261.226C462.907 331.226 359.909 388.726 314.909 414.226C269.909 439.726 203.409 425.226 238.909 350.726C274.409 276.226 86.4091 152.726 105.909 430.226C125.409 707.726 167.407 558.226 202.907 567.226C238.407 576.226 396.407 578.726 366.907 629.726C337.407 680.726 184.409 563.226 105.909 585.226C27.4091 607.226 -7.09091 609.226 24.9091 673.726C56.9091 738.226 247.507 881.253 290.909 821.726C325.906 773.726 262.908 737.726 209.909 720.226C90.0339 680.643 -34.5908 637.226 10.4088 739.726C54.7751 840.783 187.909 899.726 259.909 941.226C331.909 982.726 354.409 995.226 352.909 1061.23" stroke="black" stroke-width="1.5"/>
</svg>
