<svg width="800" height="286" viewBox="0 0 800 286" fill="none" xmlns="http://www.w3.org/2000/svg">
<g clip-path="url(#clip0)">
<path d="M418.229 148.491V118.164V111.26H425.145H434.337V95.4414H407.023V148.491H418.229Z" fill="#F2F4F6"/>
<path d="M588.941 91.9458V66.6011V62.2313V53.2296H606.362V20.8932C606.362 16.1738 610.214 12.3284 614.942 12.3284H625.359V2.4527C613.016 -0.955727 599.534 -0.868329 586.49 3.41406C569.068 9.18217 555.499 21.4176 547.795 36.6244C547.445 37.2362 547.182 37.8479 546.832 38.4597C545.256 41.4312 543.155 43.9656 540.879 46.0631V91.9458H588.941Z" fill="#F2F4F6"/>
<path d="M259.073 78.4866C256.622 77.5252 254.959 75.1655 254.959 72.4563C254.959 69.6596 256.71 67.3873 259.073 66.426V65.989H261.437H314.139V12.0659C301.27 11.8911 291.29 10.755 290.765 10.755C234.473 5.8608 183.26 40.3821 165.488 92.0329H259.073V78.4866Z" fill="#F2F4F6"/>
<path d="M404.66 65.9895H407.024V66.4265C409.475 67.3878 411.138 69.7475 411.138 72.4568C411.138 75.2534 409.387 77.5257 407.024 78.4871V91.946H434.25V14.3387V7.43441H441.166H444.493V7.08483C436.088 4.11337 427.246 2.01588 418.054 0.879738C401.246 -1.13036 384.875 0.355364 369.642 4.81254C363.777 6.56045 347.406 10.668 331.123 11.7168C330.16 11.8042 329.109 11.8042 328.146 11.8916V65.9895H404.66Z" fill="#F2F4F6"/>
<path d="M556.987 235.1C562.502 227.234 566.88 218.669 570.119 209.58H556.987V235.1Z" fill="#F2F4F6"/>
<path d="M248.48 116.591H250.494V116.94C252.595 117.727 254.083 119.737 254.083 122.097C254.083 124.457 252.595 126.467 250.494 127.253V148.403H259.073V95.3538H164.35C163.649 97.5387 163.037 99.7235 162.511 101.908V116.416H248.48V116.591Z" fill="#F2F4F6"/>
<path d="M540.879 95.4414V111.26H550.071H556.987V118.164V205.997H571.432C573.095 202.676 575.984 200.578 578.436 200.229C582.2 199.704 585.439 201.19 587.803 203.637C588.153 203.987 588.591 204.424 588.941 204.773V95.4414H540.879Z" fill="#F2F4F6"/>
<path d="M411.226 72.4568C411.226 69.6601 409.475 67.3878 407.111 66.4265V65.9895H404.748H328.321V91.946H407.199V78.4871C409.475 77.6131 411.226 75.2534 411.226 72.4568Z" fill="#E1EAED"/>
<path d="M441.166 7.43406H434.25V14.3383V92.033H479.773V26.8359C469.355 18.4459 457.449 11.7164 444.493 7.08447V7.43406H441.166Z" fill="#E1EAED"/>
<path d="M630.087 214.213C633.676 213.077 636.915 211.504 639.892 209.494H594.806C604.961 216.136 617.83 218.233 630.087 214.213Z" fill="#E1EAED"/>
<path d="M493.955 209.58V280.371C510.938 277.487 526.171 268.922 537.464 256.512C537.552 256.424 537.552 256.424 537.639 256.337C545.081 250.132 551.559 242.965 557.074 235.1V209.58H493.955Z" fill="#E1EAED"/>
<path d="M328.233 209.58V242.791C329.371 242.266 330.509 241.829 331.648 241.305C332.173 241.043 333.311 240.606 334.974 239.994C355.547 232.653 378.309 237.722 394.329 252.492C415.953 272.593 445.368 283.342 475.571 281.245C475.658 281.245 475.746 281.245 475.833 281.245C477.234 281.332 478.547 281.42 479.948 281.42V209.58H328.233Z" fill="#E1EAED"/>
<path d="M659.589 112.134C661.165 108.813 662.741 105.841 664.229 103.482C665.892 100.86 667.381 98.2381 668.694 95.4414H659.589V112.134Z" fill="#E1EAED"/>
<path d="M434.337 111.26H425.145H418.229V118.164V148.491H407.023V95.4414H328.233V205.997H479.86V95.4414H434.337V111.26Z" fill="#E1EAED"/>
<path d="M556.987 111.26H550.071H540.878V95.4414H493.955V205.997H556.987V118.164V111.26Z" fill="#E1EAED"/>
<path d="M670.27 91.946C675.698 78.3997 676.749 63.1054 672.284 48.1608C669.657 39.2464 665.28 31.206 659.677 24.4766V91.946H670.27Z" fill="#E1EAED"/>
<path d="M314.138 95.4414H259.073V148.491H250.494V127.341C252.595 126.554 254.083 124.544 254.083 122.184C254.083 119.825 252.595 117.815 250.494 117.028V116.679H248.48H162.511V160.813C166.713 177.419 174.33 192.8 184.66 205.997H314.138V95.4414Z" fill="#E1EAED"/>
<path d="M540.879 91.9455V46.0628C528.623 57.4242 508.225 56.9872 496.582 43.1787C495.706 42.13 494.831 41.0812 493.868 40.1199V91.9455H540.879Z" fill="#E1EAED"/>
<path d="M614.941 12.3281C610.214 12.3281 606.362 16.1735 606.362 20.8929V53.2292H588.94V62.3184V66.6882V92.0329H645.582V11.8037C639.366 7.60873 632.538 4.46249 625.359 2.45239V12.3281H614.941Z" fill="#E1EAED"/>
<path d="M588.94 95.4414V204.773C589.378 205.21 589.816 205.56 590.254 205.997H644.619C644.969 205.735 645.232 205.385 645.582 205.123V95.4414H588.94Z" fill="#E1EAED"/>
<path d="M259.073 65.9895V66.4265C256.622 67.3878 254.958 69.7475 254.958 72.4568C254.958 75.2534 256.709 77.5257 259.073 78.4871V91.946H314.138V65.9895H261.437H259.073Z" fill="#E1EAED"/>
<path d="M187.549 209.58C206.721 232.216 234.123 247.947 265.901 251.792C282.622 253.803 298.993 252.229 314.138 247.86V209.668H187.549V209.58Z" fill="#E1EAED"/>
<path d="M412.469 283.112C598.229 283.112 748.817 269.941 748.817 253.693C748.817 237.446 598.229 224.275 412.469 224.275C226.71 224.275 76.1221 237.446 76.1221 253.693C76.1221 269.941 226.71 283.112 412.469 283.112Z" fill="#F4F6F8"/>
<path d="M668.572 257.4C700.131 257.4 725.714 254.199 725.714 250.25C725.714 246.301 700.131 243.1 668.572 243.1C637.012 243.1 611.429 246.301 611.429 250.25C611.429 254.199 637.012 257.4 668.572 257.4Z" fill="#E6ECEF"/>
<path d="M438.572 277.42C489.855 277.42 531.429 274.859 531.429 271.7C531.429 268.541 489.855 265.98 438.572 265.98C387.288 265.98 345.714 268.541 345.714 271.7C345.714 274.859 387.288 277.42 438.572 277.42Z" fill="#E6ECEF"/>
<path d="M251.429 265.98C279.832 265.98 302.857 262.139 302.857 257.4C302.857 252.661 279.832 248.82 251.429 248.82C223.025 248.82 200 252.661 200 257.4C200 262.139 223.025 265.98 251.429 265.98Z" fill="#E6ECEF"/>
<path d="M262.651 127.235L279.397 158.551C279.659 159.038 280.015 159.468 280.443 159.817C280.871 160.165 281.364 160.426 281.893 160.583C282.423 160.741 282.978 160.792 283.527 160.734C284.076 160.676 284.608 160.51 285.093 160.245C286.065 159.714 286.789 158.82 287.104 157.757C287.42 156.695 287.302 155.55 286.777 154.574L270.01 123.218C268.693 120.801 265.959 119.725 263.936 120.83C261.912 121.934 261.334 124.817 262.651 127.235Z" fill="#FFCE94"/>
<path d="M262.262 126.52L270.393 141.717L277.75 137.699L269.621 122.504C269.087 121.529 268.19 120.807 267.125 120.492C266.06 120.178 264.915 120.299 263.938 120.827C262.964 121.362 262.24 122.261 261.926 123.328C261.612 124.395 261.733 125.542 262.262 126.52Z" fill="#0081CA"/>
<path d="M287.565 159.49L305.561 140.894C305.943 140.494 306.241 140.023 306.44 139.508C306.64 138.992 306.735 138.443 306.722 137.89C306.708 137.338 306.585 136.793 306.36 136.289C306.136 135.784 305.814 135.328 305.413 134.949C304.609 134.187 303.536 133.775 302.429 133.803C301.322 133.831 300.271 134.296 299.505 135.096L281.478 153.725C279.587 155.726 279.409 158.659 281.082 160.245C282.757 161.83 285.674 161.492 287.565 159.49Z" fill="#FFCE94"/>
<path d="M296.612 137.557C295.665 134.016 297.765 130.376 301.304 129.427C304.842 128.477 308.479 130.579 309.426 134.121C310.374 137.662 308.274 141.302 304.735 142.251C301.197 143.2 297.56 141.099 296.612 137.557Z" fill="#FFCE94"/>
<path d="M266.61 113.93L236.754 122.991L231.789 88.3534C231.032 83.2348 232.502 78.0505 235.877 73.9409C239.252 69.8313 244.254 67.1331 249.783 66.4398C255.313 65.7467 260.917 67.1154 265.362 70.2446C269.808 73.3739 272.731 78.0075 273.488 83.1261L276.218 102.28C276.609 105.005 275.817 107.761 274.016 109.944C272.216 112.128 269.553 113.561 266.61 113.93Z" fill="#233038"/>
<path d="M250.713 178.157C239.537 178.231 230.342 170.503 230.259 157.755L230.09 131.586C230.008 118.837 240.467 110.19 251.642 110.115C262.818 110.041 270.647 118.568 270.73 131.316L270.9 157.486C270.981 170.233 261.887 178.083 250.713 178.157Z" fill="#00AEEF"/>
<path d="M250.713 178.525C239.537 178.6 230.347 171.908 230.275 160.719L230.256 157.767L270.899 157.497L270.918 160.449C270.99 171.638 261.89 178.452 250.713 178.525Z" fill="#34454F"/>
<path d="M279.179 242.96C278.964 245.588 276.662 247.545 274.036 247.33C271.411 247.115 269.457 244.81 269.672 242.181L272.727 204.867C272.942 202.238 275.245 200.281 277.87 200.497C280.495 200.712 282.449 203.017 282.234 205.645L279.179 242.96Z" fill="#34454F"/>
<path d="M231.509 246.314C230.496 248.749 227.703 249.901 225.271 248.887C222.84 247.873 221.689 245.078 222.702 242.643L237.083 208.081C238.096 205.646 240.888 204.495 243.32 205.508C245.752 206.522 246.902 209.318 245.889 211.752L231.509 246.314Z" fill="#34454F"/>
<path d="M281.199 202.243C282.553 204.506 281.817 207.439 279.556 208.795C277.295 210.151 274.364 209.415 273.01 207.152L253.789 175.023C252.435 172.76 253.17 169.827 255.432 168.471C257.693 167.115 260.624 167.851 261.978 170.114L281.199 202.243Z" fill="#34454F"/>
<path d="M246.515 209.509C246.516 212.147 244.381 214.288 241.744 214.29C239.108 214.292 236.969 212.155 236.968 209.517L236.942 172.068C236.94 169.43 239.076 167.29 241.712 167.288C244.348 167.285 246.487 169.422 246.489 172.06L246.515 209.509Z" fill="#34454F"/>
<path d="M269.792 249.995L287.483 249.079L287.364 246.781C287.277 245.088 286.521 243.5 285.264 242.365C284.641 241.803 283.914 241.37 283.124 241.089C282.334 240.808 281.496 240.686 280.659 240.73L269.344 241.316L269.792 249.995Z" fill="#233038"/>
<path d="M220.414 250.118L237.527 254.697L238.121 252.474C238.558 250.836 238.328 249.092 237.48 247.624C237.061 246.898 236.503 246.261 235.837 245.75C235.172 245.24 234.412 244.865 233.602 244.649L222.658 241.72L220.414 250.118Z" fill="#233038"/>
<path d="M255.501 140.584L280.554 146.995C281.087 147.134 281.588 147.378 282.027 147.712C282.466 148.046 282.834 148.463 283.112 148.94C283.389 149.417 283.569 149.944 283.642 150.491C283.715 151.038 283.679 151.594 283.536 152.126C283.248 153.196 282.548 154.107 281.59 154.661C280.633 155.216 279.495 155.369 278.424 155.087L253.328 148.665C250.671 147.952 248.983 145.55 249.583 143.328C250.18 141.106 252.843 139.872 255.501 140.584Z" fill="#FFCE94"/>
<path d="M238.941 122.774L255.779 141.644C256.144 142.058 256.424 142.541 256.602 143.064C256.78 143.587 256.854 144.141 256.817 144.692C256.781 145.243 256.636 145.782 256.391 146.277C256.146 146.773 255.807 147.215 255.39 147.578C254.556 148.306 253.467 148.674 252.362 148.601C251.257 148.528 250.226 148.021 249.494 147.19L232.624 128.287C230.815 126.21 230.756 123.272 232.494 121.756C234.231 120.238 237.132 120.696 238.941 122.774Z" fill="#FFCE94"/>
<path d="M238.408 122.158L249.823 135.066L243.508 140.578L232.093 127.669C231.365 126.829 230.999 125.735 231.074 124.626C231.15 123.517 231.661 122.483 232.496 121.751C233.335 121.023 234.428 120.658 235.535 120.734C236.643 120.81 237.676 121.322 238.408 122.158Z" fill="#7BD0F5"/>
<path d="M275.186 152.162C274.683 148.53 277.217 145.178 280.845 144.675C284.472 144.173 287.821 146.71 288.324 150.343C288.827 153.975 286.293 157.327 282.665 157.829C279.037 158.332 275.689 155.795 275.186 152.162Z" fill="#FFDCB6"/>
<path d="M253.773 93.414L245.588 93.3881C244.775 93.3883 243.995 93.6861 243.419 94.2166C242.843 94.7471 242.517 95.4673 242.512 96.22L243.016 112.801C243.018 114.558 243.771 116.243 245.11 117.489C246.45 118.736 248.267 119.441 250.165 119.452C252.062 119.453 253.882 118.759 255.227 117.521C256.571 116.283 257.331 114.603 257.34 112.846L256.837 96.265C256.835 95.5124 256.512 94.7904 255.939 94.2563C255.365 93.7223 254.586 93.4195 253.773 93.414Z" fill="#F4BF87"/>
<path d="M256.51 109.829C247.426 110.628 238.953 105.496 238.076 97.0874L236.487 81.8619L269.781 77.9282L271.37 93.1538C271.579 95.1534 271.361 97.1709 270.727 99.0912C270.094 101.011 269.057 102.797 267.677 104.345C266.297 105.894 264.601 107.175 262.685 108.116C260.769 109.057 258.671 109.639 256.51 109.829Z" fill="#FFCE94"/>
<path d="M246.723 80.701C246.723 80.701 249.159 91.1929 242.367 92.4169L242.997 112.276C242.732 111.647 242.25 111.115 241.626 110.762C241.235 110.551 240.796 110.429 240.343 110.407C239.891 110.385 239.441 110.464 239.029 110.636C239.029 110.636 234.773 94.3196 234.689 94.1619C234.605 94.0041 232.769 82.1001 232.769 82.1001L237.774 80.1387L246.723 80.701Z" fill="#233038"/>
<path d="M262.289 78.8194C264.509 78.9042 266.63 79.7011 268.287 81.0736C269.944 82.4462 271.034 84.3088 271.371 86.3421C272.577 92.3488 273.249 86.0881 273.249 86.0881L271.52 77.1609L265.904 74.8666L262.289 78.8194Z" fill="#233038"/>
<path d="M241.071 92.2121L243.471 92.0009L244.453 101.408L242.053 101.62C241.417 101.676 240.782 101.495 240.288 101.118C239.795 100.742 239.483 100.199 239.421 99.6098L238.903 94.6443C238.841 94.0553 239.035 93.4681 239.442 93.012C239.848 92.5559 240.434 92.2681 241.071 92.2121V92.2121Z" fill="#EFBB81"/>
<rect x="0.625107" y="0.330091" width="11.4527" height="21.0498" rx="0.5" transform="matrix(0.955384 -0.295368 0.29483 0.95555 290.733 118.261)" fill="#F2F4F8" stroke="#353A40"/>
<path d="M154.703 61.4283L158.887 61.2079C158.96 61.2041 159.031 61.1817 159.093 61.1428C159.156 61.1043 159.207 61.0501 159.242 60.9856L161.214 57.4706C161.264 57.3804 161.339 57.307 161.431 57.2594C161.522 57.2119 161.624 57.1922 161.726 57.2027C161.831 57.2127 161.93 57.2521 162.013 57.3163C162.097 57.3812 162.161 57.4674 162.201 57.5661L163.765 61.4221C163.794 61.4932 163.839 61.5564 163.896 61.6069C163.952 61.6565 164.02 61.692 164.092 61.7105L168.209 62.7312C168.292 62.7522 168.369 62.7959 168.429 62.8576C168.491 62.9202 168.535 62.9985 168.557 63.0841C168.578 63.1686 168.576 63.2574 168.551 63.3407C168.526 63.4227 168.479 63.4957 168.414 63.5506L165.245 66.2742C165.189 66.3219 165.145 66.3834 165.119 66.4529C165.093 66.5232 165.083 66.5989 165.091 66.6737L165.565 70.9962C165.575 71.0823 165.561 71.1695 165.524 71.2479C165.488 71.3248 165.431 71.3896 165.36 71.4342C165.288 71.4798 165.205 71.5026 165.12 71.4997C165.035 71.4975 164.952 71.4715 164.881 71.4246L161.279 69.0573C161.217 69.0157 161.146 68.9905 161.071 68.9836C160.998 68.9762 160.925 68.9876 160.858 69.0169L157.034 70.668C156.956 70.7011 156.87 70.711 156.787 70.6965C156.703 70.6814 156.624 70.6433 156.56 70.5863C156.494 70.5283 156.445 70.4537 156.418 70.3702C156.391 70.2871 156.387 70.1981 156.406 70.1127L157.35 65.9275C157.366 65.8534 157.365 65.7764 157.347 65.7028C157.328 65.6285 157.291 65.5597 157.241 65.5019L154.405 62.1992C154.348 62.1326 154.309 62.0517 154.294 61.9651C154.278 61.8795 154.286 61.7912 154.317 61.71C154.347 61.6302 154.4 61.5612 154.469 61.5114C154.537 61.4607 154.618 61.4317 154.703 61.4283Z" fill="#145EB3"/>
<path d="M508.98 21.5383L513.153 21.2383C513.225 21.233 513.295 21.2093 513.356 21.1693C513.418 21.1294 513.468 21.0739 513.502 21.0082L515.406 17.4407C515.454 17.3491 515.528 17.2739 515.618 17.2245C515.708 17.175 515.81 17.1532 515.913 17.1617C516.016 17.1699 516.116 17.2075 516.2 17.2703C516.285 17.3336 516.353 17.4191 516.395 17.5179L518.027 21.3618C518.057 21.4324 518.103 21.495 518.16 21.5445C518.218 21.5942 518.286 21.6295 518.359 21.6474L522.486 22.5954C522.57 22.6151 522.647 22.6576 522.709 22.7184C522.771 22.7801 522.817 22.8578 522.84 22.9433C522.863 23.0275 522.863 23.1165 522.84 23.2007C522.817 23.2833 522.771 23.3575 522.708 23.4137L519.594 26.2093C519.538 26.2584 519.496 26.3209 519.471 26.391C519.446 26.4622 519.438 26.5383 519.448 26.6133L520 30.9462C520.011 31.0325 519.999 31.1203 519.964 31.1999C519.93 31.2777 519.873 31.3437 519.803 31.3898C519.733 31.4373 519.65 31.4618 519.566 31.4598C519.481 31.4594 519.397 31.435 519.324 31.3893L515.686 29.079C515.623 29.0386 515.551 29.0146 515.477 29.009C515.404 29.0031 515.331 29.0158 515.265 29.0461L511.478 30.7764C511.401 30.8112 511.316 30.8228 511.233 30.8098C511.148 30.7964 511.068 30.7595 511.002 30.7033C510.936 30.6467 510.886 30.573 510.857 30.4899C510.828 30.4067 510.822 30.3173 510.839 30.2308L511.704 26.0107C511.719 25.936 511.717 25.8588 511.697 25.7852C511.677 25.7109 511.64 25.6424 511.589 25.585L508.697 22.3211C508.638 22.2557 508.598 22.1753 508.581 22.0885C508.564 22.0026 508.57 21.9135 508.6 21.8312C508.628 21.7505 508.68 21.6801 508.748 21.6289C508.814 21.5755 508.895 21.5439 508.98 21.5383Z" fill="#145EB3"/>
<path d="M678.712 40.3321L679.321 43.6409C679.333 43.7007 679.36 43.7559 679.397 43.8013C679.436 43.8493 679.484 43.8864 679.539 43.9096L682.587 45.238C682.663 45.2703 682.729 45.3252 682.779 45.3965C682.826 45.4624 682.854 45.5432 682.857 45.6273C682.86 45.7118 682.837 45.795 682.793 45.864C682.748 45.9381 682.686 45.9967 682.612 46.0332L679.653 47.535C679.599 47.5619 679.553 47.6024 679.517 47.6533C679.483 47.7006 679.461 47.7573 679.453 47.8172L679.051 51.1556C679.043 51.2245 679.015 51.2886 678.973 51.3391C678.927 51.3948 678.869 51.4358 678.804 51.4574C678.736 51.4813 678.665 51.4864 678.595 51.4722C678.527 51.4587 678.464 51.4263 678.411 51.3781L675.88 49.0421C675.834 49.0006 675.78 48.9711 675.723 48.9557C675.663 48.9391 675.602 48.9367 675.541 48.9486L672.092 49.6154C672.023 49.628 671.952 49.6225 671.885 49.5994C671.82 49.5764 671.762 49.5358 671.716 49.4811C671.674 49.4293 671.647 49.3645 671.639 49.2953C671.633 49.2272 671.645 49.1586 671.675 49.0988L673.218 46.0811C673.246 46.0297 673.26 45.9707 673.258 45.911C673.256 45.8512 673.239 45.7932 673.209 45.7439L671.478 42.8167C671.443 42.7595 671.426 42.6913 671.429 42.6224C671.432 42.5534 671.455 42.4875 671.495 42.4345C671.537 42.3765 671.592 42.3323 671.655 42.3066C671.721 42.2797 671.792 42.2703 671.863 42.2794L675.347 42.748C675.408 42.7555 675.47 42.7495 675.528 42.7303C675.584 42.711 675.636 42.6783 675.679 42.6344L678.058 40.1581C678.109 40.107 678.17 40.0709 678.236 40.0534C678.305 40.0356 678.377 40.0356 678.446 40.0534C678.512 40.0721 678.573 40.1087 678.623 40.1599C678.667 40.2065 678.698 40.2663 678.712 40.3321Z" fill="#145EB3"/>
<path d="M292.113 43.0671L295.963 47.0112C296.028 47.0791 296.109 47.1285 296.197 47.155C296.285 47.1805 296.378 47.1814 296.466 47.1574L301.268 45.856C301.392 45.8218 301.523 45.8282 301.643 45.8741C301.766 45.9219 301.873 46.0053 301.952 46.1145C302.034 46.2281 302.086 46.3623 302.103 46.5035C302.12 46.6464 302.102 46.7915 302.05 46.9249L300.039 52.0469C300.003 52.1414 299.986 52.2433 299.992 52.3451C299.998 52.4469 300.025 52.5461 300.072 52.6356L302.775 57.6614C302.829 57.7643 302.858 57.8802 302.857 57.9979C302.856 58.1158 302.826 58.2314 302.77 58.3335C302.716 58.4317 302.637 58.5123 302.541 58.566C302.448 58.6172 302.342 58.638 302.238 58.6258L297.083 58.0053C296.993 57.9948 296.901 58.0092 296.817 58.047C296.732 58.0863 296.657 58.1471 296.599 58.2241L293.227 62.6975C293.161 62.7864 293.072 62.8534 292.97 62.8903C292.871 62.9261 292.765 62.9295 292.664 62.9001C292.561 62.8698 292.468 62.8087 292.398 62.7245C292.325 62.637 292.275 62.5304 292.254 62.416L291.181 56.6538C291.162 56.5542 291.122 56.4604 291.064 56.3796C291.007 56.3017 290.933 56.2396 290.848 56.1985L286.06 53.9375C285.961 53.8902 285.878 53.8147 285.819 53.7197C285.758 53.621 285.722 53.5074 285.715 53.3899C285.709 53.2725 285.731 53.1552 285.781 53.0496C285.829 52.9469 285.903 52.8601 285.996 52.7989L290.486 49.8595C290.565 49.8062 290.631 49.7336 290.678 49.648C290.727 49.5597 290.756 49.4609 290.763 49.3591L291.177 43.488C291.185 43.3705 291.222 43.2572 291.284 43.1593C291.344 43.0651 291.429 42.9907 291.529 42.9449C291.625 42.901 291.732 42.8888 291.835 42.9101C291.941 42.9321 292.038 42.9868 292.113 43.0671Z" fill="#145EB3"/>
<path d="M347.143 51.4799C349.51 51.4799 351.429 49.559 351.429 47.1902C351.429 44.8213 349.509 42.8999 347.143 42.8999C344.776 42.8999 342.857 44.8208 342.857 47.1902C342.857 49.5596 344.773 51.4799 347.143 51.4799Z" fill="#71D4FF"/>
<path d="M217.143 31.4601C223.455 31.4601 228.572 26.337 228.572 20.0203C228.572 13.7037 223.455 8.58008 217.143 8.58008C210.831 8.58008 205.714 13.7032 205.714 20.0203C205.714 26.3375 210.831 31.4601 217.143 31.4601Z" fill="#71D4FF"/>
<path d="M614.286 31.4601C620.598 31.4601 625.714 26.337 625.714 20.0203C625.714 13.7037 620.598 8.58008 614.286 8.58008C607.974 8.58008 602.857 13.7032 602.857 20.0203C602.857 26.3375 607.974 31.4601 614.286 31.4601Z" fill="#71D4FF"/>
<path d="M494.286 122.98C495.864 122.98 497.143 121.699 497.143 120.12C497.143 118.541 495.864 117.26 494.286 117.26C492.708 117.26 491.429 118.541 491.429 120.12C491.429 121.699 492.708 122.98 494.286 122.98Z" fill="#7BD0F5"/>
<path d="M454.286 260.26C457.441 260.26 460 257.7 460 254.541C460 251.382 457.441 248.82 454.286 248.82C451.131 248.82 448.571 251.382 448.571 254.541C448.571 257.7 451.129 260.26 454.286 260.26Z" fill="#71D4FF"/>
<path d="M175.714 251.68C193.861 251.68 208.571 249.119 208.571 245.96C208.571 242.801 193.861 240.24 175.714 240.24C157.568 240.24 142.857 242.801 142.857 245.96C142.857 249.119 157.568 251.68 175.714 251.68Z" fill="#E6ECEF"/>
<path d="M187.225 203.53C186.642 203.53 186.083 203.298 185.67 202.886C185.258 202.473 185.026 201.913 185.026 201.33V180.86C185.036 180.283 185.272 179.733 185.683 179.329C186.095 178.925 186.648 178.698 187.225 178.698C187.801 178.698 188.355 178.925 188.766 179.329C189.177 179.733 189.413 180.283 189.423 180.86V201.33C189.423 201.913 189.191 202.473 188.779 202.885C188.367 203.298 187.808 203.53 187.225 203.53Z" fill="#233038"/>
<path d="M187.224 182.735C195.627 182.735 202.44 175.916 202.44 167.504C202.44 159.093 195.627 152.274 187.224 152.274C178.821 152.274 172.009 159.093 172.009 167.504C172.009 175.916 178.821 182.735 187.224 182.735Z" fill="#0081CA"/>
<path d="M163.789 203.53C163.206 203.53 162.646 203.298 162.234 202.886C161.822 202.473 161.59 201.913 161.59 201.33V180.861C161.59 180.277 161.822 179.717 162.234 179.304C162.647 178.892 163.206 178.66 163.789 178.66C164.372 178.66 164.931 178.892 165.344 179.304C165.756 179.717 165.988 180.277 165.988 180.861V201.33C165.988 201.913 165.756 202.473 165.343 202.886C164.931 203.298 164.372 203.53 163.789 203.53Z" fill="#233038"/>
<path d="M163.787 185.081C172.19 185.081 179.002 178.262 179.002 169.85C179.002 161.439 172.19 154.62 163.787 154.62C155.384 154.62 148.571 161.439 148.571 169.85C148.571 178.262 155.384 185.081 163.787 185.081Z" fill="#0081CA"/>
<path d="M174.818 205.765C173.899 205.765 173.018 205.4 172.368 204.749C171.718 204.099 171.353 203.217 171.353 202.297V170.047C171.378 169.144 171.754 168.288 172.401 167.658C173.047 167.029 173.914 166.677 174.816 166.677C175.718 166.677 176.584 167.029 177.23 167.658C177.877 168.288 178.253 169.144 178.278 170.047V202.299C178.278 203.218 177.913 204.099 177.264 204.749C176.615 205.398 175.736 205.764 174.818 205.765Z" fill="#233038"/>
<path d="M174.818 176.694C188.058 176.694 198.791 165.95 198.791 152.697C198.791 139.444 188.058 128.7 174.818 128.7C161.578 128.7 150.845 139.444 150.845 152.697C150.845 165.95 161.578 176.694 174.818 176.694Z" fill="#00AEEF"/>
<path d="M181.213 246.191H169.597C166.357 246.191 163.249 244.902 160.957 242.609C158.666 240.315 157.379 237.204 157.379 233.96L154.15 204.139C154.15 201.947 155.019 199.845 156.567 198.295C158.116 196.746 160.216 195.875 162.405 195.875H187.722C189.911 195.875 192.011 196.746 193.559 198.295C195.107 199.845 195.977 201.947 195.977 204.139L193.434 233.96C193.434 235.566 193.117 237.157 192.503 238.641C191.889 240.125 190.989 241.473 189.854 242.609C188.72 243.745 187.372 244.646 185.89 245.26C184.407 245.875 182.818 246.191 181.213 246.191Z" fill="#34454F"/>
<path d="M434.195 240.06C494.107 240.06 542.677 191.442 542.677 131.47C542.677 71.4982 494.107 22.8799 434.195 22.8799C374.284 22.8799 325.714 71.4982 325.714 131.47C325.714 191.442 374.284 240.06 434.195 240.06Z" fill="#00AEEF"/>
<path d="M350.123 132.837C350.125 154.796 358.984 175.855 374.752 191.381C390.52 206.907 411.905 215.628 434.202 215.627C456.499 215.626 477.882 206.902 493.648 191.374C509.414 175.846 518.269 154.786 518.269 132.827C518.269 110.868 509.414 89.8085 493.648 74.2806C477.882 58.7528 456.499 50.0286 434.202 50.0273C411.905 50.0261 390.52 58.7479 374.752 74.274C358.984 89.8001 350.125 110.859 350.123 132.818V132.837Z" fill="white"/>
<path d="M417.277 175.395L382.098 138.936C380.726 137.511 379.955 135.579 379.955 133.565C379.955 131.552 380.726 129.62 382.098 128.195L389.985 120.024C390.665 119.319 391.472 118.759 392.361 118.377C393.249 117.995 394.202 117.798 395.164 117.798C396.125 117.798 397.078 117.995 397.967 118.377C398.855 118.759 399.662 119.319 400.342 120.024L417.276 137.578C418.65 139 420.512 139.799 422.454 139.799C424.396 139.799 426.258 139 427.632 137.578L468.043 95.6902C468.723 94.9843 469.53 94.4242 470.419 94.0421C471.308 93.66 472.262 93.4634 473.224 93.4634C474.187 93.4634 475.14 93.66 476.029 94.0421C476.918 94.4242 477.725 94.9843 478.405 95.6902L486.287 103.861C486.969 104.566 487.509 105.404 487.876 106.327C488.246 107.247 488.437 108.234 488.437 109.231C488.437 110.228 488.246 111.215 487.876 112.135C487.509 113.058 486.969 113.897 486.287 114.602L427.632 175.401C426.258 176.823 424.395 177.622 422.453 177.621C420.511 177.62 418.648 176.819 417.276 175.395H417.277Z" fill="#00AEEF"/>
</g>
<path d="M631.293 94.1221L637.701 70.6084C638.287 68.5005 640.477 67.2713 642.585 67.8744C644.67 68.473 645.884 70.6446 645.303 72.7302L638.882 96.2818C638.172 98.7715 635.88 100.329 633.795 99.7303C631.707 99.1429 630.588 96.6185 631.293 94.1221Z" fill="#FFCE94"/>
<path d="M655.734 124.11L632.909 99.6986C631.422 98.1009 631.516 95.5918 633.12 94.1041C634.713 92.6311 637.202 92.73 638.675 94.3171L661.527 118.757C663.282 120.661 663.414 123.429 661.821 124.902C660.235 126.377 657.496 126.015 655.734 124.11Z" fill="#FFCE94"/>
<path d="M656.262 124.672L645.194 112.822L650.996 107.471L662.063 119.321C663.535 120.916 663.432 123.432 661.84 124.897C660.237 126.376 657.724 126.274 656.262 124.672Z" fill="#0081CA"/>
<path d="M637.559 71.1673C637.062 67.7547 639.424 64.5843 642.834 64.086C646.245 63.5876 649.412 65.95 649.909 69.3626C650.405 72.7751 648.044 75.9455 644.633 76.4439C641.223 76.9422 638.056 74.5798 637.559 71.1673Z" fill="#FFCE94"/>
<path d="M669.483 175.125C679.964 176.003 689.158 169.411 690.148 157.453L692.193 132.907C693.191 120.949 683.997 112.076 673.508 111.206C663.027 110.328 655.057 117.766 654.067 129.724L652.022 154.27C651.032 166.228 659.001 174.246 669.483 175.125Z" fill="#00AEEF"/>
<path d="M669.45 175.471C679.931 176.35 689.044 170.733 689.914 160.233L690.147 157.461L652.021 154.278L651.788 157.05C650.918 167.55 658.968 174.593 669.45 175.471Z" fill="#34454F"/>
<path d="M674.61 74.6077L681.582 75.3007C683.023 75.4458 684.077 76.7432 683.94 78.1775L680.181 115.923C679.843 119.283 676.824 121.757 673.467 121.426C670.11 121.088 667.639 118.066 667.969 114.706L671.728 76.9607C671.873 75.5264 673.169 74.4627 674.61 74.6077Z" fill="#F4BF87"/>
<path d="M669.812 112.869C678.144 114.174 685.952 108.469 687.257 100.137L689.615 85.0434L659.451 80.3213L657.092 95.4144C655.788 103.747 661.488 111.563 669.812 112.869Z" fill="#FFCE94"/>
<path d="M685.567 75.51C690.333 76.2595 693.593 80.7318 692.852 85.5023L692.248 89.3784L692.087 90.434L690.485 100.692L689.101 100.475C687.451 100.217 686.324 98.6696 686.581 97.0257L687.088 93.7863C687.434 91.5622 685.913 89.467 683.691 89.1205L660.941 85.5588C656.175 84.8093 652.915 80.337 653.656 75.5664L654.428 70.6348L685.567 75.51Z" fill="#233038"/>
<path d="M684.697 100.926L686.733 101.248C687.86 101.425 688.915 100.652 689.092 99.5235L689.809 94.9625C689.986 93.8343 689.213 92.7787 688.086 92.6014L686.049 92.2791L684.697 100.926Z" fill="#EFBB81"/>
<path d="M650.507 244C652.963 244.339 655.233 242.614 655.563 240.156L660.337 205.24C660.675 202.782 658.952 200.51 656.497 200.179C654.041 199.841 651.771 201.565 651.441 204.023L646.667 238.94C646.337 241.397 648.052 243.67 650.507 244Z" fill="#34454F"/>
<path d="M655.248 209.302C657.704 209.641 659.974 207.916 660.304 205.459L665.078 170.542C665.416 168.084 663.693 165.812 661.238 165.481C658.782 165.143 656.512 166.867 656.182 169.325L651.408 204.242C651.078 206.7 652.793 208.972 655.248 209.302Z" fill="#34454F"/>
<path d="M639.383 247.409L656.055 247.401L656.047 239.221L645.38 239.229C642.063 239.229 639.375 241.929 639.375 245.249L639.383 247.409Z" fill="#233038"/>
<path d="M687.885 244C685.43 244.339 683.16 242.614 682.829 240.156L678.056 205.24C677.718 202.782 679.44 200.51 681.896 200.179C684.351 199.841 686.621 201.565 686.951 204.023L691.725 238.94C692.063 241.397 690.34 243.67 687.885 244Z" fill="#34454F"/>
<path d="M683.144 209.302C680.689 209.64 678.419 207.915 678.088 205.458L673.315 170.541C672.977 168.083 674.699 165.811 677.155 165.48C679.61 165.142 681.88 166.866 682.21 169.324L686.984 204.241C687.322 206.699 685.599 208.971 683.144 209.302Z" fill="#34454F"/>
<path d="M699.011 247.408L682.339 247.4L682.347 239.221L693.013 239.229C696.33 239.229 699.019 241.928 699.019 245.248L699.011 247.408Z" fill="#233038"/>
<path d="M708.047 90.8095L704.424 66.7162C704.085 64.5494 702.054 63.0762 699.894 63.4255C697.751 63.7733 696.297 65.7853 696.627 67.9311L700.258 92.0709C700.674 94.6327 702.761 96.441 704.904 96.0932C707.053 95.7484 708.463 93.3713 708.047 90.8095Z" fill="#FFCE94"/>
<path d="M693.82 126.263L707.078 95.5815C707.943 93.5709 707.003 91.2393 704.993 90.3839C702.998 89.5372 700.689 90.4633 699.832 92.4581L686.555 123.183C685.542 125.572 686.357 128.217 688.352 129.064C690.352 129.917 692.807 128.653 693.82 126.263Z" fill="#FFCE94"/>
<path d="M693.518 126.973L699.943 112.079L692.678 108.999L686.253 123.893C685.408 125.889 686.348 128.221 688.342 129.068C690.349 129.917 692.673 128.97 693.518 126.973Z" fill="#7BD0F5"/>
<path d="M695.179 60.5725C697.854 58.3992 701.783 58.8085 703.955 61.4868C706.128 64.1651 705.72 68.0981 703.046 70.2714C700.372 72.4447 696.443 72.0354 694.27 69.3571C692.098 66.6789 692.505 62.7459 695.179 60.5725Z" fill="#FFCE94"/>
<defs>
<clipPath id="clip0">
<rect width="800" height="283.14" fill="white"/>
</clipPath>
</defs>
</svg>
